<?xml version="1.0" standalone="no"?>
<!DOCTYPE svg PUBLIC "-//W3C//DTD SVG 1.1//EN" "http://www.w3.org/Graphics/SVG/1.1/DTD/svg11.dtd" >
<svg xmlns="http://www.w3.org/2000/svg" xmlns:xlink="http://www.w3.org/1999/xlink" version="1.1">
<metadata>
Created by FontForge 20170910 at Fri Feb  9 15:16:59 2007
 By Jimmy Wärting
3.0, (c)1997 Jonathan Macagba. Shareware $5 (Tel 215-922-5584)
</metadata>
<defs>
<font id="SmileyfaceFont3" horiz-adv-x="755" >
  <font-face 
    font-family="Smileyface Font 3"
    font-weight="400"
    font-stretch="normal"
    units-per-em="1000"
    panose-1="0 0 4 0 0 0 0 0 0 0"
    ascent="800"
    descent="-200"
    x-height="533"
    cap-height="738"
    bbox="0 -76 1237.03 803"
    underline-thickness="20"
    underline-position="-143"
    unicode-range="U+0020-0104"
  />
<missing-glyph horiz-adv-x="500" 
d="M63 0v800h375v-800h-375zM125 63h250v675h-250v-675z" />
    <glyph glyph-name=".notdef" horiz-adv-x="500" 
d="M63 0v800h375v-800h-375zM125 63h250v675h-250v-675z" />
    <glyph glyph-name=".null" horiz-adv-x="0" 
 />
    <glyph glyph-name="nonmarkingreturn" horiz-adv-x="455" 
 />
    <glyph glyph-name="space" unicode=" " horiz-adv-x="455" 
 />
    <glyph glyph-name="exclam" unicode="!" 
d="M592 601q0 -14 -12 -12q-6 0 -16.5 11.5t-22.5 11.5q-11 0 -18.5 -4.5l-12.5 -7.5q-5 2 -24 22q-16 16 -37 16q-9 0 -23 -5t-15 -5q-12 0 -12 12q0 9 22 16q17 5 30 5q26 0 48 -20t21 -20q1 0 7 7t14 7q11 0 31 -12.5t20 -21.5zM487 513q0 -56 -21 -56q-11 0 -11 11
q0 56 20 56q12 0 12 -11zM666 210q0 -21 -15 -42t-15 -33q0 -10 11.5 -35t11.5 -41q0 -19 -12 -19q-10 0 -10 18q0 14 -11 37t-11 36q0 15 15 38.5t15 40.5q0 16 -15 40.5t-15 39.5q0 14 15 26t15 22q0 11 -27 26.5t-27 40.5q0 14 8 40t8 40q0 27 -17 46t-17 18q0 13 11 13
q19 0 34 -30q13 -26 13 -47q0 -14 -9 -40t-9 -39q0 -11 26.5 -31.5t26.5 -39.5q0 -16 -15 -25t-15 -20q0 -9 15 -34.5t15 -45.5zM356 529q0 -73 -18 -73q-11 0 -13 11q0 73 19 73q10 0 12 -11zM742 248q0 -16 -18.5 -42t-18.5 -41q0 -9 10.5 -31t10.5 -40q0 -10 -3 -30.5
t-3 -32.5t-10 -12q-13 0 -13 21q0 9 4 26.5t4 27.5q0 14 -10 33t-10 29q0 16 18 42t18 42t-14 32t-14 25q0 13 9 35.5t9 35.5q0 42 -18 57q-8 5 -18 11t-10 11q0 15 9.5 45.5t9.5 45.5q0 26 -15 54.5t-38 42.5l-24 5q-9 5 -10 16q1 -9 1 20q0 22 -27 33q-21 9 -46 9
q-76 0 -113 -33l-9 -3q-13 0 -11 12q-63 30 -112 31q-39 0 -75 -26q-39 -28 -40 -67q1 -10 -2 -27q-75 -26 -75 -109q0 -25 15.5 -56t15.5 -33q0 -1 -20.5 -28.5t-20.5 -57.5q0 -26 18.5 -57.5t18.5 -38.5q0 -4 -8 -13t-8 -24q0 -12 2 -34.5t2 -33.5q0 -17 -4 -37
q-7 -28 -17 -28q-12 0 -12 11q0 9 5.5 27.5t5.5 28.5q0 11 -2 35t-2 36q0 13 8.5 23t8.5 14q0 -1 -19.5 30.5t-19.5 62.5q0 36 20 61q12 14 23 28q-33 30 -33 85q0 74 61 119q3 1 8.5 2t8.5 1q-2 53 41 90.5t96 37.5q26 0 67.5 -11t58.5 -25q43 30 117 31q32 0 61 -14
q37 -18 37 -48q0 -3 -2 -9t-2 -9q37 -7 64 -46q24 -37 24 -77q0 -16 -8 -44.5t-8 -41.5q0 -1 18 -10q27 -22 27 -76q0 -15 -9.5 -37.5t-9.5 -32.5q0 -8 13.5 -20.5t13.5 -28.5zM599 267q0 -24 -13.5 -50.5t-13.5 -42.5t12 -33t12 -26q0 -5 -9 -34.5t-9 -55.5q0 -12 -11 -12
q1 -3 1 -7q0 -10 -11 -10h-3q-21 7 -51 26q-35 23 -41 38q-9 22 -5 61q-28 -18 -59 -19q-49 -1 -98 27q-5 -43 -7 -49q-7 -33 -24 -40l-62 -32q-45 -23 -61 -23q-11 0 -11 12q0 9 9 11q24 8 59 25q44 23 57.5 28.5t17.5 36.5q1 22 2 45q-66 48 -104 169q-21 -24 -21 -35
q0 -10 10 -28.5t10 -29.5q0 -13 -9.5 -30t-9.5 -28q0 -8 5.5 -24t5.5 -25v-32q0 -8 4.5 -21.5t4.5 -19.5q0 -14 -11 -14q-20 0 -20 87q0 9 -5 26t-5 27q0 11 8.5 27t8.5 26q0 12 -8.5 34t-8.5 33q0 17 22.5 39t22.5 38q0 12 -12 28.5t-12 27.5q0 15 24 36t24 34
q0 7 -11 26.5t-11 28.5q0 12 23.5 22.5t23.5 17.5q0 6 -4.5 15.5t-4.5 14.5q0 3 11 18.5t15 19.5q20 18 53 18q17 0 38 -6q28 -9 28 -21q1 -5 -2.5 -8.5t-8.5 -2.5l-19.5 7t-34.5 7q-20 0 -39 -11.5t-19 -29.5q0 10 4 -30q0 -15 -18.5 -23.5t-18.5 -15.5q0 -5 7.5 -17.5
t7.5 -19.5q0 -13 -23.5 -35.5t-23.5 -38.5q0 -11 13 -28.5t13 -30.5q0 -14 -9 -30q35 -100 68 -142q52 -68 136 -68q30 0 75 37q36 29 59 76q13 29 32 91q0 5 1 17q0 18 11 18q10 0 10 -19q0 -13 6.5 -38.5t6.5 -39.5zM577 274v11q-31 -91 -93 -145q-5 -23 -5 -43
q0 -30 24 -49q14 -12 53 -28v10q-1 6 -1 9q0 19 10.5 47t10.5 37t-12.5 25t-12.5 32q0 14 13 41t13 53zM452 284q0 -12 -28 -27t-43 -15q-19 0 -41 15q-25 16 -25 34q0 12 11 12q3 0 18 -19t37 -19q19 0 36 15.5t22 15.5q11 2 13 -12z" />
    <glyph glyph-name="quotedbl" unicode="&#x22;" horiz-adv-x="948" 
d="M885 383q0 -73 -48 -140q-42 -59 -111 -102q42 -33 84 -80q57 -62 57 -93q0 -19 -16 -19q-30 40 -59 80q-62 83 -84 101q-88 -47 -196 -47q-90 0 -191 33q-7 -9 -19 -9q-6 0 -51 14q-28 -17 -90 -84q-58 -65 -64 -67q-21 0 -21 26q0 32 60 79q43 34 90 57
q-69 36 -109 98.5t-40 138.5q0 78 42.5 145.5t113.5 94.5q5 2 81 16q28 117 259 140q-45 -43 -70 -79q54 25 144 25q45 0 84 -7q-15 -15 -71 -101q95 -20 155 -71q70 -61 70 -149zM850 393q0 78 -63 130q-54 45 -137 60q-5 -5 -13 -5q-20 0 -20 23q0 17 42 74
q-67 -2 -122 -28q-46 -22 -104 -71q13 49 20 71q13 38 29 68q-64 -18 -94 -37.5t-68 -71.5q-109 -42 -153 -90q-58 -60 -58 -165q0 -65 44 -104q26 -24 91 -51q61 -26 78 -44q88 -20 161 -20q132 0 240 63q127 75 127 198zM621 430q0 -34 -29 -34q-16 0 -31 46
q-13 39 -13 61t18 22q13 0 34 -39.5t21 -55.5zM504 416q0 -35 -27 -35t-27 36q0 8 1.5 21.5t1.5 17.5q0 7 -4.5 19t-4.5 17q0 18 14 18t31 -40q15 -36 15 -54zM732 469q0 -14 -5 -45t-5 -47q0 -62 -71 -111q-64 -45 -129 -45q-30 0 -60 17q-6 3 -51 35q-19 13 -56.5 30
t-53.5 29q-26 20 -39 51q-23 56 -23 70q0 36 16 36q22 0 43 -49l28 -68q18 -26 93.5 -69t106.5 -43q36 0 91.5 41.5t65.5 75.5l12 62q10 46 24 46q13 0 13 -16z" />
    <glyph glyph-name="numbersign" unicode="#" horiz-adv-x="653" 
d="M406 466q0 -9 -9 -9t-9 9t-4.5 29t-4.5 29q0 8 9 10q9 0 14 -30q4 -21 4 -38zM341 467q0 -9 -9 -9t-9 9q0 21 -15 58q-1 1 -1 4l1 1q0 8 8 8q10 0 19 -31q6 -25 6 -40zM209 629q0 -10 -14 -8q-20 0 -48 18t-43 18q-14 0 -40.5 -9t-41.5 -9q-10 0 -8 9q0 7 9 8q13 1 41 10
q25 9 40 9q18 0 47 -18t48 -18q10 0 10 -10zM505 436q0 -44 -62 -67q-45 -17 -98 -17q-100 0 -146 56q-2 4 -2 6q0 8 9 10l8 -4q41 -51 131 -51q110 0 141 66q4 6 9 6q10 0 10 -5zM612 475q0 -56 -44 -81l-7 -2q2 -18 5 -27q13 -16 13 -110q0 -227 -212 -227q-104 0 -176 56
q-77 61 -77 162q0 89 27 176q2 0 -6 -1q-40 0 -65 22t-25 61q0 28 18.5 51t45.5 23q13 0 40.5 -10.5t27.5 -19.5q0 -10 -9 -10v1q-3 0 -23 10.5t-36 10.5q-20 0 -33 -17.5t-13 -37.5q0 -34 19 -50q12 -10 37 -15q22 -4 24 -8q2 6 9 6q9 0 9 -4v-9q-5 -13 -12 -40
q-17 -75 -17 -139q0 -93 73 -149q66 -51 162 -51q194 1 194 209q0 61 -7 98q-6 7 -9 26q-1 14 -3.5 28t-28.5 108q-24 84 -24 99q0 2 8 6q15 0 27 -73q8 6 24 6l-1 1v1q-4 15 -6 29q0 12 5.5 35.5t5.5 35.5q0 39 -65 39q-12 0 -36.5 -11t-37.5 -11q-17 0 -35 17t-28 17
q-25 0 -69.5 -20t-68.5 -20q-21 0 -49 19t-44 19q-8 0 -23.5 -4.5t-22.5 -4.5q-8 0 -8 9q0 18 53 18q21 0 49 -19t45 -19q23 0 65.5 20t70.5 20q17 0 36 -17.5t30 -17.5t35 11t37 11q84 0 84 -56q0 -12 -5 -35.5t-5 -35.5q0 -4 2 -11.5t1 -11.5q0 -6 -3 -10
q23 -6 37.5 -28.5t14.5 -47.5zM595 475q0 21 -14 40.5t-36 19.5q-9 -1 -16 -8q13 -39 30 -117q35 20 36 65z" />
    <glyph glyph-name="dollar" unicode="$" horiz-adv-x="842" 
d="M810 480q0 -40 -63 -106q-27 -28 -98 -88l1 -1q0 -2 34 -47.5t34 -84.5q0 -34 -17 -59q-19 -29 -50 -29q-73 0 -142 42q-72 43 -101 107l3 8q-100 -179 -176 -179q-62 0 -62 89q0 70 49 159q-59 27 -119 55q-77 42 -77 89q0 29 36 42q9 3 61 13q48 9 79 9q28 0 55 -8l1 7
q1 22 -6.5 63.5t-7.5 61.5q0 64 68 64q117 0 203 -140q3 -3 12.5 -21.5t9.5 -20.5t-2 -6q30 -3 28 -3q30 0 88 11t87 11q72 0 72 -38zM788 475q0 20 -57 20q-28 0 -83 -6t-83 -6q-49 0 -50 8q0 5 6 8q-6 4 -7 6q-10 15 -29 45q-83 126 -174 126q-46 0 -46 -62q0 -19 4 -54.5
t4 -53.5q0 -12 -2.5 -25.5t-12.5 -13.5q-16 0 -49.5 6.5t-49.5 6.5q-30 1 -67 -8q-49 -12 -49 -32q0 -40 81 -80q56 -26 113 -52l2 -9q7 0 7 -5q0 -3 -25.5 -65.5t-25.5 -103.5q0 -59 40 -58q30 0 75 49q33 36 58 77l16 32q12 22 23 22t41 -42q37 -53 68 -78q53 -42 120 -42
q59 0 59 67q0 39 -33.5 76t-33.5 53q0 17 80 89t80 105zM454 416q0 -6 -9 -6q-12 0 -15 9q-15 49 -15 58q0 7 10 7q12 0 14 -9q15 -70 15 -59zM374 424q0 -9 -14 -9q-9 0 -10 6q-7 44 -7 48q-2 13 13 13q6 0 12 -27q6 -23 6 -31zM515 395q-13 -32 -50.5 -51t-74.5 -19h-1
q-62 0 -108 38q-1 1 -11 10q0 10 9 10q1 0 4 -3q40 -32 100 -32q43 0 82 26t41 26q4 0 9 -3v-2z" />
    <glyph glyph-name="percent" unicode="%" horiz-adv-x="925" 
d="M774 493q0 -10 -6 -28q-8 -22 -18 -22q-15 0 -15 12q0 11 7 26q8 20 19 20q12 0 13 -8zM904 392q0 -11 -47 -61q-126 -133 -309 -133q-127 0 -223 79q-13 12 -30 28v4q0 5 7 5q-3 0 6 -8q13 -12 40 -35q79 -59 185 -59q165 0 308 133q12 14 16 21q-27 -14 -68 -14
q-80 0 -133 51l-3 6q0 4 3.5 10.5t7.5 5.5q68 -51 126 -50q38 0 87 33l3 2q-11 50 -87 111q-71 56 -127 71l-2 -8q-93 -62 -93 -177q-1 -2 -3 -2q-7 0 -7 3q0 135 84 188q-36 8 -70 8q-185 1 -265 -146q-3 -4 -10 -4q-10 0 -14 5l-4 4q-10 53 -59 95q-25 22 -89 59
q-50 28 -57 45q-1 -3 -8 -28q-6 -17 -6 -29q0 -32 35.5 -92.5t35.5 -96.5q0 -18 -16.5 -65t-16.5 -87q0 -19 2 -55t2 -54q0 -27 -7 -65q-9 -51 -23 -51q-9 0 -7 8q0 -1 10 18q18 35 18 80q0 25 -8 76t-8 77q0 29 14.5 67.5t14.5 54.5q0 33 -35 94.5t-35 96.5q0 15 7 38
q9 28 19 28q33 0 25 -1q26 -18 77 -51q55 -33 81 -57q39 -36 50 -82q34 57 107 98t141 41q121 0 212 -52q100 -58 130 -163q8 -7 16 -18zM285 289q0 -2 -6 -21q-23 -72 -39 -106q-30 -61 -70 -87q-24 -12 -25 -12q-16 0 -20 17l3 4q43 12 67 49q12 18 34 74q19 49 40 72
q12 13 14 13q2 -1 2 -3z" />
    <glyph glyph-name="ampersand" unicode="&#x26;" horiz-adv-x="710" 
d="M648 491q0 -7 -7.5 -16.5t-15.5 -9.5q-13 0 -37 10.5t-36 10.5q-1 0 -13 -24.5t-26 -24.5q-12 0 -18 25q-5 19 -5 35q0 6 5 13q-80 31 -80 52q0 14 33 18q31 8 40 21q5 9 5.5 33.5t7.5 42.5q3 8 11 8q12 0 9 -10l4 -2v1q2 -3 19 -34q13 -25 22 -25q5 0 16 2.5t17 1.5
q36 0 36 -17q0 -16 -20 -36.5t-20 -19.5q2 -6 28 -27.5t25 -27.5zM630 480l-34 28q-23 21 -23 37q0 17 22 32q11 7 22 15q-8 4 -32.5 4t-37.5 7q-20 11 -32 41q-5 -50 -19.5 -63.5t-69.5 -25.5h6q18 0 44 -9q32 -11 32 -26q0 -2 -1 -5q3 -3 4 -15q0 -8 -1 -23t-1 -17
q0 -5 1 -5t2 1q5 10 19 29q14 15 32 15q37 0 67 -20zM635 282q-1 -22 -15 -67q-18 -53 -32 -52t-14 10q0 1 1 2q18 32 23 45q7 18 12 50t5 25q0 5 -3 5q4 0 -43.5 -17t-79.5 -17q-57 0 -104 26q-33 -58 -106 -58q-22 0 -54 13q-37 16 -37 34q0 4 4 4q-3 0 25 -15.5t54 -15.5
q62 0 96 48q-72 47 -72 127q0 64 29 115q19 31 55 64q29 26 29 33q0 10 -33 5q-14 0 -13 11q0 11 21 11q42 0 42 -18q0 -13 -29 -46q-37 -44 -52 -71q-29 -51 -29 -107q0 -64 60 -107q55 -39 122 -39q28 0 69 15t51 15q19 0 18 -28zM563 132l-2 -6q-97 -86 -225 -85
q-122 0 -197 78t-75 201q0 99 55 185q51 80 141 132q59 34 71 34q10 0 10 -13l-3 -3q-115 -48 -180 -129q-73 -89 -73 -207q0 -114 71 -187t184 -73q97 0 173 56q12 11 35 29q2 1 7 1q8 0 8 -13zM297 375q0 -12 -6 -12q-3 0 -20.5 21t-17.5 25l1 -1q0 11 11 11l7 -2
q25 -40 25 -42zM264 355q0 -14 -14 -14l-5 3q-30 38 -30 45q0 12 12 12l6 -4q31 -37 31 -42z" />
    <glyph glyph-name="quotesingle" unicode="'" horiz-adv-x="830" 
d="M794 478q0 -32 -15 -68t-39 -54q-10 -101 -84.5 -160t-178.5 -59q-34 0 -50 2q3 -3 9 -8.5t8 -7.5q14 -9 39 -27q10 -9 45 -34l-21 -33q-21 13 -49 37q-36 32 -52 76q-56 9 -101 33q-9 -59 -38.5 -87.5t-92.5 -47.5l-13 42q65 19 84 31q37 23 47 70q-16 9 -28 19
q-48 -48 -92 -48q-58 0 -74 52q-7 21 -9 100q0 19 -1 51q-4 42 -4 160q0 109 100 109q10 0 31 -5q29 -7 37 -9q0 35 50 56q39 16 79 16q66 0 109 -40q3 -5 7 -12q10 1 25.5 10.5t27.5 9.5q67 0 79 -3q22 -6 37 -55q13 -43 12 -81q49 2 43 2q73 0 73 -37zM708 346
q-12 0 -43 11q-66 24 -66 81q0 27 25 45l-50 -2q-25 -1 -25 9q0 13 25 16l67 7q6 90 -22 98q-34 9 -69 9q-13 0 -34.5 -7.5t-33.5 -7.5q-2 0 -3.5 11.5t-2.5 12.5q-38 35 -95 35q-37 0 -54 -10q-21 -12 -32 -46q-8 -26 -32 -13q-31 1 -79 1q-67 0 -67 -69q0 -51 5 -223
q1 -49 5 -66q10 -41 41 -41q28 0 71 30q-22 24 -59 97l24 15q39 -81 95 -121t144 -48q-39 24 -76 94q-40 76 -40 142q0 15 15 15q13 0 13 -12q0 -64 44 -135q48 -78 115 -98q72 10 126.5 56t67.5 114zM524 541q4 -7 4 -15q0 -13 -10 -21.5t-23 -8.5q-18 0 -27 17q-4 8 -4 16
q0 13 9.5 22.5t22.5 9.5q18 0 28 -20zM420 530q2 -5 2 -10q0 -30 -33 -30q-31 0 -31 33q0 15 10 25.5t22 10.5q21 0 30 -29z" />
    <glyph glyph-name="parenleft" unicode="(" horiz-adv-x="704" 
d="M440 406q0 -7 -9 -7q-11 0 -11 51q0 8 8 8q11 0 11 -52h1zM512 544q0 -13 -22 -21q-15 -5 -32 -5q-28 0 -54 21q-15 -15 -39 -15q-18 0 -33 12q-25 -34 -69 -34q-19 0 -38 11q-3 -23 -7 -47q-4 -31 -9 -31q-9 0 -9 8q0 18 5 49q6 39 14 39q5 0 19.5 -6.5t24.5 -6.5
q29 0 48 20q9 11 19 21q3 -1 16 -12q10 -7 19 -7q13 0 24.5 9t14.5 9q6 -2 24 -14q13 -9 29 -9q19 0 33.5 8.5t13.5 8.5q8 0 8 -8zM365 396q0 -8 -8 -6q-7 0 -9 35l-1 17q2 4 8 7q10 0 10 -53zM671 503q0 -28 -24 -59q7 -9 7 -17q0 -20 -27 -39t-52 -19q-7 0 -12 2
q6 -36 6 -56q0 -56 -29 -102.5t-79 -71.5l6 -39q8 6 14 5q8 0 24 -14q25 0 62 -29q41 -32 61 -37q8 -2 8 -8q0 -9 -8 -7q-21 0 -62 32t-61 32q-6 0 -13 7.5t-12 8.5q-5 -5 -19 -11q-8 0 -12 23q-2 16 -4 31q-51 -21 -101 -12q0 -5 -3.5 -17t-3.5 -18q0 -9 26 -17
q22 -7 35 -7q8 0 23.5 10.5t23.5 10.5q7 0 7 -8q0 -5 -23.5 -17.5t-31.5 -12.5q-50 0 -71 27l-8 -2q-76 -19 -89 -23q-45 -14 -83 -36q-2 -2 -4 -1q-9 0 -9 8l2 6q62 47 182 62l4 2q0 6 3 18.5t3 18.5q-19 6 -46 22q-34 19 -34 30q0 8 8 8l6 -2q45 -48 110 -48q76 0 129 51
t53 127q0 31 -16 92t-16 93q0 8 8 8q7 0 9 -8q0 -30 20 -110q18 -5 21 -5q13 0 35 15t22 27q0 4 -4 8t-4 6q0 3 13.5 23.5t13.5 38.5q0 16 -20 19t-20 8q0 -1 18.5 21.5t18.5 41.5t-22 19q-3 0 -8.5 -3.5t-9.5 -3.5q-8 0 -8 9q0 7 4 23t4 24q0 26 -26 26q-32 -16 -34 -15
q-4 0 -9 17q-7 21 -15 30q-14 17 -39 17q-20 0 -33 -20.5t-14 -20.5q-2 1 -14 26t-37 25q-23 0 -38.5 -16.5l-15.5 -16.5q-9 10 -18 21q-16 17 -42 17q-24 0 -43 -15.5t-19 -38.5q0 -10 -8 -10q-2 0 -11.5 10.5t-24.5 10.5q-16 0 -26.5 -12t-10.5 -28q0 -5 3 -13.5t3 -10.5
q0 -9 -8 -9l-7 2q-9 12 -25 12q-19 0 -33.5 -13.5t-14.5 -32.5v-4q5 -8 11 -17q8 -12 7 -17h-7l1 -9q-9 0 -15 -13.5t-6 -23.5q0 -18 12.5 -34.5t30.5 -17.5q9 0 9 -4q0 -6 -17 -27t-17 -32q0 -43 49 -45q10 0 8 -7q0 -3 -11.5 -10.5t-11.5 -23.5q0 -13 18 -25t32 -12
q9 0 21 8t17 9q-2 10 9 10q2 0 4 -1.5t3 -1.5q7 -10 15 -40q9 -33 14 -42q2 -4 2 -6q0 -8 -8 -8l-7 5q-8 13 -15 34q-10 35 -11 36q-30 -19 -44 -19q-22 0 -44.5 16.5t-22.5 36.5q0 11 7 27q-17 5 -28.5 22.5t-11.5 36.5t26 50q-45 16 -45 65q0 37 25 51q-16 24 -16 32
q0 25 20 44t47 19q11 0 16 -2l-1 2q-1 25 14 42.5t40 17.5q18 0 31 -10q7 23 28.5 37.5t46.5 14.5q36 0 59 -29q18 25 54 24t53 -34q17 25 45 25q26 0 46 -17.5t25 -42.5q33 11 27 11q42 0 42 -45q0 -7 -5 -32q1 0 4 1h3q15 0 26 -10.5t11 -25.5q0 -26 -23 -55q27 -7 27 -34
zM513 345q0 -46 -40.5 -81t-86.5 -35q-51 0 -99.5 41.5t-48.5 91.5q0 14 8 13q9 0 9 -13q0 -43 43 -80t87 -37q40 0 75.5 30t35.5 70q0 8 9 8q8 0 8 -8z" />
    <glyph glyph-name="parenright" unicode=")" horiz-adv-x="765" 
d="M440 544q0 -9 -9 -9q-14 0 -10 43q0 9 8 9q11 0 11 -43zM354 542q0 -9 -9 -9q-16 0 -11 49q0 9 8 9q12 0 12 -49zM778 265q0 -3 -2 -3q-1 0 -3 1q-31 22 -96 63q-21 12 -63 32q-3 -13 -11 -41q87 -52 125 -93q1 -1 1 -4t-2 -3t-3 2q-25 19 -72 56q-20 15 -53 37
q-2 -7 -7 -16l-27 -27v-1q0 2 40 -59q14 -22 16 -46.5t4.5 -49.5t37.5 -72q32 -45 32 -66q0 -10 -9 -10q-5 0 -9 8q-18 41 -46 81q-23 34 -25 68q-2 45 -8 62q-3 9 -29 43q-23 31 -23 41q0 6 25 31q9 11 14 23q-25 14 -51 24q-31 -43 -86 -43q-20 0 -36 14q-7 6 -26 31
q-24 -51 -43 -51q-67 0 -107 45q-27 -12 -60 -32q3 -4 9 -10q25 -25 25 -30q0 -11 -23 -42q-27 -34 -30 -43q-7 -19 -8 -63q-1 -34 -24 -68q-13 -20 -26.5 -40.5t-20.5 -41.5q-1 -7 -8 -7q-9 0 -9 10q0 21 33.5 67t36 71t4.5 49.5t17 47.5q0 1 22 30q18 26 18 28l-2 1
q-10 8 -25 27l-2 4q-23 -15 -38 -29q-9 -11 -28 -32l-2 -2q-4 0 -4 2q0 22 68 67q-12 25 -17 59l-8 -2q-19 -1 -57 -6q-4 -2 -9 -3q-4 0 -5 4q0 7 14 7q30 0 64 8q-2 20 -2 30q0 23 11.5 73.5t11.5 58.5l-5 5q0 16 -12 48.5t-12 51.5q1 77 25 77q19 0 55.5 -20t50.5 -39
q46 37 119 37q94 0 94 -27q0 -10 -9 -10l-7 4q-13 15 -78 15q-61 0 -115 -38h-1q-1 -3 -3 -3.5t-4 -0.5q-6 0 -9 6q-46 57 -93 58q-8 -14 -8 -58q0 -18 12 -49t13 -46q6 -5 4 -13q0 -15 -10.5 -59t-10.5 -71q0 -8 1 -26q18 5 52 16q-4 16 -4 37q5 49 19 49q9 0 9 -7
q0 -6 -5 -19t-5 -21q0 -22 4 -35q10 2 16 4q70 12 73 10q6 0 6 -3q0 -7 -35 -11l-42 -4q-5 -1 -16 -3q6 -18 19 -35q54 26 75 26q3 0 5 -5q-1 -1 -4 -1q-15 -4 -42 -13q-10 -3 -30 -11q33 -36 88 -36q7 4 19 27q13 27 17 32q-2 23 -2 27v10q-14 6 -32.5 25.5t-18.5 31.5
q1 32 49 32q41 0 48 -4h3q16 0 19 -23q0 -20 -15.5 -33t-30.5 -26v2q-2 0 -3 -7q-1 -6 0 -8q0 -4 1 -18q1 -11 0 -18q11 -14 23.5 -29t28.5 -15q47 0 67 32q-19 4 -55 14q-4 0 -4 2q0 5 4 5q20 0 62 -15q7 15 11 27q-17 3 -49 10q-4 0 -4 2q0 5 4 5q15 0 51 -9q1 7 3 23h-13
q-27 0 -35 2q-2 0 -4 1v4q1 1 4 1q33 0 49 -2q1 6 1 18t8 12q11 0 11 -28l1 -4q11 -1 38 -5q-2 22 -12 63q-10 37 -10 52q0 10 5 14q2 14 14 47q11 30 11 48q0 45 -8 59q-31 -1 -67 -32.5t-35 -31.5q-8 0 -10 10q6 23 46.5 47.5t66.5 24.5t26 -76q0 -18 -13 -51t-13 -49
l-5 -6q0 -9 10 -51q11 -48 13 -70q79 -11 128 -11q4 0 4 -2v-4q0 -2 -3 -2q-17 0 -129 13v-5q0 -14 -2 -38q36 -16 89 -46q74 -41 74 -54zM600 403q0 5 -1 7q-12 2 -38 5q-1 -14 -6 -28q15 -5 44 -15q2 23 1 31zM598 365q-14 5 -44 15q-5 -14 -14 -29q21 -10 48 -25
q2 5 10 39zM427 470q0 2 -5 11h-47l-1 1q-29 0 -29 -16q0 -9 17 -21q12 -9 25 -18q1 1 25 20q14 10 15 23zM234 347q-13 15 -19 38l-55 -15q6 -37 15 -55q32 19 59 32z" />
    <glyph glyph-name="asterisk" unicode="*" horiz-adv-x="721" 
d="M676 355q0 -76 -36 -119q-38 -46 -112 -47h-28q-20 1 -29 1q-50 0 -78 -31l10 -42q13 8 20 8q3 0 10 -7l8 7q32 -16 68 -47q46 -38 46 -62q0 -6 -15 -10l-4 2q-39 51 -43 56q-16 16 -59 43q-58 -30 -97 -30q-21 0 -41.5 12t-19.5 12t-38 -25q-30 -19 -49 -60q-2 -4 -8 -4
q-12 0 -12 9q0 25 40 59.5t66 34.5q10 0 20 -5q1 5 1 16q0 21 -34 29q-25 4 -51 9q-155 58 -155 183q0 88 71 158q67 65 158 80l-48 132q-20 0 -41 11q-24 13 -24 31q0 40 76 40q16 0 26 -14.5t10 -27.5q0 -23 -25 -34q22 -59 45 -136q20 3 41 3q29 0 59 -3q12 44 46 125
q-25 13 -25 32q0 16 20 28q17 10 34 10q20 0 38 -17t18 -37q0 -28 -42 -28q-12 0 -27 5q-4 -23 -43 -120q107 -15 174 -68q79 -62 79 -162zM515 729q0 14 -17 25q-14 8 -23 8t-20.5 -5.5t-11.5 -13.5q0 -11 18 -19q15 -6 28 -6q26 0 26 11zM264 756q0 26 -20 26
q-15 0 -33 -7.5t-18 -16.5t18 -16q15 -6 25 -6q28 0 28 20zM649 328q0 99 -87 173q-83 71 -184 71q-112 0 -197 -46q-104 -57 -104 -160q0 -66 37 -118q39 -56 102 -68q32 -5 64 -11q38 -11 38 -44q0 -7 -4 -23q9 -4 22 -4q23 0 50 11l-14 51q-3 8 8 8q18 33 62 39q6 1 76 1
q131 0 131 120zM402 406q0 -9 -10 -9t-10 8v51q0 9 10 9t10 -9v-50zM331 459q0 -61 1 -30q-1 -24 -12 -24q-10 0 -10 9v44q0 9 11 9q10 0 10 -8zM542 389l-1 -1q-1 -9 -13 -31q-26 -50 -83 -78q-53 -26 -113 -26q-59 0 -107 25q-52 27 -74 77q-13 30 -13 47q0 10 11 10
q7 0 10 -7q4 -16 16 -46q41 -86 154 -86q110 0 166 75q8 14 17.5 30.5t21.5 16.5q8 0 8 -6z" />
    <glyph glyph-name="plus" unicode="+" horiz-adv-x="1000" 
d="M707 412l-24 -4q-20 136 -66 271l17 5q59 -176 73 -272zM889 205q0 -72 -19 -95q-15 -19 -83 -45l-7 17q38 15 38 58q0 12 1 36.5t1 37.5q0 108 -54 347q-11 48 -17 63q-14 31 -42 48q-48 28 -118 28q-201 0 -329 -21q-24 -3 -49 -7q-23 -7 -30 -37l-21 5q12 56 65 70
q179 47 364 47q188 0 226 -143q0 -1 9 -39q22 -92 43 -184q22 -106 22 -186zM717 359q-61 0 -153 -9l-153 -15l-1 21q36 2 108 15.5t109 15.5q69 4 90 4v-32zM374 323l-20 -4q-21 113 -33 165q-21 90 -47 161l17 7q23 -59 45 -118q26 -70 32 -121q1 -30 6 -90zM750 56
q-52 0 -127 -24q-79 -26 -120 -28l-41 -2v17q-60 -18 -112 -18h-66q-98 37 -114 173q-7 65 -8 168v68q0 117 -10 191l18 2q24 -140 64 -421q11 -94 62 -117h93q23 0 71 -4l-1 22l117 3q-4 36 -14 58q-7 16 -30 52h33q68 0 93 -26q13 -15 39 -88h27q-1 37 -14 89
q-12 43 -24 87l18 4q15 -51 29 -102q17 -60 17 -104zM668 83q-14 42 -22 53q-15 22 -48 24q16 -30 23 -75zM651 264q-46 0 -116 -11q-95 -15 -115 -17q9 -38 31 -115l-51 -17q-11 30 -18 86q-6 47 -23 83q169 9 283 9h9v-18z" />
    <glyph glyph-name="comma" unicode="," horiz-adv-x="836" 
d="M791 350l-59 -40l26 -67l-69 -21l6 -72h-72l-16 -70l-69 21l-36 -62l-59 40l-53 -49l-45 57l-65 -32l-26 67l-71 -10l-5 71l-71 11l16 70l-65 31l36 62l-53 49l53 49l-36 62l65 32l-16 70l71 10l5 72l71 -11l26 67l65 -31l45 56l53 -49l59 41l36 -62l69 21l16 -70h72
l-6 -72l69 -21l-26 -67l59 -40l-45 -57zM716 406q0 124 -87.5 211t-210.5 87t-210 -87t-87 -211q0 -123 87 -210t210 -87t210.5 87t87.5 210zM701 406q0 -117 -83 -200t-200 -83t-200 83t-83 200q0 118 83 200.5t200 82.5t200 -82.5t83 -200.5zM687 406q0 112 -79 190.5
t-190 78.5t-189.5 -78.5t-78.5 -190.5q0 -111 78.5 -189.5t189.5 -78.5t190 78.5t79 189.5zM545 492l-101 -22q-1 5 -1 11q0 21 15 36.5t37 15.5q41 0 50 -41zM387 469l-24 -15l19 -19l-27 4l1 -28l-18 22l-17 -23v28l-26 -7l17 22l-25 12l28 5l-12 26l25 -14l7 27l10 -26
l24 15l-10 -26zM621 458q0 -95 -57.5 -158.5t-139.5 -63.5q-53 0 -102.5 34t-63.5 82q46 -56 166 -56q76 0 139 60q57 53 58 102z" />
    <glyph glyph-name="hyphen" unicode="-" horiz-adv-x="850" 
d="M490 543q0 -15 -6.5 -44.5t-6.5 -43.5q0 -20 -19 -20q-20 0 -20 20q0 2 13 87q3 18 19 18q20 0 20 -17zM393 546q0 -12 -8.5 -37t-8.5 -39q0 -2 1 -7v-8q0 -22 -22 -22t-22 37q0 18 19 80q3 16 19 16q22 0 22 -20zM839 18q3 -8 -4.5 -14.5t-17.5 -6.5q-11 0 -17 11
q-49 96 -172 148q-93 -108 -243 -108q-60 0 -115 30.5t-92 80.5q-26 -9 -53.5 -32t-38.5 -47q-5 -15 -10 -31q-8 -18 -22 -18q-10 0 -18 6.5t-5 14.5q35 96 127 140q-28 53 -28 110q0 36 9 72q-26 4 -47 32t-21 55q0 37 25 73q27 40 63 40q19 0 40.5 -14t21.5 -33t-20 -19
q-8 0 -17.5 13.5t-24.5 13.5q-21 0 -35 -28q-12 -23 -12 -46q0 -38 41 -47q18 43 33 43q22 0 22 -21q0 -1 -19.5 -50t-19.5 -84q0 -85 65.5 -150.5t150.5 -65.5q108 0 187 69q83 71 83 177q0 11 -3.5 31.5t-3.5 30.5q0 15 24 17q37 4 43 6q24 10 24 42q0 56 -64 56
q-9 0 -15 -4.5t-12 -4.5q-24 0 -24 22q0 23 14 59t14 49q0 6 -8 14q-4 -3 -20 -26q-13 -17 -23 -17q-8 0 -15 8q-55 64 -152 64q-59 0 -94 -11q-8 -3 -85 -38q-64 -29 -106 -29q-35 0 -73 17.5t-56 45.5q-4 6 -4 13q0 21 22 21q1 0 36 -26.5t75 -26.5q36 0 93 25
q81 36 90 39q35 11 102 11q104 0 165 -62q25 32 47 32q17 0 30.5 -18t13.5 -36q0 -17 -9 -42q-15 -40 -15 -41q5 1 15 1q43 0 69.5 -26t26.5 -69q0 -78 -86 -86q3 -19 3 -41q0 -79 -43 -145q69 -32 120.5 -78t67.5 -91zM594 352q0 -13 -16 -18q-9 -2 -28 -10
q-24 -13 -52 -46q-32 -39 -46 -49q-29 -23 -69 -23q-52 0 -94 52q-41 49 -41 102q0 22 22 22t22 -22q0 -38 26 -74q28 -39 65 -39q36 0 82 49q52 57 81 68q12 7 26 7q22 0 22 -19z" />
    <glyph glyph-name="period" unicode="." horiz-adv-x="792" 
d="M765 491q-27 -31 -52 -91q-11 72 -48 129q42 -20 47 -22q26 -11 53 -16zM641 518q-56 27 -109 37q-24 46 -67 88q113 -28 176 -125zM473 666q-37 9 -78 9q-42 0 -79 -10q40 42 42 44q23 25 37 51q20 -34 78 -94zM686 361q0 -119 -79 -201q13 62 13 90q0 21 -3 43
q36 36 67 108q2 -26 2 -40zM424 425v-3q0 -27 8.5 -46t20.5 -19t20 19t8 46v3h-57zM305 425v-3q0 -27 9 -46t21 -19q11 0 19.5 19t8.5 46v3h-58zM575 425q0 -88 -53.5 -149.5t-129.5 -61.5t-129.5 61.5t-53.5 149.5h96q1 26 9.5 43.5t20.5 17.5q26 0 28 -61h61q0 25 8.5 43
t20.5 18q26 0 28 -61h94zM324 643q-41 -41 -67 -89q-52 -9 -106 -36q61 95 173 125zM628 135q-9 -42 -4 -80q-32 15 -77 19q45 23 81 61zM126 529q-37 -58 -48 -131q-13 33 -21 47q-13 26 -31 45q32 6 100 39zM534 104q-63 -34 -139 -34t-138 35q52 3 63 4q39 5 75 23
q35 -18 74 -23q1 0 65 -5zM183 162q-78 83 -78 199q0 12 2 38q16 -36 25 -52q17 -30 41 -54q-3 -22 -3 -43q0 -28 13 -88zM244 75q-45 -4 -77 -19q4 36 -5 81q34 -37 82 -62z" />
    <glyph glyph-name="slash" unicode="/" horiz-adv-x="615" 
d="M441 588q-4 -6 -11 -6q-16 0 -16 15q0 4 25 39q4 5 9 5q9 0 9 -9q0 -3 -7 -22t-9 -22zM594 563q0 -45 -34 -45q-20 0 -44 16q1 -34 9 -110q8 -70 8 -109q0 -69 -34 -113q-37 -50 -103 -50h-7l1 -27l19 3q5 9 15 3q30 -18 42 -66q6 -26 -11 -26q-4 0 -10 4l1 1
q-11 -1 -30.5 -8t-28.5 -8q-3 -2 -6 -2q-11 0 -14 33q-2 30 2 41v54q-59 11 -96 55q-4 5 -4 11q0 11 12 11q4 0 9 -3q42 -31 49 -34q25 -14 57 -14q107 0 107 156q0 19 -7 112q-14 22 -53.5 24.5t-78.5 3.5q-46 6 -69 33q-20 23 -20 63q0 11 9 11q7 0 9.5 -8l7.5 -24
q21 -47 84 -51q28 -2 56 -3q33 -4 52 -18q-3 65 -2 71q-2 3 -2 7q0 13 13 13q8 0 27 -14t30 -14q12 0 12 14q0 16 -13 36.5t-32 30.5q-42 26 -84 50.5t-88 24.5q-12 0 -24 -1q-156 -97 -229 -97q-27 -31 -27 -68q0 -48 42 -84l33 -28q5 -4 5 -9q0 -9 -9 -9q-6 0 -37 17
q8 -27 30 -77q8 -14 26.5 -24t18.5 -13q3 24 3 49q0 10 10 10q9 0 9 -10q0 -72 -6 -220l2 -4q7 -27 28 -34q11 -5 45 -5q26 0 40 -6q7 -3 7 -10q23 -12 33 -47q1 -3 1 -6q0 -8 -8 -8q-5 0 -9 5q-8 13 -15 26q-10 14 -25 14q-19 0 -34.5 -32.5t-35.5 -33.5q-37 -2 -77 21
q-33 23 -67 45q-12 7 -4 16q-1 26 17 59q20 38 44 38q11 0 32 -14q-2 26 10 142q-3 -8 -12 -6q-36 9 -53 34q-9 15 -22 60q-8 21 -20 59q-29 34 -29 76q0 51 41 92q3 3 8 3q20 5 59 16q0 86 71 127q27 13 81 40q4 2 7 2q11 0 11 -11q0 -5 -4 -9q-16 -16 -54 -35
q-41 -20 -56 -33q-27 -23 -34 -59q13 8 30 25l28 28q24 21 80.5 52.5t84.5 38.5q14 3 14 -9q0 -5 -6 -9q-21 -10 -62 -31q-58 -33 -118 -83q50 31 100 61q59 33 110 33q30 0 81.5 -17.5t73.5 -35.5q5 -4 5 -9q0 -13 -15 -8l-28 14q-61 27 -117 27q-31 0 -60 -12
q38 -3 81 -29l72 -50l3 -2q59 -25 60 -77zM443 63q-4 12 -8.5 25t-14.5 21h-3q-2 -1 -3 -1q-30 -4 -30 -28q0 -9 5 -32q18 7 54 15zM262 67q-53 4 -71 33q-8 -1 -15 32q-29 18 -35 18q-14 0 -25 -33q-7 -22 -14 -45l60 -36q37 -21 65 -18q4 0 17.5 22.5t17.5 26.5z" />
    <glyph glyph-name="zero" unicode="0" horiz-adv-x="782" 
d="M514 510l-7 -11l-13 1l-10 6l-10 31h-11l-7 9l-1 12l62 26l11 -2l9 -8l-3 -11l-8 -9l-23 -9zM377 541l-8 -38l-10 -7h-13l-7 9v13l1 -4l3 33l6 9l-52 30l12 22l13 -1l29 -14l45 -26l3 -11l-2 -13l-12 -5l-9 5zM541 405l-9 -11l-62 4l-15 8l-34 -5l-78 -7l-13 -11l-17 1
l-15 -6l-12 -12v7l-19 -4l-3 11l13 22l17 2l42 21l47 5l15 11l32 -8l16 5l63 -5l15 -11v3l10 -7zM768 546l-4 -9l-11 -6l-6 10l-21 5l-7 13l-13 10l-16 28l-16 7l-4 22l-28 -12l-14 6l-2 31l-15 6l-25 -14l-18 38l-36 -8l-10 20l-16 3l-21 -21l-14 12l-17 -7l-45 34l-33 -4
l-14 -19l-17 14l-16 -1l-28 -18l-19 10l-9 -26l-23 18l-58 -28l-8 -19l-13 -9l-20 -1l-12 -11l12 -31l-43 -10v-20l-10 -15l-1 -17l9 -19l-16 -16l20 -17l-9 -19l22 -9l4 -14l-7 -21l23 -2l10 -30l16 -5l10 -12l2 -23l23 6l3 -24l25 13l5 -25l16 -1l13 -12l21 14l7 -25
l21 14l10 -21l31 -6l18 22l13 -21l16 -11l15 28l33 -17l12 19l18 -11l26 20l20 -5l10 14l4 22l28 -12l-1 25l13 9l-1 19l9 12l21 8l-7 20l22 45l-6 16l6 17l-12 14l4 18l-3 16l-23 25l-18 8l9 26l-10 14l-19 6l-20 -3l-5 31l7 12l20 -25l40 -2l3 -20l12 -11l-5 -22l31 -21
l-8 -36l8 -15l25 -12l-16 -18l7 -17l-3 -16l3 -17l-16 -12l15 -19l-23 -8l17 -24l-51 -41l-13 -35l-30 14l2 -22l4 -7l17 -4l12 -12l5 -34l19 -8l10 -13l-7 -19l22 -21l-1 -1l11 -2l18 -11l15 13l12 -20l37 14l15 -8v-20l-5 -8l3 -22l-31 18l-12 17l-48 -22l-17 10l-19 -8
l2 24l-11 9l-24 5l10 21l-11 50l-25 4l-13 9l-3 27l-22 -9l-14 10l-16 4l-60 -15l-15 -16l-31 23l-17 -18l-15 13l-17 -6l-12 20l-20 -11l-12 17l-17 5l-6 -17l-14 -4l-17 15h-17l-13 -37l-11 -9l-28 2l-5 -18l19 -21l-23 -14l23 -31l-16 -12l-18 -5l-15 13l-10 -30l-21 17
l-5 -21l-35 3l-8 -15l-26 -19l-14 12l9 14l-19 20l21 8l44 -10l27 14l9 18l18 -7l19 9l-23 35l13 15l2 16l20 7l-1 39l24 -2l4 21l22 -7l34 17l-33 -7v31l-27 -16l2 29l-27 -11l-7 17l1 24l-38 5l8 26l-28 -1l8 23l-6 14l-23 9l21 22l-15 29l4 16l-13 18l20 30l16 10l-13 23
l24 6l-5 23l29 41l17 5l9 16l14 11l39 -5l6 28l24 -20l6 24l20 -11l26 13l11 21l18 -6l16 -16l30 30l33 -6l17 7l16 -10l16 4l34 -1l12 -24l16 -1l14 -10l16 -2l19 7l17 -3l14 -9l19 4l9 -19l14 -8l21 4l12 -12l1 -29l14 -8l29 12l-5 -33l20 -1l4 -19l18 -5l11 -33zM782 -4
l-4 -12l-8 -10l-13 2l-5 11l3 -4l-5 15l-26 38l-42 40l3 11l8 8zM691 -26l-6 -11l-24 -4l-3 13l-17 82l7 10l10 2l11 -5v1l8 -13l2 -16l7 -13zM622 31l-11 -45l-15 -22l-12 1l-9 7v12l6 13l6 43l5 11l9 9l12 -4l7 -11zM164 33l-2 3l2 -4v1zM212 -10l-7 -9l-12 -2l-29 54
l-3 10l5 12l12 2l16 -14l17 -41zM151 59l-2 -12l-26 -82l-12 -18l-14 -1l-7 11l2 39l13 43l27 32l13 -2zM117 73l-21 -17l-54 -49l-11 6l-5 10v12l78 57l9 -8z" />
    <glyph glyph-name="one" unicode="1" horiz-adv-x="816" 
d="M765 549l-8 -12l6 -16l-17 -8l-19 8l7 24l-24 21l-4 19l-53 11l-1 28l-13 9l-40 -8l-9 19l-14 9l-21 -2l11 -10l7 -18l12 -10l2 -18l19 -6l12 -47l28 -23l-11 -20l-2 -16l13 -15l12 -33l-17 -15l-6 -12l10 -18l-12 -27l-20 -6l9 -24l-23 -1l5 -25l-47 -15l-6 -18l-9 -2
l49 -34l13 -44l10 -12v-16l18 -22l41 11l15 -7l45 -10l9 -9l-12 -22l-57 17l-44 -9l-12 5l-30 33l-6 31l-22 42l-27 23l-12 4l-9 -6l-31 -4l-18 10l-29 -23l-15 1l-31 25l-16 -8l-15 10l-33 -9l-16 1l-24 26l-5 2v-8l-37 -11l-61 -41l-12 -29l4 -43l-1 -1l3 -2l-2 -14
l-12 -5h-11l4 -3l-14 3l-43 -11l-48 -29l-15 -1l-15 16l3 12l11 8l47 17l56 22l5 -1l-6 19l5 32l26 41l23 22l28 15l17 4l-7 8l-47 13l-17 2l-12 12l-2 23l-20 1l-23 24l8 24l-14 10l-8 13l5 17l-7 13l-7 60l12 14l-18 22l11 13l29 20l2 18l18 25l2 21l23 -2l11 11l6 21
l20 -3l12 13l34 -4l8 21l12 9l21 -16l10 16l17 -10l12 17l16 -12l30 21l17 -20l15 14l16 -9l32 11l13 -18l17 4l19 15l76 -30l7 -24l19 5l10 -14l41 -22l18 -2l8 -16l14 -8l10 -13l15 -6l8 -14h24l-1 -22zM621 419l-4 16l-12 16l6 14v16l-15 28l16 21l-23 8l6 20l-13 12
l-5 15l-29 18l-8 15v-11l-18 29l12 11l11 3h-1l-8 26h-17l-18 -9l-13 9l-17 -3l-14 15h-15l-16 10l-47 -11l-14 -14l-30 1l-18 13l-11 -23l-14 -5l-21 19l-8 -25l-36 7l-6 -24l-19 4l-16 -4l-13 -10l-5 -17l-19 -4l6 -25l-17 -6l-4 -32l-20 -9l2 -50l-12 -18l8 -16l-6 -21
l28 -3l-11 -24l34 -11l-1 -21l22 1l-1 -25l25 9l9 -11l2 -27l62 -11l10 -17l21 17l7 -29l34 12h14l13 -14l31 -11l45 16l13 10l18 -13l28 14l9 17l23 -9l13 9l8 38l26 -3l13 30l-4 19l20 10zM488 534l-7 -15l-15 -2l-5 3l-1 45l-3 -1l1 13l8 10l17 -7zM399 525l-3 -6l-8 -4
l-13 3l-8 11l-3 27l-1 2h-1l-1 6l2 -6v1l1 -1l-3 14l12 6l14 -2l8 -16zM481 399l-3 -10l-2 -1l-9 -9l-15 -1l-14 -8l-58 11l-22 22v12l5 11l11 5l26 -23l59 4l10 4l10 -7zM776 -3l-2 -12l-9 -9l-13 3l-6 10l2 -4l-8 12l-54 70l-2 -1l-7 9l2 13l10 6l11 -2l46 -39zM686 -9
l-6 -25l-9 -6l-13 2l-13 68l-7 12l3 2l-3 10l5 12l12 2l9 -7h-1l15 -26zM619 32l-16 -58l-9 -9l-13 -1l-7 10l-3 12l15 55h-2l4 12l11 6l10 -4l7 -9zM220 -9l-10 -8l-10 -2l-29 56l-1 -2l1 -2h-1v2l-3 9l5 11l13 4zM158 46l-17 -23l-9 -28l-4 -29l3 4l-4 -12l-9 -6h-11
l-11 17l32 96l2 -1l10 5l11 -2l7 -8v-13zM125 73l-8 -10l-54 -48l-11 -6l-13 4l-7 10l68 68l1 -2l11 3l10 -6z" />
    <glyph glyph-name="two" unicode="2" horiz-adv-x="812" 
d="M500 543l-9 -16l-17 -2l-4 4l-5 58l9 11l18 -7zM404 527l-9 -5l-14 4l-12 42h-1l-1 4l2 -4l-3 14l13 8l14 -6l8 -13v7l1 -8l-1 1zM575 461l-4 -17l3 -19l-8 -17l-77 -59l-17 4l-14 -12l-16 6l-16 -9l-16 1l-15 14l-17 -10l-43 23h-18l-13 6l-8 16l-44 15l-32 36v18
l-12 12l-9 31l8 16l1 16l9 13v18l15 10l5 20l15 10l15 3l13 -21l-7 -10l-16 -7l-18 -28l7 -17l-15 -11l24 -58l15 -8l5 -17l26 -17l30 -12l11 -12l47 -4l14 -11h16l43 14l17 -8l47 40l2 16l9 14l-4 16l-3 3l5 11l10 10l15 1l11 -12zM787 563l-15 -17l7 -18l-15 11l-8 1
l-4 17l-19 6l-15 31l-26 -6v27l-27 -11v31l-80 24l-13 9l-10 18l-19 -8l-28 19l-34 -2l-17 -12l-15 7l-17 -5l-31 26l-15 -20l-16 5l-14 -12l-18 19l-56 -36l-21 14l-17 -1l-7 -24l-23 11l-12 -12l-3 -25l-21 3l-8 -13l-23 -1l-7 -15l-1 -21l-9 -13l-3 -16l-23 -10l11 -20
l-2 -16l-16 -17l7 -18l-3 -20l16 -14l-2 -17l22 -6l-4 -21l12 -11h21l-3 -27l13 -10l20 1l13 -9l16 -3l6 -20h18l25 -19l19 7l15 -4l45 -5l11 -26l16 5l17 17l15 -16l15 -1l14 18l15 1l17 -5l38 23l18 -3l34 5l2 23l22 -1l14 9l10 15l-10 24l13 12l9 32v15l-11 15l19 17
l-7 49l-31 21l6 20l-13 11l-2 18l-8 15l-34 9l-5 29l7 13l19 4l12 -13l18 -5l-2 -26l24 -2l-11 -26l25 -5l10 -13l4 -50l9 -15l-3 -33l18 -16l-16 -16l-4 -44l11 -20l-22 -24l-2 -18l-15 -8l-7 -15l-26 -18l-22 5l-6 -22l12 -4l41 -65l12 -12l-2 -17l20 -33l30 7l16 -4
l46 -5l19 -20l-1 -11l-7 -6l-12 -3l-91 4l-25 16l-19 43l-14 13l-1 16l-13 30l-44 29h-12l-1 1l-24 -12l-19 13l-15 2l-13 -29l-33 25l-16 -25l-15 18h-16l-15 8l-35 -6l-13 14l-20 -11l-24 10l-10 -6l-16 1l-47 -40l-12 -30l2 -33l5 -12l-3 -4v0l-4 -10l-8 -6l-11 -1l4 1
l-14 -3l-16 3l-50 -32l-42 -11l-12 5l-8 11l6 12l36 9l84 35l2 56l10 13l5 16l48 44l20 7l-12 11l-8 18l-19 1l-11 11l-18 3l-6 17l-17 7l-5 17l-12 11l-20 6l-7 65l-10 14l3 32l-8 17v18l22 10l-5 19l28 40l8 15v22l13 10l18 5l11 12l22 -4l38 33l18 -5l28 9l8 25l19 -14
l29 10l13 13l18 -20l16 10l16 -5l32 19l16 -6h17l45 -24l18 7l15 -5l12 -17l24 20l32 -12l5 -25l23 9l7 -22l16 -5l19 2l14 -10l18 -4l-3 -31l24 3l10 -14l4 -18l37 -13zM793 -6l-4 -12l-9 -9l-12 3l-7 9v-4l-2 14l-16 27l-32 34l-13 8l2 2l-9 8l4 11l8 7l11 -1zM701 -28
l-6 -11l-11 -5l-11 3l-8 11l3 14l-17 56h-1l-2 13l8 11h12l10 -5l2 1l12 -27zM628 43l-13 -73l-10 -9l-12 2l-8 7l-1 12l6 13l7 43h1l2 12l11 7l12 -2zM220 -12l-6 -11l-13 -2l-10 8l-19 47l-4 12l8 9l10 2l12 -4zM161 57l-25 -51l-7 -30l3 -15l-5 3l1 -11l-9 -10l-13 3
l-9 9l34 107h-1l10 7l12 -4zM125 72l-64 -60l-11 -6l-12 4l-6 11l3 11l65 58l1 -3l11 2l10 -6z" />
    <glyph glyph-name="three" unicode="3" horiz-adv-x="780" 
d="M491 523q0 -16 -11 -16q-6 0 -17 4q-4 10 -3 24v23h2q1 2 0 5q-2 3 -2 5q0 7 8 13l6 1q17 0 17 -59zM401 517l-4 -7l-9 -6q-17 -1 -22 16q-1 16 -3 31v0l-2 -1q-2 5 -2 9q0 14 15 14q6 0 13 -4q3 -5 8 -14l-1 6q7 -28 7 -44zM553 390q-6 -6 -14 -6t-19 8t-16 9
q-54 16 -73 16q-11 0 -26.5 -7t-17.5 -7t-7.5 2t-9.5 2q-13 0 -17 -6q-6 -9 -8 -10q-11 -2 -30 -8q-2 -5 -10 -14h-14q-5 0 -8 -20l-13 -3q-3 -4 -7 -4q-6 0 -14 8.5t-8 14.5q0 4 20 7q1 7 4 19q7 6 17.5 7.5t13.5 3.5q17 15 54 36h27q7 0 13.5 4t8.5 4q3 0 8.5 -3t8.5 -3
t8.5 4.5t8.5 4.5q36 0 106 -30l1 2l11 -4q6 -6 6 -12q0 -3 -4 -15zM787 -30q0 -15 -19 -15q-10 0 -13 10l3 -5q-23 56 -65 84l1 1q-8 5 -8 12q0 10 11 18q4 1 7 1q15 0 49 -42.5t34 -63.5zM680 -66q-16 0 -23 34l-10 52v1q-2 4 -4 12q2 13 17 13q9 0 14 -7v1q19 -32 19 -82
q0 -11 -3 -17.5t-10 -6.5zM625 20q0 -16 -10 -47q-12 -36 -24 -36q-13 5 -13 18q0 11 6 32t7 31h1v4q-1 14 15 14q18 0 18 -16zM164 126q2 -3 2 -5q0 -17 -20 -17q-2 0 -4 1l5 1q-7 2 -13 2q-20 0 -51 -23t-51 -23q-26 0 -26 20q0 15 15 16l12 -4q10 1 40.5 22.5t54.5 22.5
v6q-2 45 24 80t71 49l-3 6l-15 11q-11 9 -14 9t-7.5 -2.5t-7.5 -2.5q-4 0 -8.5 6.5t-5.5 7.5q-5 2 -15 7q-3 2 -3 11q0 5 -2 7q-7 0 -18 6q-1 6 -6 16q-1 1 -24 11q-18 7 -18 24q0 10 11 35q-3 9 -15 19q-8 8 -8 41q0 3 -2 8t-2 8q0 8 17.5 24t17.5 23q0 9 -7 35q5 4 13 12
q1 6 6 17q6 7 24.5 13t23.5 10q7 8 23 22q2 7 9 18q3 2 8 0q7 -2 8 -2q5 0 9.5 7t18.5 7q4 0 10 4t9 4q2 0 7 -2.5t7 -2.5q5 0 6 11.5t10 11.5q8 0 18.5 -9.5t11.5 -9.5q16 0 20.5 15t5.5 15q3 0 8.5 -3t8.5 -3q6 0 17 1t16 1q6 0 22.5 -7t25.5 -7q3 0 8.5 8t16.5 8
q13 0 17 -8.5t9 -8.5q4 0 13.5 2.5t14.5 2.5t10.5 -4t8.5 -5q-2 1 31 1q7 0 7.5 -15t4.5 -15t10 5.5t10 5.5t5 -10.5t4 -11.5q15 7 28 7t21 -17t13 -17q3 0 7.5 2.5t7.5 2.5q5 0 6.5 -9t3.5 -11t25 -12t23 -13q0 -4 -3.5 -11.5t-3.5 -11.5q0 -12 13 -14q-5 1 20 1
q4 0 10 -11t6 -15q0 -17 -12 -17q-4 0 -9 4q-3 0 -10.5 -4.5t-10.5 -4.5t-3 4q0 3 2 7.5t2 7.5q0 4 -6.5 8t-8 6t-0.5 7l2 9q0 4 -1 5q-30 1 -33.5 4t-3.5 27q0 5 -6 7q-10 2 -11 3t-6 6.5t-7 5.5q-4 0 -12.5 -7t-12.5 -7q-1 0 -5 27h-1q-4 0 -10 -4t-10 -4q-2 0 -13.5 9.5
t-26.5 9.5l-4 1q-13 25 -27 25q-2 0 -7 -3t-7 -3q-5 0 -8 9.5t-6 9.5q-4 0 -10 -9t-10 -9q-3 0 -7 6.5t-7 7.5q-32 10 -31 10q-6 0 -17 -5t-17 -5q-3 0 -8 3.5t-8 3.5t-7.5 -7t-12.5 -7t-16.5 6t-15.5 6q-10 0 -23 -6.5t-18 -6.5q-3 0 -8 2t-8 2q-18 0 -20.5 -12.5
t-6.5 -12.5q-2 0 -7 1.5t-7 1.5q-4 0 -7.5 -7.5t-5.5 -8.5q-13 -7 -34 -1q-5 -10 -11 -19q-11 -18 -26 -18q-3 0 -7.5 1.5t-7.5 1.5q-7 0 -6 -18q0 -13 2 -22q-10 -2 -25 -4v-1q0 -4 5.5 -10t5.5 -10t-15 -4.5t-15 -4.5q0 -3 6 -9t6 -9q0 -4 -9 -8.5t-9 -7.5q0 -4 5.5 -9.5
t5.5 -9.5q0 -2 -6 -10t-6 -16q0 -15 12 -17t14 -5q8 -12 17 -25t9 -25q0 -5 11 -4t11 -3t-5 -13.5t-5 -13.5q0 -8 36 -8q12 0 23 -18q12 -21 24 -26l18 1q14 1 35.5 -15.5t38.5 -16.5q2 0 6.5 3t6.5 3q5 0 15 -5t17 -5q11 0 31 12q4 0 8 -7t8 -7q3 0 7.5 4.5t7.5 4.5t8 -1.5
t7 -1.5q4 0 9.5 4.5t15 4.5t11.5 9.5t5 10.5q25 -12 36 -12q4 0 7.5 7t5.5 8q11 5 22 9q7 3 7 21q0 23 44 36q1 1 1 3q0 3 -2.5 8t-2.5 8q0 1 11 12.5t11 26.5q0 14 -12.5 18.5t-12.5 7.5q0 4 5.5 8t5.5 8q0 3 -6.5 7t-6.5 7q0 4 6.5 9t6.5 8t-3.5 9t-3.5 9q0 2 2 7t2 7
q0 42 -47 50q0 6 -4 17q-11 3 -30 11q10 3 12 10q-11 5 -10 27v15h1q3 0 9 -5t7 -5.5t21 -4.5q16 -3 16 -7t-5 -13t-5 -13q0 -3 4 -3q5 0 13.5 3t12.5 3q3 0 3 -3t-7 -12.5t-7 -13.5q0 -2 15.5 -2t22.5 -16q-9 -24 -9 -35q0 -6 14.5 -7t14.5 -5q0 -3 -9 -10t-9 -11
q0 -3 9 -6.5t9 -6.5q0 -4 -7 -9.5t-7 -9.5q22 -36 22 -49q0 -14 -13 -20t-13 -7q0 -5 3.5 -16t3.5 -16q0 -18 -26 -18q-6 0 -6 -12q0 -8 -16 -8q-5 0 -5 -16q0 -6 -8 -11.5t-13.5 -5.5t-8.5 -2l-11 -22q11 -7 32 -22q8 -18 19 -43q8 -7 20 -25q0 -1 3 -23q2 -12 14 -20l-2 4
q7 4 13 8q-4 -1 14 -1q3 0 8.5 3t8.5 3q5 0 38 -13t33 -19q0 -2 -5 -11t-7 -10q-52 20 -59 20q-6 0 -21.5 -8.5t-23.5 -8.5q-12 0 -31.5 28t-19.5 45q0 5 -6.5 9t-7.5 6.5t-7 24.5q-5 14 -13 21q-6 1 -18 4q-4 4 -15 9v2l-14 -2v1q-5 -2 -9 -2q-6 0 -10 4.5t-6 4.5
q-5 0 -8 -9t-8 -9q-2 0 -7 3t-8 3t-7 -9t-9 -9q-12 0 -31 23q-4 0 -8 -6.5t-8 -6.5q-3 0 -7.5 7t-7.5 7q-1 0 -9.5 -5.5t-16.5 -5.5l-8 1q-16 24 -29 24q-3 0 -9.5 -8t-9.5 -8q-4 0 -6.5 8.5t-5.5 9.5q-30 -11 -61 -22q-54 -24 -54 -63q0 -7 7 -29q-2 -7 -5 -13zM164 14v-4
l-2 -1q-2 0 -3 8q0 18 20 19q11 -4 21.5 -29t10.5 -38q0 -16 -12 -16q-14 0 -24 24q-5 19 -11 37zM153 37q-33 -70 -34 -96l3 3l1 -3q0 -16 -20 -16q-14 0 -14 23q0 44 35 93h1l7 9h3q14 1 18 -13zM115 57q0 -5 -34.5 -37t-39.5 -34q-16 5 -16 16q0 15 26 39q20 18 40 29
l1 -3q4 2 12 5q11 -3 11 -15z" />
    <glyph glyph-name="four" unicode="4" horiz-adv-x="782" 
d="M488 546l-8 -16l-17 -1l-3 3l-5 14l2 32l-2 -1v13l8 11l19 -7l2 -16l3 -15zM503 377l-8 -10l-11 -10l-15 -3l-14 -6l-15 -1l-15 3l-12 4l-6 7l-5 10l-3 15l-1 16l7 15l12 12l14 8l17 3h18v-2l9 -7l5 -12l-7 -10l-13 -4l-14 3l-11 -9l-4 -13l12 -4l18 1l17 9l11 4l10 -7z
M778 566l-18 -16l11 -20l-17 8l-7 5l-4 17l-17 8l-5 18l-13 10l-26 -4l-11 12l-8 15l-19 1l-15 6l-5 25l-12 13l-21 -6l-17 4l-9 17l-15 8l-19 -8l-11 19l-22 -22l-14 9l-15 3l-15 8h-16l-16 7l-16 11l-17 -13l-15 -5l-14 -8l-15 -1l-20 25l-12 -25l-15 -1l-14 -8l-22 19
l-11 -20l-14 -6l-10 -16l-26 17l-8 -19l-20 2l-16 -8l-11 -13l8 -30l-18 -4l-7 -15l-9 -13l-6 -15l-1 -15l-7 -16l-3 -16l-10 -17l8 -17l2 -16v-18l16 -9l-2 -19l13 -9l-1 -21l10 -12l13 -10l26 6l7 -16l7 -17l21 4l16 -1l12 -11l11 -12l14 -8l15 -2l15 -4l10 -18l18 7
l13 -17l19 22l13 -19l16 2l15 -6l16 3l16 -1l14 17l18 -12h16l10 19l15 4l16 2l12 12l20 -2l6 18l19 3v22l9 13l3 16l13 12l6 32l-5 15l3 15l8 16l11 18l-11 15l-4 16l-20 9l6 20l-17 9l-4 16l-11 11l4 24l-27 -4l-10 12l9 6l-3 13l-3 5l-2 20l19 1l14 -12l17 -6l7 -18
l2 -19l23 -5l-12 -26l31 -3l-16 -24l30 -6l-4 -19l-10 -20v-16l11 -15l8 -16l7 -17l-24 -15l20 -18v-16l-26 -8l-8 -12l12 -24l-15 -9l-14 -9v-21l-23 2l-10 -13l-3 -21l-22 5l-9 -5l5 -3l12 -8l13 -8l9 -12l8 -14l10 -11l5 -15l7 -13l5 -15l6 -14l12 -12l3 -7l14 2l15 3
l15 4l16 -5l14 -7l16 -2l14 -7l12 -9l-1 -15l-11 -10l-14 3l-13 9l-17 3l-16 6l-17 -2l-14 -6l-15 -3l-14 4l-9 12l-14 9l-1 17l-15 12l4 18l-8 15l-11 13l-5 15l-13 12l-15 9l-16 2l3 7h-6l-4 -2l-18 9l-13 -15l-18 11l-16 1l-12 -26l-17 14l-16 -4l-15 13l-16 -2l-17 -4
l-19 -14l-10 29l-19 -9l-15 8l-16 3l-2 1l-10 -1l-13 -1l-14 -9l-14 -1l-12 -9l-14 -6l-11 -12l-11 -11l-8 -14v-48l1 -14l-1 -1l1 -2l-6 -11l-8 -6l-9 -2h2l-6 -1l4 1l-27 -2l-14 -6l-13 -7l-14 -4l-11 -10l-14 -4l-13 -6l-15 -3l-13 5l-5 12l5 12l11 8l12 -1l12 3l14 6
l24 20l15 4l15 3l15 2l4 1v6l-3 16l-2 16l9 15l3 17l7 14l10 14l15 9l10 13l15 8l15 6l15 5l-5 8h-18l-21 -5l-13 13l-3 23l-22 -1l2 26l-18 4l-17 8l-12 12l2 20l-19 7l-8 15l4 18l-12 14l-6 16l17 17l-21 17l8 16l20 13l-18 22l24 9l7 14l-11 25l27 3v20l18 6l14 8l14 7
l7 17l7 20l34 6l16 5l15 1l8 23l18 -5l16 -2l16 -3l10 24l16 1l17 -14l15 -1l32 12l16 12l16 -19l16 -3l18 22l14 -22l17 5l16 -6l18 8l15 -9l14 -9l15 -7l13 -14l16 -2l23 12l6 -25l12 -12l24 11l17 -4v-31l14 -8l20 -1l15 -8l6 -18l20 -4l12 -11l8 -16zM782 -7l-3 -11
l-9 -9l-13 1l-8 11l7 -4l-14 28l-9 13l-10 11l-9 13l-11 11l-14 7l-1 -1l-5 12v12l10 6h13l11 -11l14 -7l11 -13l9 -13l11 -11l7 -15l9 -14zM690 -13l-2 -16l-2 -12l-12 -6l-13 4l-2 12l-3 15l-1 14l-4 14l-5 14l-4 15h1l-5 12l8 11l12 1l10 -7h-1l6 -13l7 -13l5 -14l4 -16z
M621 29l-3 -16l-5 -14l-5 -15l-4 -14l-9 -10h-13l-7 10v11l3 14l6 14v14l3 15h2l1 12l10 7l12 -4l7 -10zM209 -13l-8 -10h-12l-10 6l-10 16l-5 18l-5 13h-1v3l-3 8l8 10l11 3l11 -5l3 -9l6 -13l4 -15l8 -13zM148 57l-3 -13l-10 -11l-4 -15l-6 -13l-3 -15l-5 -14l2 -16l-3 4
v-12l-11 -6h-12l-6 10l-5 8l5 15l2 14l4 15l2 15l8 12l5 15l8 13l1 -1l11 5l11 -1zM110 72l-7 -9l-13 -8l-10 -11l-11 -10l-13 -9l-9 -12l-11 -5l-11 3l-7 10l2 12l24 26l13 10l14 11l16 9v-1l11 1l11 -5zM395 537l-3 -7l-9 -4l-13 3l-8 13l-4 30l-1 1v-1l-3 13l13 8l15 -3
l7 -10l1 -4l-2 3l5 -12z" />
    <glyph glyph-name="five" unicode="5" horiz-adv-x="793" 
d="M502 549l-9 -16l-17 -3l-7 63l7 11l18 -8zM409 540l-4 -7l-8 -6l-14 4l-10 13l-3 29h-1l-1 7l2 -4v11l10 9l15 -6l8 -8l1 -4l-1 6zM371 573l1 -1l-2 4zM593 468l-7 -10l-43 9l-2 -1l2 -3l4 -61l-44 -50l-76 23l-27 55l-8 13l-1 16l-3 3l-5 2l-15 -2l-14 -13l-32 5
l-13 -13l-74 -33l-10 -3l-17 25l51 35l31 3l13 10l16 -1l45 17l108 12l16 -7l15 4l86 -12zM514 411l-6 55l-14 -7l-15 6l12 -36l-4 -12l-11 -5l-11 2l-8 11l-12 40h-1v5l-14 1l-13 -5l1 -4l11 -12l6 -30l32 -34l29 1zM776 543l-8 3h-8l-4 16l-17 9h-23l1 24l-23 -2l-13 9
l1 29l-22 -4l-29 14l-7 25l-30 14l-20 -9l-32 3l-10 23l-32 5l-19 -18l-13 27l-17 -9l-32 11l-16 -3l-15 -16l-17 23l-28 -29l-19 18l-12 -19l-19 10l-10 -22l-18 4l-13 -10l-16 -3l-23 -22l-26 -14l-25 4l-3 -40l-49 -27l-2 -18l18 -38l-23 -33l7 -17l19 -11l-1 -17l22 -61
l31 9l10 -11v-26l26 11l12 -8l18 -32l21 8l12 -10h16l11 -14l15 -5l17 3l12 -14l17 10l14 -17l16 11h46l14 11l19 -14l12 13l17 -5l8 23l15 2l13 8l22 -5l3 21l25 -5l1 23l21 24l-6 21l24 43l1 32l-9 15v16l-16 12l4 18l-15 10l16 26l-26 4l8 25l-31 -4l-12 9l-3 33l-7 8
l3 18l22 2l6 -22l22 1l7 -17l20 -7l-11 -27l21 -6l7 -16l12 -12l-12 -39l23 -11l-8 -18l-3 -33l20 -17l-22 -14l20 -18l-24 -10l5 -16l-15 -10l6 -40l-31 5l4 -25l-22 -1l1 -27l-26 7l-25 -14l31 -2l10 -13l21 -4l8 -16l-9 -40l29 -4l-19 -25l17 -10l-4 -17l19 -12l12 20h17
l16 -13l14 -2l20 14l5 -28l25 16l14 -14l1 -22l-25 9l-8 -11l-16 3l-10 22l-49 -21l-51 8l4 23l-10 13l-4 15l-24 9l-3 16l15 24l-28 2l2 23l-17 8l-17 18l-41 -30l-20 19l-15 -6l-15 2l-31 -14l-16 16l-17 -17l-28 27l-38 -16l-11 20l-17 -12l-7 9l-13 -8l-18 16l-44 -22
l-3 -22l-14 -10l-3 -16l-19 -13l13 -19l-8 -20l15 -11l-2 -16l-21 5l-16 -18l-17 13l-11 -12l-21 7l3 -31l-28 -15l-33 5l-9 9l-23 7l22 10l7 17l41 -1l5 23l17 4l12 14l21 -12l24 -2l-8 22l-16 15l29 25l-12 22l31 17l-3 26l15 8l19 -1l25 9l-24 18l-22 -7l2 30l-24 -8
l2 27l-39 3l-9 33l-24 2l-8 15v19l-8 14l15 20l-3 15l-25 15l3 18l21 14l9 14l-11 20l5 16l22 7l5 15l11 11l-1 43l67 20l4 25l20 -3l16 5l7 22l19 -6l41 19l17 -6l29 5l17 -6l16 1l15 19l33 -12l17 13l15 -16l17 6l13 -19l18 10l14 -13l18 7l17 -1l13 -13l19 4l31 -11
l7 -22l14 -8h19l15 -7l21 3l8 -18l17 -5l5 -21l45 -26zM793 -16l-10 -6l-12 1l-9 9l6 -4l-14 28l-27 37l-32 28l3 12l8 6h12l38 -29l37 -70v-12zM699 -37l-12 -5l-10 5l-7 10l-18 83l19 12l9 -7v1zM633 47l-13 -59l-2 -16l-11 -7l-12 -1l-8 8l17 81l9 7l13 -2zM223 -9l-9 -9
l-12 -3l-10 7l-21 51l2 -3l-5 11l7 11l12 2l11 -7zM158 60l-20 -51l-5 -34l-3 -10l-11 -19l-13 1l-8 11l33 107l10 6l13 1zM125 75l-7 -11l-56 -49l-12 -7l-20 16l71 68l11 1l11 -6z" />
    <glyph glyph-name="six" unicode="6" horiz-adv-x="787" 
d="M492 545l-9 -15l-17 -3l-4 4l-3 57l8 10l17 -6zM362 569l1 -2l-1 2v0zM360 569h2l-2 2v-2zM400 536l-4 -7l-9 -6l-14 4l-8 13l-5 29v0l-1 5l3 -5v0l-2 14l11 9l15 -6l7 -8l1 -4l-1 6zM589 473l-6 -42l-24 23l2 -1l-13 5l-33 -38l-48 -10l-18 5v21l-42 15l-8 -12l-17 -2
l-12 -8l-6 -14h-15l-13 -5l-27 11l-26 39l-32 -11l-21 -24l-5 -15h-1l-19 -9l-16 18l21 43l33 8l10 17l17 -11l18 11l21 -21l6 -13l10 -10l27 -3l15 8l5 19l33 12l15 -8l17 12l12 -13l17 -5l-2 -20l13 -10l38 22l6 19l21 -4l15 12zM787 544l-24 -3l-9 -13l-30 16l-10 12
l3 23l-8 15l-17 6l-34 39l-22 -5l-13 9l-34 5l-19 34l-24 -19l-9 22l-16 2l-20 -13l-11 21l-15 11l-33 -8l-16 9l-16 -1l-17 -19l-15 9l-15 1l-14 -10l-19 23l-13 -18l-19 10l-13 -13l-16 -2l-11 -18l-19 7l-58 -27l-11 -35l-12 -10l-20 -3l-26 -42l-2 -17l9 -18l-27 -31
l8 -18l-3 -19l22 -11l23 -36l2 -17l18 -3l-7 -30h40l4 -23l15 -5l19 4l5 -24l24 15l4 -31l18 7l26 -21l21 20l11 -23l17 13l30 -11l30 12l15 -4l18 -13l15 7l23 26l25 -21l4 27l19 -2l4 22l25 -8l-1 25l32 14l-1 19l25 7l-8 21l17 48l-22 15l8 16l-17 13l-1 66l-9 14l-26 2
l-21 20l-15 27l15 9l-1 5l29 10l-2 -29l31 -33l19 -8l20 -27l-10 -21l19 -11l-2 -18l9 -15l2 -17l-10 -17l4 -33l-13 -12l4 -16l-12 -27l-14 -9l-21 -63l-30 11l-6 -20l1 -12l7 7l6 -40l17 -6l5 -15l19 -9l-11 -21l18 -10l-8 -19l3 -15l19 8l18 -20l26 14l15 -2l12 -10l20 9
l12 -13l15 -6l-19 -10l1 -10l-10 -2l-15 6l-12 17l-20 -18l-16 8l-10 -15l-18 -1l-12 16l-22 -1l5 39l-16 28l-23 9l1 37l-27 29l-24 -22l-15 14l-9 -9l-16 -3l-19 16l-13 -17l-17 18l-15 -2l-16 -23l-17 -4l-13 25l-19 -19l-13 22l-16 1l-27 19l-20 -10l-5 -15l-14 -1
l-15 7l-21 -19l-13 -5l-27 5l-18 -85l10 -11l1 -17l-28 -13l-11 14l-16 2l-10 -15l-18 1l-14 -4l1 -29l-19 4l-12 -15l-17 2l-16 8l-9 16l22 3v21l12 8l18 -17l7 17l21 -4l13 7l10 14l39 2l4 24l-4 12l-13 17l4 33l13 11l30 14l4 20l10 15l22 -15l17 12l-26 -2l-3 24l-17 1
l-10 11l-36 3v24l-17 4l-23 41l-19 7l17 25l-22 9l-8 14l18 19l-9 15l6 15l-10 52l31 22l12 50l17 7l5 17l16 7l19 1l15 6l17 38l39 -14l7 23l19 -9l7 27l32 2l14 10l16 -4l16 7l18 -28l15 23l16 -11l17 12l15 -19l18 19l15 -7l17 3l14 -14l46 -17l13 -13l23 16l15 -6l4 -30
l17 -1l13 -10l19 2l10 -15l20 2l5 -22h20l14 -10l5 -18l19 -4l11 -13l17 -7l-2 -22zM783 -3l-2 -13l-10 -7l-12 2l-6 9l1 -4l-1 4v0l-2 11l-16 26l-31 34l-15 6l-6 12l3 11l9 6l11 -1zM690 -25l-2 -12l-13 -3l-10 3l-8 10l2 14l-5 29l-12 39l6 11l12 2l12 -6l-1 1l1 -1v0z
M622 47l-25 -83h-12l-8 9l-3 13l16 40l1 28l12 5l12 -1zM215 -9l-9 -9l-12 -3l-10 7l-23 58l7 10l12 4zM152 59l-27 -93l-13 -20l-12 4l-9 8l34 106l9 7l11 -2zM117 87l-6 -23l-68 -55l-11 5l-6 10l12 26l55 42l12 1z" />
    <glyph glyph-name="seven" unicode="7" horiz-adv-x="782" 
d="M533 556l-10 -15l-55 4l-6 12l2 18l5 2l44 -10v3l13 -3zM378 571l7 -8l-3 -14l-11 -11l-43 -8l-10 10l5 14l12 10l35 9zM513 397l-5 -11l-11 -3l-11 3l-36 32l-33 -44l-5 -16l-12 -6l-11 4l-9 8l59 88l12 5l12 -7l1 -3l12 -7l34 -31zM768 546l-4 -9l-11 -6l-6 10l-21 5
l-7 13l-13 10l-6 16l-10 12l-16 7l-4 22l-28 -12l-14 6l-2 31l-15 6l-25 -14l-18 38l-36 -8l-10 20l-16 3l-21 -21l-14 12l-17 -7l-14 14l-31 20l-33 -4l-14 -19l-17 14l-16 -1l-28 -18l-19 10l-9 -26l-23 18l-58 -28l-8 -19l-13 -9l-20 -1l-12 -11l12 -31l-43 -10v-20
l-10 -15l-1 -17l9 -19l-16 -16l20 -17l-9 -19l22 -9l4 -14l-7 -21l23 -2l10 -30l16 -5l10 -12l2 -23l23 6l3 -24l25 13l5 -25l16 -1l13 -12l21 14l7 -25l21 14l10 -21l31 -6l18 22l13 -21l16 -11l15 28l33 -17l12 19l18 -11l26 20l20 -5l10 14l4 22l28 -12l-1 25l13 9l-1 19
l9 12l21 8l-7 20l22 45l-6 16l6 17l-12 14l4 18l-3 16l-23 25l-18 8l9 26l-10 14l-19 6l-20 -3l-5 31l7 12l20 -25l40 -2l3 -20l12 -11l-5 -22l31 -21l-8 -36l8 -15l25 -12l-16 -18l7 -17l-3 -16l3 -17l-16 -12l15 -19l-23 -8l17 -24l-51 -41l-13 -35l-30 14l2 -22l4 -7
l17 -4l12 -12l5 -34l19 -8l10 -13l-7 -19l22 -21l-1 -1l11 -2l18 -11l15 13l12 -20l37 14l15 -8v-20l-5 -8l3 -22l-31 18l-12 17l-48 -22l-17 10l-19 -8l2 24l-11 9l-24 5l10 21l-11 50l-25 4l-13 9l-3 27l-22 -9l-14 10l-16 4l-44 -16l-16 1l-15 -16l-31 23l-17 -18l-15 13
l-17 -6l-12 20l-20 -11l-12 17l-17 5l-6 -17l-14 -4l-17 15h-17l-13 -37l-11 -9l-28 2l-5 -18l19 -21l-23 -14l23 -31l-16 -12l-18 -5l-15 13l-10 -30l-21 17l-5 -21l-35 3l-8 -15l-26 -19l-14 12l9 14l-19 20l21 8l44 -10l27 14l9 18l18 -7l19 9l-23 35l13 15l2 16l20 7
l-1 39l24 -2l4 21l22 -7l10 8l24 9l-33 -7v31l-27 -16l2 29l-27 -11l-7 17l1 24l-38 5l8 26l-28 -1l8 23l-6 14l-23 9l21 22l-15 29l4 16l-13 18l20 30l16 10l-13 23l24 6l-5 23l29 41l17 5l9 16l14 11l39 -5l6 28l24 -20l6 24l20 -11l26 13l11 21l18 -6l16 -16l30 30l33 -6
l17 7l16 -10l16 4l34 -1l12 -24l16 -1l14 -10l16 -2l19 7l17 -3l14 -9l19 4l9 -19l14 -8l21 4l12 -12l1 -29l14 -8l29 12l-5 -33l20 -1l4 -19l18 -5l11 -33zM782 -4l-4 -12l-8 -10l-13 2l-5 11l3 -4l-31 53l-42 40l3 11l8 8l26 -9zM691 -26l-6 -11l-11 -4h-13l-3 18l-17 77
l7 10l10 2l11 -5v1l8 -13l2 -16l7 -13zM622 31l-11 -45l-15 -22l-12 1l-9 7v12l6 13l6 43l5 11l9 9l12 -4l7 -11zM164 33l-2 3l2 -4v1zM212 -10l-7 -9l-12 -2l-29 54l-3 10l5 12l12 2l16 -14l17 -41zM151 59l-2 -12l-26 -82l-12 -18l-14 -1l-7 11l2 39l7 14l6 29l27 32
l13 -2zM117 73l-8 -9l-67 -57l-11 6l-5 10v12l78 57l9 -8z" />
    <glyph glyph-name="eight" unicode="8" horiz-adv-x="782" 
d="M312 344l-10 8l-2 4l-2 2l-19 1l-9 14l-15 10l-1 18l-12 12l2 17l-3 63l8 14l-3 18l3 16l4 1v1h3l1 12l14 1l12 -10l4 2v-1h3l19 -35l15 -4l10 -13l15 -3l17 3l28 -18h63l15 10l16 -2l40 17l6 15l2 -2l7 14l13 -10l2 -24l-5 -7l-2 -21l5 -30l-18 -24l-3 -17l-16 -8
l-4 -18l-54 -34l-16 -1l-13 -11l-17 5l-63 -7l-30 12zM492 452l8 -29l4 6l13 11l-1 16l14 13l-11 1l-12 -13zM301 382l18 76l2 15l-18 -1l-10 14l-16 5l-3 3l-3 -38l-9 -18l10 -15l3 -17zM355 461l-27 -92l73 -12l1 72l-3 17l3 5l-8 6l-16 -5zM478 381l-17 71l-3 1l-24 -7
l-2 -4v-19l-5 -61l14 -2zM492 569l-9 -16l-16 -1l-3 3l-5 57l7 12l17 -8l6 -15zM401 560l-14 -12l-15 3l-12 44l3 -3l-4 6l2 -5h-1v14l11 8l15 -4l8 -15v8zM768 546l-4 -9l-11 -6l-6 10l-21 5l-7 13l-13 10l-16 28l-16 7l-4 22l-28 -12l-14 6l-2 31l-15 6l-25 -14l-18 38
l-36 -8l-10 20l-16 3l-21 -21l-14 12l-17 -7l-45 34l-33 -4l-14 -19l-17 14l-16 -1l-28 -18l-19 10l-9 -26l-23 18l-58 -28l-8 -19l-13 -9l-20 -1l-12 -11l12 -31l-43 -10v-20l-10 -15l-1 -17l9 -19l-16 -16l20 -17l-9 -19l22 -9l4 -14l-7 -21l23 -2l10 -30l16 -5l10 -12
l2 -23l23 6l3 -24l25 13l5 -25l16 -1l13 -12l21 14l7 -25l21 14l10 -21l31 -6l18 22l13 -21l16 -11l15 28l33 -17l12 19l18 -11l26 20l20 -5l10 14l4 22l28 -12l-1 25l13 9l-1 19l9 12l21 8l-7 20l22 45l-6 16l6 17l-12 14l4 18l-3 16l-23 25l-18 8l9 26l-10 14l-19 6
l-20 -3l-5 31l7 12l20 -25l40 -2l3 -20l12 -11l-5 -22l31 -21l-8 -36l8 -15l25 -12l-16 -18l7 -17l-3 -16l3 -17l-16 -12l15 -19l-23 -8l17 -24l-51 -41l-13 -35l-30 14l2 -22l4 -7l17 -4l12 -12l5 -34l19 -8l10 -13l-7 -19l22 -21l-1 -1l11 -2l18 -11l15 13l12 -20l37 14
l15 -8v-20l-5 -8l3 -22l-31 18l-12 17l-48 -22l-17 10l-19 -8l2 24l-11 9l-24 5l10 21l-11 50l-25 4l-13 9l-3 27l-22 -9l-14 10l-16 4l-60 -15l-15 -16l-31 23l-17 -18l-15 13l-17 -6l-12 20l-20 -11l-12 17l-17 5l-6 -17l-14 -4l-17 15h-17l-13 -37l-11 -9l-28 2l-5 -18
l19 -21l-23 -14l23 -31l-16 -12l-18 -5l-15 13l-10 -30l-21 17l-5 -21l-35 3l-8 -15l-26 -19l-14 12l9 14l-19 20l21 8l44 -10l27 14l9 18l18 -7l19 9l-23 35l13 15l2 16l20 7l-1 39l24 -2l4 21l22 -7l34 17l-33 -7v31l-27 -16l2 29l-27 -11l-7 17l1 24l-38 5l8 26l-28 -1
l8 23l-6 14l-23 9l21 22l-15 29l4 16l-13 18l20 30l16 10l-13 23l24 6l-5 23l29 41l17 5l9 16l14 11l39 -5l6 28l24 -20l6 24l20 -11l26 13l11 21l18 -6l16 -16l30 30l33 -6l17 7l16 -10l16 4l34 -1l12 -24l16 -1l14 -10l16 -2l19 7l17 -3l14 -9l19 4l9 -19l14 -8l21 4
l12 -12l1 -29l14 -8l29 12l-5 -33l20 -1l4 -19l18 -5l11 -33zM782 -4l-4 -12l-8 -10l-13 2l-5 11l3 -4l-5 15l-26 38l-42 40l3 11l8 8zM691 -26l-6 -11l-24 -4l-3 13l-17 82l7 10l10 2l11 -5v1l8 -13l2 -16l7 -13zM622 31l-11 -45l-15 -22l-12 1l-9 7v12l6 13l6 43l5 11l9 9
l12 -4l7 -11zM212 -10l-7 -9l-12 -2l-29 53l-3 11l5 12l12 2l16 -14l17 -41zM151 59l-2 -12l-26 -82l-12 -18l-14 -1l-7 11l2 39l13 43l27 32l13 -2zM117 73l-21 -17l-54 -49l-11 6l-5 10v12l78 57l9 -8z" />
    <glyph glyph-name="nine" unicode="9" horiz-adv-x="782" 
d="M491 544l-9 -16l-16 -1l-3 3l-5 57l7 12l17 -8l6 -15zM584 479l-13 -5l-14 1l-13 -17l-15 -1l-16 14l-76 -12l-78 -9l-16 3l-16 12l-63 -14l-33 8l-32 -17l-16 -4l-14 10l-4 24l41 14l16 -5l14 11l30 -11l44 14l16 -8l15 6l31 -11l15 14l31 -2l15 -5l30 11l16 -7l15 7
l16 -1l17 -10l32 19l-3 -12l19 10zM768 546l-4 -9l-11 -6l-6 10l-21 5l-7 13l-13 10l-16 28l-16 7l-4 22l-28 -12l-14 6l-2 31l-15 6l-25 -14l-18 38l-36 -8l-10 20l-16 3l-21 -21l-14 12l-17 -7l-45 34l-33 -4l-14 -19l-17 14l-16 -1l-28 -18l-19 10l-9 -26l-23 18l-58 -28
l-8 -19l-13 -9l-20 -1l-12 -11l12 -31l-43 -10v-20l-10 -15l-1 -17l9 -19l-16 -16l20 -17l-9 -19l22 -9l4 -14l-7 -21l23 -2l10 -30l16 -5l10 -12l2 -23l23 6l3 -24l25 13l5 -25l16 -1l13 -12l21 14l7 -25l21 14l10 -21l31 -6l18 22l13 -21l16 -11l15 28l33 -17l12 19
l18 -11l26 20l20 -5l10 14l4 22l28 -12l-1 25l13 9l-1 19l9 12l21 8l-7 20l22 45l-6 16l6 17l-12 14l4 18l-3 16l-23 25l-18 8l9 26l-10 14l-19 6l-20 -3l-5 31l7 12l20 -25l40 -2l3 -20l12 -11l-5 -22l31 -21l-8 -36l8 -15l25 -12l-16 -18l7 -17l-3 -16l3 -17l-16 -12
l15 -19l-23 -8l17 -24l-51 -41l-13 -35l-30 14l2 -22l4 -7l17 -4l12 -12l5 -34l19 -8l10 -13l-7 -19l22 -21l-1 -1l11 -2l18 -11l15 13l12 -20l37 14l15 -8v-20l-5 -8l3 -22l-31 18l-12 17l-48 -22l-17 10l-19 -8l2 24l-11 9l-24 5l10 21l-11 50l-25 4l-13 9l-3 27l-22 -9
l-14 10l-16 4l-60 -15l-15 -16l-31 23l-17 -18l-15 13l-17 -6l-12 20l-20 -11l-12 17l-17 5l-6 -17l-14 -4l-17 15h-17l-13 -37l-11 -9l-28 2l-5 -18l19 -21l-23 -14l23 -31l-16 -12l-18 -5l-15 13l-10 -30l-21 17l-5 -21l-35 3l-8 -15l-26 -19l-14 12l9 14l-19 20l21 8
l44 -10l27 14l9 18l18 -7l19 9l-23 35l13 15l2 16l20 7l-1 39l24 -2l4 21l22 -7l34 17l-33 -7v31l-27 -16l2 29l-27 -11l-7 17l1 24l-38 5l8 26l-28 -1l8 23l-6 14l-23 9l21 22l-15 29l4 16l-13 18l20 30l16 10l-13 23l24 6l-5 23l29 41l17 5l9 16l14 11l39 -5l6 28l24 -20
l6 24l20 -11l26 13l11 21l18 -6l16 -16l30 30l33 -6l17 7l16 -10l16 4l34 -1l12 -24l16 -1l14 -10l16 -2l19 7l17 -3l14 -9l19 4l9 -19l14 -8l21 4l12 -12l1 -29l14 -8l29 12l-5 -33l20 -1l4 -19l18 -5l11 -33zM782 -4l-4 -12l-8 -10l-13 2l-5 11l3 -4l-5 15l-26 38l-42 40
l3 11l8 8zM691 -26l-6 -11l-24 -4l-3 13l-17 82l7 10l10 2l11 -5v1l8 -13l2 -16l7 -13zM622 31l-11 -45l-15 -22l-12 1l-9 7v12l6 13l6 43l5 11l9 9l12 -4l7 -11zM212 -10l-7 -9l-12 -2l-29 53l-3 11l5 12l12 2l16 -14l17 -41zM151 59l-2 -12l-26 -82l-12 -18l-14 -1l-7 11
l2 39l13 43l27 32l13 -2zM117 73l-21 -17l-54 -49l-11 6l-5 10v12l78 57l9 -8zM400 535l-14 -12l-15 3l-12 42v0v2l-1 3l1 -1v10l11 8l15 -4l8 -15v8z" />
    <glyph glyph-name="colon" unicode=":" horiz-adv-x="734" 
d="M487 483l-111 -24q-1 6 -1 11q0 25 16.5 41.5t40.5 16.5q46 0 55 -45zM641 162q-93 -83 -218 -83q-136 0 -231.5 96t-95.5 231q0 133 92 227.5t224 99.5q-5 -5 -15 -17q-120 -10 -202.5 -99t-82.5 -211q0 -128 91 -219.5t220 -91.5q110 0 195 69q16 -2 23 -2zM596 167
q-77 -56 -173 -56q-122 0 -208.5 86.5t-86.5 208.5q0 112 73 195.5t182 97.5q-63 -90 -63 -198q0 -142 102 -242q-59 -21 -107 -21q-43 0 -75 17q50 -64 150 -64q45 0 90 22q55 -34 116 -46zM290 474l-40 -8l-20 35l-4 -40l-40 -9l37 -16l-4 -41l27 30l37 -16l-20 35z" />
    <glyph glyph-name="semicolon" unicode=";" horiz-adv-x="758" 
d="M721 370h-64q-27 -97 -108 -159.5t-185 -62.5q-125 0 -214 89t-89 214q0 126 88.5 214.5t214.5 89.5v15h357v-400zM668 451q0 126 -89 215t-215 89v-385h183q-27 -52 -76 -83t-107 -31q-88 0 -149 67q-59 64 -60 153h-27q0 -100 68 -173.5t168 -73.5q69 0 126.5 38.5
t86.5 102.5h80q11 42 11 81zM331 546h-51l-16 49l-16 -49h-51l41 -30l-15 -48l41 30l41 -30l-15 48zM507 527q0 -19 -13 -32t-32 -13t-32 13t-13 32t13 32t32 13t32 -13t13 -32zM532 7l-98 25q-29 -29 -70 -29q-42 0 -71 30l-100 -26v110l101 -26q29 28 70 28q42 0 69 -28
l99 26v-110z" />
    <glyph glyph-name="less" unicode="&#x3c;" horiz-adv-x="683" 
d="M401 565q0 -14 -14 -14t-14 14q0 9 -5 63q-1 16 15 16q14 0 15 -14q3 -32 3 -65zM321 560q0 -16 -17 -16t-17 16q0 10 2.5 32t1.5 33q-1 15 14 15q12 0 12 -11.5t2 -34t2 -34.5zM590 349q0 -20 -15 -58t-15 -58q0 -13 5 -32q7 -27 8 -32q4 -20 -16 -20q-13 0 -15.5 13
t-9.5 40q-5 18 -5 31q0 17 7 42q1 3 14 37q10 23 10 37q0 18 -12 33.5t-30 15.5q-13 0 -42 -20.5t-54 -20.5q-32 0 -61 44.5t-44 44.5q-14 0 -34 -45t-50 -45q-15 0 -34.5 9t-29.5 9q-19 0 -28 -33q-8 -27 -5 -49q4 -33 4 -44q0 -32 -21 -59q-4 -5 -11 -5q-14 0 -14 13
q0 4 3 8q15 19 15 44q0 10 -2.5 30t-2.5 31q0 33 18 62.5t44 29.5q15 0 34.5 -9t29.5 -9t32 45.5t52 45.5q31 0 59.5 -44.5t45.5 -44.5q16 0 45 20.5t51 20.5q30 0 52 -25t22 -53z" />
    <glyph glyph-name="equal" unicode="=" horiz-adv-x="670" 
d="M468 476q0 -18 -18 -18t-18 18q0 17 18 17t18 -17zM501 513q0 -12 -11 -12q-4 0 -23 14.5t-33 14.5q-33 0 -33 -47q0 -23 10 -67.5t10 -67.5q0 -41 -31.5 -70t-72.5 -29q-21 0 -49 17t-34 36q0 11 12 11q1 0 24.5 -17.5t46.5 -17.5q29 0 51.5 20.5t22.5 49.5
q0 21 -9 60.5t-9 59.5q0 34 13 58q17 29 48 29q13 0 40 -15.5t27 -26.5zM312 492l-26 -19l10 -31l-26 19l-26 -19l10 31l-27 19h33l10 30l10 -30h32zM631 433q0 -27 -17 -49q-18 -25 -43 -25q-11 0 -21.5 7.5t-10.5 17.5q0 9 10 9q6 0 11.5 -5.5t7.5 -5.5q18 0 29 16t11 35
q0 15 -9.5 30t-24.5 15q-3 0 -8.5 -2t-9.5 -2q-7 0 -9 7l-10 64q-15 70 -55 112q-57 59 -164 59q-23 0 -53 -8q-70 -19 -97 -73q-14 -30 -28 -123l3 -9q1 -15 -15 -15q-7 0 -12 5q-15 0 -24 -21q-8 -16 -8 -33q0 -14 10 -24t23 -11q-2 15 12 15q6 0 10 -8q2 -4 5 -43
q8 -94 61 -187q63 -109 142 -109q58 0 105 46q38 39 61 100q4 18 15 53q4 9 11 9q11 0 11 -14q0 -15 -16 -62q-58 -170 -187 -170q-95 0 -168 133q-62 112 -62 207q-63 0 -63 65q0 25 15 49.5t39 27.5v23q0 91 59 147t151 56q119 0 182.5 -62.5t63.5 -179.5q2 0 5 1h5
q24 0 40.5 -21.5t16.5 -46.5zM372 174q0 -10 -11.5 -32t-20.5 -22q-17 0 -17 15q0 8 14 30t21 22q14 0 14 -13z" />
    <glyph glyph-name="greater" unicode="&#x3e;" horiz-adv-x="683" 
d="M401 473q0 -14 -14 -14t-14 14q0 9 -5 63q-1 16 15 16q14 0 15 -14q3 -32 3 -65zM321 468q0 -16 -17 -16t-17 16q0 10 2.5 32t1.5 33q-1 15 14 15q12 0 12 -11.5t2 -34t2 -34.5zM576 498q-15 -19 -15 -44q0 -10 2.5 -30t2.5 -31q0 -33 -17 -61q-19 -31 -45 -31
q-15 0 -34.5 9t-29.5 9t-32 -45.5t-52 -45.5q-31 0 -59.5 44.5t-45.5 44.5q-16 0 -45 -20.5t-51 -20.5q-30 0 -52 25t-22 53q0 20 15 58t15 58q0 13 -5 32q-7 27 -8 32q-4 20 16 20q13 0 15.5 -13t9.5 -40q5 -18 5 -31q0 -17 -7 -42q-1 -3 -14 -37q-10 -23 -10 -37
q0 -18 12 -33.5t30 -15.5q13 0 42 20.5t54 20.5q33 0 62 -44.5t43 -44.5t34 45t50 45q15 0 34.5 -9t29.5 -9q19 0 28 33q8 27 5 49q-4 33 -4 44q0 32 21 59q4 5 11 5q14 0 14 -13q0 -4 -3 -8z" />
    <glyph glyph-name="question" unicode="?" horiz-adv-x="817" 
d="M795 387q0 -160 -113 -273t-273 -113t-273 113t-113 273t113 273t273 113t273 -113t113 -273zM744 404q0 137 -99.5 234.5t-241.5 97.5t-242 -97.5t-100 -234.5t100 -234.5t242 -97.5t241.5 97.5t99.5 234.5zM495 555q0 -26 -28 -26q-20 0 -26 19q-8 25 -25 46
q-6 7 -6 16q0 25 26 25q15 0 40 -37q19 -28 19 -43zM363 527q0 -27 -29 -27q-19 0 -25 19q-9 27 -24 46q-6 7 -6 16q0 26 26 26q15 0 40 -38q18 -27 18 -42zM621 400q0 -78 -58.5 -132.5t-140.5 -54.5t-140.5 54.5t-58.5 132.5q0 28 28 28q27 0 27 -28q0 -54 42 -93t102 -39
t102 39t42 93q0 38 -20 69q-5 8 -5 16q0 27 29 27q14 0 22 -13q29 -45 29 -99z" />
    <glyph glyph-name="at" unicode="@" 
d="M515 675q0 -70 -25 -70q-9 0 -51 42q-48 48 -56 53q8 -34 8 -54q0 -24 -12 -24q-10 0 -12 9q1 -4 1 17q0 14 -8.5 40t-8.5 38q0 10 9 10q23 0 78 -55.5t58 -55.5q8 0 8 20q0 17 -9.5 47.5t-9.5 34.5q0 13 11 11q19 0 19 -63zM458 449q0 -12 -13 -12t-15 37v49
q-1 12 12 12q14 0 15 -37v-49h1zM320 663q0 -16 -9 -34q-10 -21 -24 -21q-4 0 -8 7q-17 22 -36 44.5t-43 36.5q2 -10 14 -32t12 -36q0 -22 -13 -23q-7 0 -45 24q-25 15 -50 31q-6 3 -6 11q0 12 10 11q21 0 50.5 -32.5t28.5 -32.5q4 0 4 17q0 14 -14 37.5t-14 37.5
q0 18 10 19q21 0 58 -35q29 -28 47 -54q7 10 7 25q0 12 -7.5 36t-7.5 35q0 10 11 10q10 0 18 -36q6 -28 6 -46h1zM355 440q0 -12 -11 -12q-19 0 -19 10q-3 25 -1 86q0 11 11 11q20 0 20 -95zM736 9q0 -12 -11 -12l-10 4q-18 19 -50 38q-27 15 -55 31q-16 10 -34 48
q-15 32 -44 40q-65 -99 -166 -99q-53 0 -97.5 28t-68.5 76q-30 -6 -53 -38t-43 -40q-32 -13 -45 -31q-10 -14 -21 -49q-2 -10 -11 -10q-12 0 -12 13q0 64 80 98q21 9 46 41q22 30 49 36q-24 67 -24 131q0 4 -3 6q-14 9 -33 12.5t-26 9.5q-12 9 -22 37q-6 17 -6 32
q0 28 14.5 52.5t38.5 24.5q6 0 11 -1q-5 38 -5 116q0 11 12 11q11 0 11 -11q0 -24 4.5 -67.5t4.5 -66.5v-6q0 -8 -9 -8q-3 0 -12.5 5t-16.5 5q-31 0 -30 -51q0 -43 22 -55q25 -8 51 -17q7 -3 20 -74q15 -80 44 -122q44 -64 129 -64q79 0 133 67q44 56 59 141q4 23 27 31
q34 13 39 17q20 17 20 63q0 64 -42 64q-14 0 -25.5 -11.5t-15.5 -11.5q-8 0 -10 12q-2 6 -8 74t-6 78q0 15 12 15q14 0 18 -63q2 -40 3 -80q14 11 32 11q32 1 49 -29q15 -25 15 -59q-1 -96 -66 -96q-15 0 -19 -20q-13 -66 -35 -107q25 -9 41 -42q18 -36 35 -47q3 -2 58 -33
q35 -19 54 -39q3 -3 3 -8zM465 254q0 -13 -33 -28q-29 -13 -45 -13q-77 0 -117 119l-1 3q0 11 12 11q6 0 17 -29q14 -36 28 -52q23 -29 59 -29q20 0 43.5 14.5t24.5 14.5q12 0 12 -11z" />
    <glyph glyph-name="A" unicode="A" 
d="M737 376q0 -148 -105.5 -253t-254.5 -105q-148 0 -253 105t-105 254t105 254t254 105t254 -105.5t105 -254.5zM702 376q0 135 -95 230t-230 95q-134 0 -229.5 -95t-95.5 -230q0 -134 95.5 -229.5t229.5 -95.5q135 0 230 95.5t95 229.5zM527 517q0 -12 -9.5 -21.5
t-22.5 -9.5t-22.5 9.5t-9.5 21.5q0 13 9.5 22.5t22.5 9.5t22.5 -9.5t9.5 -22.5zM276 517q0 -12 -9.5 -21.5t-21.5 -9.5q-13 0 -23 9t-10 22t9.5 22.5t23.5 9.5q12 0 21.5 -9.5t9.5 -22.5zM627 385q0 -95 -77 -158q-72 -60 -173 -60q-99 0 -169 60q-73 62 -79 158
q-1 18 17 18q16 0 17 -17q5 -80 67.5 -132.5t147.5 -52.5t147 52.5t67 132.5q1 17 17 17q18 0 18 -18z" />
    <glyph glyph-name="B" unicode="B" 
d="M737 376q0 -148 -105.5 -253t-254.5 -105q-148 0 -253 105t-105 254t105 254t254 105t254 -105.5t105 -254.5zM702 376q0 135 -95 230t-230 95q-134 0 -229.5 -95t-95.5 -230q0 -134 95.5 -229.5t229.5 -95.5q135 0 230 95.5t95 229.5zM527 517q0 -12 -9.5 -21.5
t-22.5 -9.5t-22.5 9.5t-9.5 21.5q0 13 9.5 22.5t22.5 9.5t22.5 -9.5t9.5 -22.5zM276 517q0 -12 -9.5 -21.5t-21.5 -9.5q-13 0 -23 9t-10 22t9.5 22.5t23.5 9.5q12 0 21.5 -9.5t9.5 -22.5zM627 385q0 -170 -250 -169q-237 1 -248 169q-1 18 17 18q16 0 17 -17
q8 -136 215 -136q206 0 214 136q1 17 17 17q18 0 18 -18z" />
    <glyph glyph-name="C" unicode="C" 
d="M736 376q0 -148 -105.5 -253t-254.5 -105q-148 0 -253 105t-105 254t105 254t254 105t254 -105.5t105 -254.5zM701 376q0 135 -95 230t-230 95q-134 0 -229.5 -95t-95.5 -230q0 -134 95.5 -229.5t229.5 -95.5q135 0 230 95.5t95 229.5zM527 517q0 -12 -9.5 -21.5
t-22.5 -9.5t-22.5 9.5t-9.5 21.5q0 13 9.5 22.5t22.5 9.5t22.5 -9.5t9.5 -22.5zM276 517q0 -12 -9.5 -21.5t-21.5 -9.5q-13 0 -23 9t-10 22t9.5 22.5t23.5 9.5q12 0 21.5 -9.5t9.5 -22.5zM627 379h-7l6 6q-7 -121 -131 -121h-241q-117 0 -125 121q-1 18 17 18q15 0 16 -17
q4 -87 92 -87h241q53 0 75 28q11 13 19 50q7 27 22 26q17 -1 16 -24z" />
    <glyph glyph-name="D" unicode="D" 
d="M737 377q0 -148 -105.5 -253t-254.5 -105q-148 0 -253 105t-105 254t105 254t254 105t254 -105.5t105 -254.5zM702 377q0 135 -95 230t-230 95q-134 0 -229.5 -95t-95.5 -230q0 -134 95.5 -229.5t229.5 -95.5q135 0 230 95.5t95 229.5zM527 517q0 -12 -9.5 -21.5
t-22.5 -9.5t-22.5 9.5t-9.5 21.5q0 13 9.5 22.5t22.5 9.5t22.5 -9.5t9.5 -22.5zM276 517q0 -12 -9.5 -21.5t-21.5 -9.5q-13 0 -23 9t-10 22t9.5 22.5t23.5 9.5q12 0 21.5 -9.5t9.5 -22.5zM598 264h-344q-117 0 -125 121q-1 18 17 18q15 0 16 -17q4 -87 92 -87h344
q22 0 22 -17q0 -18 -22 -18z" />
    <glyph glyph-name="E" unicode="E" 
d="M737 377q0 -148 -105.5 -253t-254.5 -105q-148 0 -253 105t-105 254t105 254t254 105t254 -105.5t105 -254.5zM702 377q0 135 -95 230t-230 95q-134 0 -229.5 -95t-95.5 -230q0 -134 95.5 -229.5t229.5 -95.5q135 0 230 95.5t95 229.5zM527 517q0 -12 -9.5 -21.5
t-22.5 -9.5t-22.5 9.5t-9.5 21.5q0 13 9.5 22.5t22.5 9.5t22.5 -9.5t9.5 -22.5zM276 517q0 -12 -9.5 -21.5t-21.5 -9.5q-13 0 -23 9t-10 22t9.5 22.5t23.5 9.5q12 0 21.5 -9.5t9.5 -22.5zM631 385q-8 -121 -126 -121h-343q-21 0 -21 14q0 21 21 21l343 1q51 0 72 27
q10 14 18 51q6 26 20 25q17 -1 16 -18z" />
    <glyph glyph-name="F" unicode="F" 
d="M737 377q0 -148 -105.5 -253t-254.5 -105q-148 0 -253 105t-105 254t105 254t254 105t254 -105.5t105 -254.5zM702 377q0 135 -95 230t-230 95q-134 0 -229.5 -95t-95.5 -230q0 -134 95.5 -229.5t229.5 -95.5q135 0 230 95.5t95 229.5zM527 517q0 -12 -9.5 -21.5
t-22.5 -9.5t-22.5 9.5t-9.5 21.5q0 13 9.5 22.5t22.5 9.5t22.5 -9.5t9.5 -22.5zM276 517q0 -12 -9.5 -21.5t-21.5 -9.5q-13 0 -23 9t-10 22t9.5 22.5t23.5 9.5q12 0 21.5 -9.5t9.5 -22.5zM593 253h-431q-17 0 -17 17t17 17h431q17 0 17 -17t-17 -17z" />
    <glyph glyph-name="G" unicode="G" 
d="M737 378q0 -148 -105.5 -253.5t-254.5 -105.5q-148 0 -253 105.5t-105 254.5t105 254t254 105t254 -105.5t105 -254.5zM702 378q0 135 -95 230t-230 95q-134 0 -229.5 -95t-95.5 -230t95.5 -230t229.5 -95q135 0 230 95t95 230zM527 517q0 -12 -9.5 -21.5t-22.5 -9.5
t-22.5 9.5t-9.5 21.5q0 13 9.5 22.5t22.5 9.5t22.5 -9.5t9.5 -22.5zM276 517q0 -12 -9.5 -21.5t-21.5 -9.5q-13 0 -23 9t-10 22t9.5 22.5t23.5 9.5q12 0 21.5 -9.5t9.5 -22.5zM631 264q1 -19 -18 -19q-15 0 -16 16q-6 88 -92 88h-343q-21 0 -21 13q0 21 21 21l343 1
q117 0 126 -121h-12v1h12z" />
    <glyph glyph-name="H" unicode="H" 
d="M737 377q0 -148 -105.5 -253t-254.5 -105q-148 0 -253 105t-105 254t105 254t254 105t254 -105.5t105 -254.5zM702 377q0 135 -95 230t-230 95q-134 0 -229.5 -95t-95.5 -230q0 -134 95.5 -229.5t229.5 -95.5q135 0 230 95.5t95 229.5zM527 517q0 -12 -9.5 -21.5
t-22.5 -9.5t-22.5 9.5t-9.5 21.5q0 13 9.5 22.5t22.5 9.5t22.5 -9.5t9.5 -22.5zM276 517q0 -12 -9.5 -21.5t-21.5 -9.5q-13 0 -23 9t-10 22t9.5 22.5t23.5 9.5q12 0 21.5 -9.5t9.5 -22.5zM598 349h-343q-50 0 -71 -28q-10 -13 -18 -51q-6 -27 -21 -26q-17 1 -16 18
q7 121 125 121h344q22 0 22 -17t-22 -17z" />
    <glyph glyph-name="I" unicode="I" 
d="M737 378q0 -148 -105.5 -253.5t-254.5 -105.5q-148 0 -253 105.5t-105 254.5t105 254t254 105t254 -105.5t105 -254.5zM702 378q0 135 -95 230t-230 95q-134 0 -229.5 -95t-95.5 -230t95.5 -230t229.5 -95q135 0 230 95t95 230zM527 517q0 -12 -9.5 -21.5t-22.5 -9.5
t-22.5 9.5t-9.5 21.5q0 13 9.5 22.5t22.5 9.5t22.5 -9.5t9.5 -22.5zM276 517q0 -12 -9.5 -21.5t-21.5 -9.5q-13 0 -23 9t-10 22t9.5 22.5t23.5 9.5q12 0 21.5 -9.5t9.5 -22.5zM627 264q1 -19 -18 -19q-16 0 -17 16q-5 88 -97 88h-240q-50 0 -71 -28q-10 -13 -18 -51
q-6 -27 -21 -26q-17 1 -16 18q7 121 125 121h241q124 0 132 -120h-12v1h12z" />
    <glyph glyph-name="J" unicode="J" 
d="M737 378q0 -148 -105.5 -253.5t-254.5 -105.5q-148 0 -253 105.5t-105 254.5t105 254t254 105t254 -105.5t105 -254.5zM702 378q0 135 -95 230t-230 95q-134 0 -229.5 -95t-95.5 -230t95.5 -230t229.5 -95q135 0 230 95t95 230zM527 517q0 -12 -9.5 -21.5t-22.5 -9.5
t-22.5 9.5t-9.5 21.5q0 13 9.5 22.5t22.5 9.5t22.5 -9.5t9.5 -22.5zM276 517q0 -12 -9.5 -21.5t-21.5 -9.5q-13 0 -23 9t-10 22t9.5 22.5t23.5 9.5q12 0 21.5 -9.5t9.5 -22.5zM627 215q1 -19 -18 -19q-16 0 -17 16q-9 136 -215 137t-214 -137q-1 -17 -17 -17q-18 0 -17 19
q12 169 248 169q238 0 250 -169h-12v1h12z" />
    <glyph glyph-name="K" unicode="K" 
d="M737 377q0 -148 -105.5 -253t-254.5 -105q-148 0 -253 105t-105 254t105 254t254 105t254 -105.5t105 -254.5zM702 377q0 135 -95 230t-230 95q-134 0 -229.5 -95t-95.5 -230q0 -134 95.5 -229.5t229.5 -95.5q135 0 230 95.5t95 229.5zM527 517q0 -12 -9.5 -21.5
t-22.5 -9.5t-22.5 9.5t-9.5 21.5q0 13 9.5 22.5t22.5 9.5t22.5 -9.5t9.5 -22.5zM276 517q0 -12 -9.5 -21.5t-21.5 -9.5q-13 0 -23 9t-10 22t9.5 22.5t23.5 9.5q12 0 21.5 -9.5t9.5 -22.5zM627 206q1 -18 -18 -18q-16 0 -17 16q-5 80 -67 133t-148 53q-84 0 -146.5 -52.5
t-67.5 -133.5q-1 -17 -17 -17q-18 0 -17 18q7 97 79 160.5t169 63.5q99 0 171 -63.5t79 -160.5h-12v1h12z" />
    <glyph glyph-name="L" unicode="L" 
d="M737 378q0 -148 -105.5 -253.5t-254.5 -105.5q-148 0 -253 105.5t-105 254.5t105 254t254 105t254 -105.5t105 -254.5zM702 378q0 135 -95 230t-230 95q-134 0 -229.5 -95t-95.5 -230t95.5 -230t229.5 -95q135 0 230 95t95 230zM527 517q0 -12 -9.5 -21.5t-22.5 -9.5
t-22.5 9.5t-9.5 21.5q0 13 9.5 22.5t22.5 9.5t22.5 -9.5t9.5 -22.5zM276 517q0 -12 -9.5 -21.5t-21.5 -9.5q-13 0 -23 9t-10 22t9.5 22.5t23.5 9.5q12 0 21.5 -9.5t9.5 -22.5zM627 215q1 -19 -18 -19q-16 0 -17 16q-9 136 -215 137t-214 -137q-1 -17 -17 -17q-18 0 -17 19
q12 169 248 169q238 0 250 -169h-12v1h12zM226 516q7 -35 7 -55q0 -21 -9 -37t-27 -16q-32 0 -32 32q0 21 18 27q5 1 15 4q16 5 28 45z" />
    <glyph glyph-name="M" unicode="M" 
d="M737 379q0 -148 -105.5 -253.5t-254.5 -105.5q-148 0 -253 105.5t-105 254.5t105 254t254 105t254 -105.5t105 -254.5zM702 379q0 135 -95 230t-230 95q-134 0 -229.5 -95t-95.5 -230t95.5 -230t229.5 -95q135 0 230 95t95 230zM527 517q0 -12 -9.5 -21.5t-22.5 -9.5
t-22.5 9.5t-9.5 21.5q0 13 9.5 22.5t22.5 9.5t22.5 -9.5t9.5 -22.5zM276 517q0 -12 -9.5 -21.5t-21.5 -9.5q-13 0 -23 9t-10 22t9.5 22.5t23.5 9.5q12 0 21.5 -9.5t9.5 -22.5zM627 215q1 -19 -18 -19q-16 0 -17 16q-9 136 -215 137t-214 -137q-1 -17 -17 -17q-18 0 -17 19
q12 169 248 169q238 0 250 -169h-12v1h12zM226 516q7 -35 7 -55q0 -21 -9 -37t-27 -16q-32 0 -32 32q0 21 18 27q5 1 15 4q16 5 28 45zM133 392q7 -36 7 -56t-9 -36t-27 -16q-31 0 -31 32q0 7 3 14v1q5 8 29 16q17 5 28 45z" />
    <glyph glyph-name="N" unicode="N" 
d="M737 379q0 -148 -105.5 -253.5t-254.5 -105.5q-148 0 -253 105.5t-105 254.5t105 254t254 105t254 -105.5t105 -254.5zM76 126q8 -35 8 -55q0 -19 -8.5 -35t-27.5 -16q-32 0 -32 33q0 19 17 25q5 1 15 4q16 5 28 44zM702 379q0 135 -95 230t-230 95q-134 0 -229.5 -95
t-95.5 -230t95.5 -230t229.5 -95q135 0 230 95t95 230zM527 517q0 -12 -9.5 -21.5t-22.5 -9.5t-22.5 9.5t-9.5 21.5q0 13 9.5 22.5t22.5 9.5t22.5 -9.5t9.5 -22.5zM276 517q0 -12 -9.5 -21.5t-21.5 -9.5q-13 0 -23 9t-10 22t9.5 22.5t23.5 9.5q12 0 21.5 -9.5t9.5 -22.5z
M627 215q1 -19 -18 -19q-16 0 -17 16q-9 136 -215 137t-214 -137q-1 -17 -17 -17q-18 0 -17 19q12 169 248 169q238 0 250 -169h-12v1h12zM226 516q7 -35 7 -55q0 -21 -9 -37t-27 -16q-32 0 -32 32q0 21 18 27q5 1 15 4q16 5 28 45zM133 392q7 -36 7 -56t-9 -36t-27 -16
q-31 0 -31 32q0 7 3 14v1q5 8 29 16q17 5 28 45z" />
    <glyph glyph-name="O" unicode="O" 
d="M737 378q0 -148 -105.5 -253.5t-254.5 -105.5q-148 0 -253 105.5t-105 254.5t105 254t254 105t254 -105.5t105 -254.5zM702 378q0 135 -95 230t-230 95q-134 0 -229.5 -95t-95.5 -230t95.5 -230t229.5 -95q135 0 230 95t95 230zM619 519q10 -15 -4 -26q-14 -10 -25 5
l-67 94q-4 5 -4 10q0 18 18 18q8 0 13 -7zM527 517q0 -12 -9.5 -21.5t-22.5 -9.5t-22.5 9.5t-9.5 21.5q0 13 9.5 22.5t22.5 9.5t22.5 -9.5t9.5 -22.5zM276 517q0 -12 -9.5 -21.5t-21.5 -9.5q-13 0 -23 9t-10 22t9.5 22.5t23.5 9.5q12 0 21.5 -9.5t9.5 -22.5zM218 594
l-68 -94q-6 -7 -14 -7q-17 0 -17 16q0 6 3 10l68 95q6 8 14 8q17 0 17 -17q0 -6 -3 -11zM627 215q1 -19 -18 -19q-16 0 -17 16q-9 136 -215 137t-214 -137q-1 -17 -17 -17q-18 0 -17 19q12 169 248 169q238 0 250 -169h-12v1h12z" />
    <glyph glyph-name="P" unicode="P" 
d="M738 378q0 -148 -105.5 -253.5t-254.5 -105.5q-148 0 -253.5 105.5t-105.5 254.5t105.5 254t254.5 105t254 -105.5t105 -254.5zM703 378q0 135 -95 230t-230 95t-230 -95t-95 -230t95 -230t230 -95t230 95t95 230zM609 569q9 -5 9 -17q0 -18 -15 -18q-5 0 -11 4l-101 57
q-9 5 -9 14q0 19 17 19q5 0 9 -3zM528 517q0 -13 -10 -22t-23 -9q-12 0 -21.5 9.5t-9.5 21.5q0 13 9.5 22.5t21.5 9.5q14 0 23.5 -9.5t9.5 -22.5zM248 595l-101 -57q-4 -3 -9 -3q-17 0 -17 19q0 9 9 14l101 57q4 2 8 2q17 0 17 -18q0 -10 -8 -14zM277 517q0 -12 -9.5 -21.5
t-22.5 -9.5t-22.5 9.5t-9.5 21.5q0 13 9.5 22.5t22.5 9.5t22.5 -9.5t9.5 -22.5zM628 215q1 -19 -18 -19q-16 0 -17 16q-9 136 -215 137t-214 -137q-1 -17 -17 -17q-19 0 -18 19q12 169 249 169q238 0 250 -169h-12v1h12z" />
    <glyph glyph-name="Q" unicode="Q" 
d="M737 377q0 -148 -105.5 -253t-254.5 -105q-148 0 -253 105t-105 254t105 254t254 105t254 -105.5t105 -254.5zM702 377q0 135 -95 230t-230 95q-134 0 -229.5 -95t-95.5 -230q0 -134 95.5 -229.5t229.5 -95.5q135 0 230 95.5t95 229.5zM575 609q0 -17 -18 -17l-114 2
q-18 0 -18 18q0 17 18 17l114 -2q18 0 18 -18zM527 517q0 -12 -9.5 -21.5t-22.5 -9.5t-22.5 9.5t-9.5 21.5q0 13 9.5 22.5t22.5 9.5t22.5 -9.5t9.5 -22.5zM300 591l-115 2q-17 0 -17 18q0 17 17 17l114 -2q18 0 18 -18q0 -17 -17 -17zM276 517q0 -12 -9.5 -21.5t-21.5 -9.5
q-13 0 -23 9t-10 22t9.5 22.5t23.5 9.5q12 0 21.5 -9.5t9.5 -22.5zM627 215q1 -19 -18 -19q-16 0 -17 16q-9 136 -215 137t-214 -137q-1 -17 -17 -17q-18 0 -17 19q12 169 248 169q238 0 250 -169h-12v1h12z" />
    <glyph glyph-name="R" unicode="R" 
d="M737 378q0 -148 -105.5 -253.5t-254.5 -105.5q-148 0 -253 105.5t-105 254.5t105 254t254 105t254 -105.5t105 -254.5zM702 378q0 135 -95 230t-230 95q-134 0 -229.5 -95t-95.5 -230t95.5 -230t229.5 -95q135 0 230 95t95 230zM566 600l-115 -59q-4 -2 -8 -2
q-17 0 -17 19q0 9 8 13l115 59q4 2 8 2q17 0 17 -19q0 -9 -8 -13zM527 517q0 -12 -9.5 -21.5t-22.5 -9.5t-22.5 9.5t-9.5 21.5q0 13 9.5 22.5t22.5 9.5t22.5 -9.5t9.5 -22.5zM315 548q-8 -15 -23 -7l-116 61q-9 4 -9 14q0 18 17 18q5 0 9 -3l115 -60q15 -7 7 -23zM276 517
q0 -12 -9.5 -21.5t-21.5 -9.5q-13 0 -23 9t-10 22t9.5 22.5t23.5 9.5q12 0 21.5 -9.5t9.5 -22.5zM627 215q1 -19 -18 -19q-16 0 -17 16q-9 136 -215 137t-214 -137q-1 -17 -17 -17q-18 0 -17 19q12 169 248 169q238 0 250 -169h-12v1h12z" />
    <glyph glyph-name="S" unicode="S" 
d="M737 376q0 -148 -105.5 -253t-254.5 -105q-148 0 -253 105t-105 254t105 254t254 105t254 -105.5t105 -254.5zM702 376q0 135 -95 230t-230 95q-134 0 -229.5 -95t-95.5 -230q0 -134 95.5 -229.5t229.5 -95.5q135 0 230 95.5t95 229.5zM527 517q0 -12 -9.5 -21.5
t-22.5 -9.5t-22.5 9.5t-9.5 21.5q0 13 9.5 22.5t22.5 9.5t22.5 -9.5t9.5 -22.5zM298 489q-5 -16 -22 -10l-106 40q-12 5 -12 17q0 17 16 17q4 0 7 -1l106 -41q17 -7 11 -22zM627 385q0 -95 -77 -158q-72 -60 -173 -60q-99 0 -169 60q-73 62 -79 158q-1 18 17 18q16 0 17 -17
q5 -80 67.5 -132.5t147.5 -52.5t147 52.5t67 132.5q1 17 17 17q18 0 18 -18z" />
    <glyph glyph-name="T" unicode="T" 
d="M737 376q0 -148 -105.5 -253t-254.5 -105q-148 0 -253 105t-105 254t105 254t254 105t254 -105.5t105 -254.5zM702 376q0 135 -95 230t-230 95q-134 0 -229.5 -95t-95.5 -230q0 -134 95.5 -229.5t229.5 -95.5q135 0 230 95.5t95 229.5zM566 518l-109 -39q-3 -1 -6 -1
q-17 0 -17 19q0 12 11 16l108 39q3 1 6 1q18 0 18 -20q0 -11 -11 -15zM280 517q0 -13 -10 -22t-23 -9q-12 0 -21.5 9.5t-9.5 21.5q0 13 9.5 22.5t21.5 9.5q14 0 23.5 -9.5t9.5 -22.5zM627 385q0 -95 -77 -158q-72 -60 -173 -60q-99 0 -169 60q-73 62 -79 158q-1 18 17 18
q16 0 17 -17q5 -80 67.5 -132.5t147.5 -52.5t147 52.5t67 132.5q1 17 17 17q18 0 18 -18z" />
    <glyph glyph-name="U" unicode="U" 
d="M737 376q0 -148 -105.5 -253t-254.5 -105q-148 0 -253 105t-105 254t105 254t254 105t254 -105.5t105 -254.5zM702 376q0 135 -95 230t-230 95q-134 0 -229.5 -95t-95.5 -230q0 -134 95.5 -229.5t229.5 -95.5q135 0 230 95.5t95 229.5zM563 498l-115 1q-17 0 -17 17
t17 17l114 -1q17 0 17 -17t-16 -17zM300 498l-115 1q-17 0 -17 17t17 17l114 -1q18 0 18 -17t-17 -17zM627 385q0 -95 -77 -158q-72 -60 -173 -60q-99 0 -169 60q-73 62 -79 158q-1 18 17 18q16 0 17 -17q5 -80 67.5 -132.5t147.5 -52.5t147 52.5t67 132.5q1 17 17 17
q18 0 18 -18z" />
    <glyph glyph-name="V" unicode="V" 
d="M737 376q0 -148 -105.5 -253t-254.5 -105q-148 0 -253 105t-105 254t105 254t254 105t254 -105.5t105 -254.5zM702 376q0 135 -95 230t-230 95q-134 0 -229.5 -95t-95.5 -230q0 -134 95.5 -229.5t229.5 -95.5q135 0 230 95.5t95 229.5zM563 499h-38l-1 -40q0 -17 -18 -17
q-17 0 -17 16l1 41h-42q-17 0 -17 18q0 17 17 17l42 -1l1 40q0 18 21 18q13 0 13 -18v-40h37q17 0 17 -17t-16 -17zM317 516q1 -17 -17 -17h-38l-1 -40q0 -17 -17 -17t-17 17l1 40l-43 1q-18 0 -18 21q0 13 18 13h43l1 40q0 18 21 18q12 0 12 -18v-40h31q24 -2 24 -18z
M627 385q0 -95 -77 -158q-72 -60 -173 -60q-99 0 -169 60q-73 62 -79 158q-1 18 17 18q16 0 17 -17q5 -80 67.5 -132.5t147.5 -52.5t147 52.5t67 132.5q1 17 17 17q18 0 18 -18z" />
    <glyph glyph-name="W" unicode="W" 
d="M737 377q0 -148 -105.5 -253t-254.5 -105q-148 0 -253 105t-105 254t105 254t254 105t254 -105.5t105 -254.5zM702 377q0 135 -95 230t-230 95q-134 0 -229.5 -95t-95.5 -230q0 -134 95.5 -229.5t229.5 -95.5q135 0 230 95.5t95 229.5zM527 517q0 -12 -9.5 -21.5
t-22.5 -9.5t-22.5 9.5t-9.5 21.5q0 13 9.5 22.5t22.5 9.5t22.5 -9.5t9.5 -22.5zM279 517q0 -12 -9.5 -21.5t-22.5 -9.5t-22.5 9.5t-9.5 21.5q0 13 9.5 22.5t22.5 9.5t22.5 -9.5t9.5 -22.5zM626 385q-10 -131 -151 -160q-3 -49 -31.5 -83.5t-64.5 -34.5t-64.5 34t-31.5 83
q-146 30 -154 161q-1 18 17 18q16 0 17 -17q8 -136 215 -136q206 0 214 136q1 17 17 17q18 0 17 -18zM440 218q-37 -3 -63 -3q-23 0 -58 3q4 -33 21.5 -55t39.5 -22q21 0 38.5 22t21.5 55z" />
    <glyph glyph-name="X" unicode="X" 
d="M737 376q0 -148 -105.5 -253t-254.5 -105q-148 0 -253 105t-105 254t105 254t254 105t254 -105.5t105 -254.5zM702 376q0 135 -95 230t-230 95q-134 0 -229.5 -95t-95.5 -230q0 -134 95.5 -229.5t229.5 -95.5q135 0 230 95.5t95 229.5zM527 516q0 -12 -9.5 -21.5
t-22.5 -9.5t-22.5 9.5t-9.5 21.5q0 13 9.5 22.5t22.5 9.5t22.5 -9.5t9.5 -22.5zM281 516q0 -12 -9.5 -21.5t-22.5 -9.5t-22.5 9.5t-9.5 21.5q0 13 9.5 22.5t22.5 9.5t22.5 -9.5t9.5 -22.5zM627 385q-12 -170 -250 -170q-12 0 -34 2q-16 -37 -46 -59.5t-61 -22.5
q-37 0 -59 34q-20 29 -20 69q0 25 8 49q-33 39 -36 98q-1 18 17 18q16 0 17 -17q8 -136 215 -136q206 0 214 136q1 17 17 17q19 0 18 -18zM306 220q-70 10 -112 41q-3 -12 -3 -24q0 -25 11 -44q13 -23 36 -23q41 0 68 50z" />
    <glyph glyph-name="Y" unicode="Y" 
d="M735 377q0 -148 -105.5 -253t-254.5 -105q-148 0 -253 105t-105 254t105 254t254 105t254 -105.5t105 -254.5zM700 377q0 135 -95 230t-230 95q-134 0 -229 -95t-95 -230q0 -134 95 -229.5t229 -95.5q135 0 230 95.5t95 229.5zM536 517q0 -12 -9.5 -21.5t-22.5 -9.5
t-22.5 9.5t-9.5 21.5q0 13 9.5 22.5t22.5 9.5t22.5 -9.5t9.5 -22.5zM292 511h-2q-5 -25 -30 -25q-14 0 -22.5 9.5t-8.5 21.5q1 32 32 32t31 -38zM626 379h-7l6 6q-4 -61 -37 -98q8 -25 8 -50q0 -39 -19 -68q-22 -34 -59 -34q-31 0 -61 22.5t-46 59.5q-14 -1 -35 -1
q-237 2 -248 169q-1 18 17 18q16 0 17 -17q10 -136 215 -136q206 0 214 136q1 17 17 17q19 0 18 -24zM559 261q-42 -31 -112 -41q26 -50 67 -50q24 0 37 23q10 19 10 45q0 11 -2 23z" />
    <glyph glyph-name="Z" unicode="Z" 
d="M739 375q0 -148 -105.5 -253t-254.5 -105q-148 0 -253.5 105t-105.5 254t105.5 254t254.5 105t254 -105.5t105 -254.5zM704 375q0 135 -95 230t-230 95t-230 -95t-95 -230q0 -134 95 -229t230 -95t230 95t95 229zM550 515q0 -15 -12 -26.5t-27 -11.5t-27 11.5t-12 26.5
t12 26.5t27 11.5t27 -11.5t12 -26.5zM469 397q1 -6 1 -13q0 -33 -28.5 -56.5t-63.5 -23.5q-38 0 -65.5 27.5t-21.5 64.5l20 122l12 -1v-123q0 -23 16.5 -39t39.5 -16t39 16t16 40v122l12 1zM285 523q0 -19 -11.5 -31.5t-27.5 -12.5q-15 0 -26.5 11.5t-11.5 26.5t11 26.5
t26 11.5q33 0 38 -32h2zM629 384q0 -95 -77 -158q-73 -60 -173 -60q-99 0 -171 61t-78 157q-1 18 18 18q16 0 17 -17q5 -80 67 -132.5t148 -52.5q85 0 147 52.5t67 132.5q1 17 15 17q20 0 20 -17v-1z" />
    <glyph glyph-name="bracketleft" unicode="[" horiz-adv-x="1000" 
d="M952 280q0 -21 -29.5 -49t-29.5 -43q0 -17 25.5 -42.5t25.5 -44.5q0 -10 -13 -36.5t-21 -26.5q-11 0 -11 10q0 6 9.5 24.5t9.5 23.5q0 9 -24 39t-24 53q0 24 30.5 52t30.5 42q0 8 -36 52t-36 71q0 17 16 39.5t16 35.5q0 18 -18 42q-15 19 -30 37q-30 37 -32 88
q-2 46 -3 93q-5 37 -78 37q-33 0 -82.5 -28.5t-57.5 -28.5q-1 0 -11 -1t-16 -1q-7 0 -7 4q22 11 58 32q66 45 116 45q65 0 85 -40q8 -17 14 -90q4 -65 30 -98q16 -21 33 -41q17 -26 17 -48q0 -20 -14.5 -43t-14.5 -31q0 -20 36 -62t36 -66zM499 607q-1 -2 -3 -7
q-13 -11 -25 -22q-15 -14 -18 -26t-13 -12q-13 0 -13 13q0 35 47 47q2 19 13 19q12 0 12 -12zM829 153q0 -16 -15 -35.5t-15 -30.5q0 -16 14 -38.5t14 -25.5q0 -13 -12 -13q-11 0 -26 33q-13 30 -13 44q0 19 14.5 37.5t14.5 27.5q0 10 -17 35t-17 45q0 22 19 59.5t19 55.5
q0 14 -11 41.5t-11 43.5q0 15 4 43.5t4 42.5q0 37 -19 67q-10 14 -37 40q-19 19 -19 30q0 5 3 16t3 15q-39 -4 -92 -2q5 -22 13 -65q14 -6 32 -21q21 -18 21 -29t-11 -11l-8 5q-9 12 -30 31q18 -116 18 -215q0 -44 -35 -70q-31 -23 -77 -23q-17 0 -40 9q-28 11 -28 24
q0 12 12 12q7 -2 25 -15q14 -10 31 -10q91 0 91 73q0 124 -15 225q-2 3 -2 11t-4 24.5t-4 25.5q0 4 1 12v12l8 17q51 0 95 -11q0 25 -16.5 36.5t-16.5 13.5q0 8 7 8q18 0 30 -21q9 -18 9 -37q0 -6 -2.5 -19t-2.5 -20q0 -5 20 -24q24 -22 36 -43q20 -34 20 -77
q0 -12 -3 -36.5t-3 -37.5q0 -17 11.5 -46t11.5 -45q0 -20 -17 -57.5t-17 -56.5q0 -16 17.5 -39.5t17.5 -40.5zM591 753l-4 -6q-38 -16 -57 -16q-27 0 -76 22.5t-92 22.5q-11 0 -33.5 -1t-34.5 -1q-24 0 -48 -47q-21 -43 -21 -71q0 -15 21.5 -42.5t21.5 -50.5t-19.5 -58
t-19.5 -53q0 -30 30 -78.5t30 -76.5q0 -24 -18 -57.5t-18 -51.5q0 -13 12.5 -36.5t12.5 -38.5q0 -10 -10 -39t-17 -29q-12 0 -12 12q0 13 7.5 30t7.5 22q0 11 -15.5 37t-15.5 42q0 24 18.5 57.5t18.5 51.5t-30.5 68.5t-30.5 86.5q0 23 19 58.5t19 51.5q0 14 -19.5 42.5
t-19.5 51.5q0 40 28 86q31 52 68 52q11 0 32 1h31q55 0 105 -25t68 -25q12 0 31.5 7t24.5 7t5 -6zM591 214q-16 -40 -44 -40q-15 0 -37 18.5t-22 33.5q0 12 11 12q4 0 18.5 -22.5t29.5 -22.5q7 0 15 13q5 10 11 20q3 4 9 3q7 0 9 -4q2 -7 0 -11zM193 754q0 3 -15.5 -25
t-15.5 -56q0 -14 4 -41.5t4 -41.5q0 -23 -15 -64.5t-15 -63.5q0 -24 26 -62t26 -57q0 -16 -7.5 -47.5t-7.5 -48.5l1 -189q0 -12 -11 -12q-13 0 -13 66q0 20 2 68q1 43 1 67q0 15 7.5 44t7.5 43q0 20 -24.5 59t-24.5 69q0 23 15 64.5t15 63.5q0 14 -2.5 40t-2.5 39
q0 18 12 51q13 39 27 39q6 0 6 -5z" />
    <glyph glyph-name="backslash" unicode="\" horiz-adv-x="478" 
d="M438 633l-4 -5q-61 0 -92 -2v-1q0 -4 8.5 -9.5t8.5 -10.5q0 -25 -25 -25q-24 0 -24 25q0 7 7 12t13 9l-15 -1q-10 -5 -12 -5q-9 0 -9 9t63 9q62 0 76 -1q5 0 5 -4zM82 735q0 -11 -19 -11q-7 0 -7 9q0 10 19 10q7 0 7 -8zM374 247q0 -18 -14 -30t-33 -12q-6 0 -17.5 7
t-18.5 7t-26 -13.5t-46 -13.5q-34 0 -48 40q-8 0 -24 -5t-25 -5q-13 0 -23.5 10t-10.5 23q0 22 21 22q22 0 22 -20q0 -8 -5.5 -13.5l-5.5 -5.5q0 -2 2 -2q9 0 24.5 2.5t21.5 2.5q-4 12 -4 19q0 20 20 44t22 37q4 27 4 73q0 36 -18 162l-1 7q0 9 12 43q-4 -3 -24 -6
q-4 -19 -24.5 -39t-39.5 -20q-18 0 -18 36q0 13 4 18l-30 2q-23 2 -23 8l4 6h13q9 0 29.5 38t49.5 38q8 0 22 -32q10 -26 13 -40l18 3q7 0 8 -4q5 15 5 27q0 48 -8 71q-2 5 -13 3q-19 -3 -16 -3q-69 0 -69 7l5 5q10 0 30.5 5t31.5 5q18 0 32 -7q18 -9 18 -111
q0 -10 -6.5 -26.5t-6.5 -24.5l1 -5q18 -90 18 -166q0 -47 -4 -75q-2 -15 -17.5 -40t-15.5 -39q0 -47 39 -47q11 0 29 15t33 15q20 0 36 -13v-2q26 0 26 19q0 5 -4 15q-3 3 -3 8q0 12 12 12l8 -4q8 -9 8 -31zM170 633q-1 12 -9 35q-10 27 -17 27q-22 0 -34 -27
q-15 -33 -23 -38q8 0 23.5 -1t22.5 -1t37 5zM169 618q-20 -4 -30 -4q5 -7 5 -14q0 -9 -6 -15q-2 -3 -13 -4.5t-11 -3.5q0 -4 6 -4q10 0 27.5 17t21.5 28zM306 78q0 -17 -17 -17q-7 0 -23 13.5t-16 21.5q0 21 20 21q9 0 22.5 -15t13.5 -24z" />
    <glyph glyph-name="bracketright" unicode="]" horiz-adv-x="1000" 
d="M950 650q0 -5 -5 -5q1 0 -31 26t-57 26q-15 0 -45.5 -17.5t-52.5 -17.5q-8 0 -43 16t-35 20q0 6 6 6l29.5 -13t42.5 -13q18 0 49 18.5t50 18.5q16 0 54 -26t38 -39zM960 522q0 -7 -4 -7q-1 0 -4 3q-20 27 -41 54q-27 33 -61 33q-10 0 -29 -5.5t-29 -5.5q-14 0 -40 14
t-26 26q1 3 3 3q5 0 23 -15.5t33 -15.5q12 0 33 7.5t32 7.5q26 0 68 -39.5t42 -59.5zM933 708q0 -7 -4 -7q-1 0 -4 3q-14 17 -27 33q-9 7 -42 7q-22 0 -65 -12.5t-66 -12.5q-22 0 -60.5 18.5t-60.5 18.5q-43 0 -65 -15l-4 -4h-4q-10 7 -32 20q-50 23 -159 23q-87 0 -132 -34
q-13 -10 -53 -65q-25 -34 -65 -34q-11 0 -34 7q-26 8 -26 15q2 7 9 7q5 0 17 -3t18 -3q41 0 66 32q39 49 54 59q49 32 146 32q130 0 193 -45q32 24 71 24q22 0 61 -14.5t60 -14.5q23 0 66 11t65 11q48 0 69 -41q4 -7 8 -16zM470 607q0 -48 -21 -48q-22 0 -22 48t22 48
q21 0 21 -48zM765 409q0 -31 -27 -51t-59 -20q-28 0 -68 11q-55 14 -66 16q4 -6 18 -46.5t14 -45.5q0 -2 -2 -2h-5q-22 5 -102 11q-65 5 -96 19q106 -102 194 -102q33 0 73.5 35t45.5 35q15 0 8 -13q18 -97 18 -176q0 -50 -9 -50q-7 0 -8 25q-2 18 -1 51q2 40 2 37
q0 55 -10 106l-54 -48q-32 -26 -67 -26q-77 0 -174 87q-19 21 -58 59q-41 34 -52 49q-20 28 -20 69q0 21 4 45q7 35 18 35q9 0 9 -8q0 -4 -7.5 -30.5t-7.5 -41.5q0 -48 30 -76q42 -39 86 -53q25 -7 80 -11t91 -15q-6 22 -13 45.5t-19 38.5l1 6q-1 2 -1 4q0 14 15 14
q14 0 61 -13.5t72 -13.5q23 0 43.5 11.5t20.5 32.5q0 37 -36 71q-22 21 -75 53t-68 47q-2 2 -2 3q0 6 4 6q3 0 21 -11q-6 15 -6 30q0 45 23 45q22 0 22 -45q0 -33 -16 -42q155 -89 155 -157zM276 713q0 -4 -3 -5q-2 -1 -7 0t-6 1q-40 0 -61.5 -33.5t-41.5 -66.5
q-29 -35 -81 -35q-34 0 -44 4q-3 1 -3 2q0 4 7 5q4 1 13 0q11 -1 12 -1q46 0 75 36q21 33 43 67q28 36 70 36q4 0 15.5 -3.5t11.5 -6.5zM358 4q0 -4 -7 -4q-19 0 -49 32q-28 28 -36 50q-24 61 -43 166q-25 135 -34 169l-8 -1q-36 -5 -57 25q-18 27 -18 66q0 21 11 41
q12 25 31 25q6 0 24 -5.5t18 -9.5q0 -5 -7 -5q1 0 -12.5 5.5t-22.5 5.5q-27 0 -27 -57q0 -58 67 -58q18 0 18 -16q0 -11 -8 -14q34 -120 47 -164q28 -91 55 -161q15 -40 20 -48q10 -18 35 -38q3 -3 3 -4z" />
    <glyph glyph-name="asciicircum" unicode="^" horiz-adv-x="1217" 
d="M1237 632q0 -7 -5 -13l-3 -4q-13 -10 -28 -10q-30 0 -74 37l-3 -1l-29 4q1 -14 -47 -20q-59 -7 -68 -11q-12 -6 -24 -27q-11 -17 -21 -17q-11 0 -33 4.5t-33 4.5t-34.5 -9t-36.5 -9q-14 0 -16 6q8 -41 16 -83q9 -49 9 -84q0 -57 -24 -101q-28 -51 -78 -64l6 -69
q1 -14 -16 -14q-7 0 -10 35l-2 44h-16q-16 0 -42 6l-3 5l-30 11v-102q0 -11 -15 -11q-10 0 -10 54q0 33 3 64q-120 35 -135 90q-9 -6 -22 -6q-25 0 -45 30q-19 27 -19 53q0 21 13.5 33.5t34.5 12.5q33 0 38 -16q-2 8 0 14q0 60 2 68q-13 8 -29 10q-15 0 -43.5 -11t-43.5 -11
q-40 -1 -98 17q-71 21 -71 51q0 7 7 12q-22 -9 -48 -9q-48 0 -76 32v6q-1 4 -1 6q0 10 37 16q27 5 45 5q58 0 63 -43q1 0 66 -8q39 -4 65 -4q7 0 29 18t60 18q13 0 38 -2t37 -2q15 0 30.5 12t28.5 12q16 0 46 -13t45 -13q7 0 23.5 18.5t37.5 18.5q39 0 69 -50q23 31 73 32
q38 1 77 -17q0 3 -2 9q0 21 30 21q10 0 28.5 -3.5t27.5 -3.5q10 0 27 7t26 7q13 0 35 -5t32 -6q3 6 13 2q15 15 34 15q14 0 48.5 -18.5t33.5 -30.5zM1201 637q-27 23 -46 23q-7 0 -10 -3zM1043 649l-21 1q-18 1 -48 -1q-35 -2 -47 -2l2 -1q-2 -6 -34 -29q-43 15 -62 15
q-39 0 -64 -22h-9l3 -6q0 -6 -10 -6q-6 0 -26.5 26t-42.5 26q-9 0 -27 -14.5t-37 -14.5q-16 0 -46 9t-46 9h-15l3 -5q0 -19 -39 -19q-16 0 -46.5 6.5t-45.5 6.5q-31 0 -38.5 -20t-36.5 -20q-27 0 -66 6q-32 6 -65 11l-5 -3q17 -27 66 -43q40 -14 80 -14q17 0 46.5 11.5
t44.5 11.5q35 0 40 -26q7 0 7 -7q0 -5 -2 -14t-2 -13q0 -6 1 -20t1 -21q0 -26 -24 -26q-10 0 -24 6.5t-20 6.5q-12 0 -16 -40q0 -34 35 -42q46 -9 60 -27q28 -37 74 -59q26 -13 90 -33l2 -8q16 -2 24 -2q59 0 97 47q35 45 35 105q0 25 -14.5 72t-14.5 72q0 36 21 44
q9 3 52 3q9 0 25 6.5t26 6.5q13 0 50 -14l-1 4q0 18 46 39q37 16 64 21zM158 624q-9 17 -32 16q-15 0 -61 -12q27 -9 39 -9q10 0 28.5 2.5t25.5 2.5zM718 487q0 -7 -11 -7q-10 0 -16 25q-5 19 -5 36q0 13 17 13q15 0 15 -67zM634 474q0 -8 -10 -8q-11 0 -18 25q-6 21 -5 34
q1 10 12 10q8 0 14.5 -24.5t6.5 -36.5zM762 430q-6 -38 -37 -60t-70 -22q-66 0 -115 45t-49 110q0 11 4 11l5 -4q4 -56 51 -97.5t104 -41.5q33 0 56 15q13 10 29 30q14 17 21 19l1 -4v-1zM908 63q-2 -17 -15 -17q-3 0 -75.5 56.5t-80.5 66.5q-17 -87 -103 -87q-64 0 -104 66
l-4 1q-21 0 -72 -32q-45 -29 -65 -50q-7 -10 -24 -30l-3 -1q-13 2 -15 14q34 43 74 75q53 43 92 43q19 0 54 -32t68 -32q38 0 57 20q8 9 21 37q8 17 20 14l2 4q39 1 77 -29q30 -29 61 -57q12 -9 33 -27z" />
    <glyph glyph-name="underscore" unicode="_" horiz-adv-x="523" 
d="M372 718q3 -4 3 -8q0 -13 -14 -13q-6 0 -10 5q-11 11 -16 11q-25 0 -27 -10q-1 -4 -6 -3q-4 1 -3 5q7 34 36 34q21 0 37 -21zM236 718q3 -4 3 -8q0 -13 -14 -13q-7 0 -11 5q-9 11 -15 11q-26 0 -28 -10q-1 -4 -5 -3t-3 5q8 34 36 34q21 0 37 -21zM362 523q0 -41 -21 -41
q-22 0 -22 41q0 42 22 42q21 0 21 -42zM225 523q0 -41 -22 -41q-21 0 -21 41q0 42 21 42q22 0 22 -42zM449 402q0 -33 -17 -59q-8 -95 -17 -121q-22 -68 -87 -68q-72 0 -138 62q-62 59 -80 131q-50 58 -50 155q0 72 20 72q16 0 16 -12q0 -10 -2.5 -30t-2.5 -30
q0 -98 56 -151t156 -53q49 0 90 27q47 30 47 77q0 4 5 4zM421 328q-19 -22 -45 -36q9 -40 9 -85q20 24 36 121zM376 197q-2 61 -8 91q-27 -12 -56 -15q10 -20 13 -91q32 0 51 15zM313 182q-1 46 -13 91q-32 0 -64 6q7 -51 3 -72q35 -21 74 -25zM231 231q0 22 -5 50
q-58 14 -95 45q34 -72 99 -113q1 6 1 18z" />
    <glyph glyph-name="grave" unicode="`" horiz-adv-x="523" 
d="M416 608q0 -14 -15 -14q-10 0 -14 10q-11 27 -44 27q-4 1 -14 0q-4 -1 -5 4q0 5 3 5.5t13.5 5.5t14.5 5q19 0 40 -12.5t21 -30.5zM362 523q0 -41 -21 -41q-22 0 -22 41q0 42 22 42q21 0 21 -42zM204 631h-15q-1 0 -5 -1t-6 -1q-23 0 -32 -25q-4 -10 -13 -10q-16 0 -16 14
q0 18 21 30.5t40 12.5q4 0 14 -5t13.5 -5.5t3.5 -5.5t-5 -4zM225 523q0 -41 -22 -41q-21 0 -21 41q0 42 21 42q22 0 22 -42zM448 162l-4 -5q-5 0 -5 5q0 47 -46 77q-41 26 -91 26q-100 0 -156 -53t-56 -151q0 -10 2.5 -30t2.5 -30q0 -12 -15 -12q-21 0 -21 72q0 95 50 155
q18 72 82.5 132.5t135.5 60.5q66 0 88 -67q10 -29 16 -122q17 -26 17 -58zM420 236q-9 52 -11 63q-9 38 -24 57q-2 -51 -9 -85q27 -15 44 -35zM375 366q-19 15 -51 15q0 -65 -13 -91q31 -3 56 -15q8 40 8 91zM312 381q-37 -4 -74 -25q5 -28 -3 -72q32 6 64 6q13 45 13 91z
M230 332q0 12 -1 18q-64 -40 -99 -113q37 32 96 45q4 23 4 50z" />
    <glyph glyph-name="a" unicode="a" 
d="M527 517q0 -12 -9.5 -21.5t-22.5 -9.5t-22.5 9.5t-9.5 21.5q0 13 9.5 22.5t22.5 9.5t22.5 -9.5t9.5 -22.5zM276 517q0 -12 -9.5 -21.5t-21.5 -9.5q-13 0 -23 9t-10 22t9.5 22.5t23.5 9.5q12 0 21.5 -9.5t9.5 -22.5zM627 385q0 -95 -77 -158q-72 -60 -173 -60
q-99 0 -169 60q-73 62 -79 158q-1 18 17 18q16 0 17 -17q5 -80 67.5 -132.5t147.5 -52.5t147 52.5t67 132.5q1 17 17 17q18 0 18 -18z" />
    <glyph glyph-name="b" unicode="b" 
d="M527 517q0 -12 -9.5 -21.5t-22.5 -9.5t-22.5 9.5t-9.5 21.5q0 13 9.5 22.5t22.5 9.5t22.5 -9.5t9.5 -22.5zM276 517q0 -12 -9.5 -21.5t-21.5 -9.5q-13 0 -23 9t-10 22t9.5 22.5t23.5 9.5q12 0 21.5 -9.5t9.5 -22.5zM627 385q0 -170 -250 -169q-237 1 -248 169
q-1 18 17 18q16 0 17 -17q8 -136 215 -136q206 0 214 136q1 17 17 17q18 0 18 -18z" />
    <glyph glyph-name="c" unicode="c" 
d="M527 517q0 -12 -9.5 -21.5t-22.5 -9.5t-22.5 9.5t-9.5 21.5q0 13 9.5 22.5t22.5 9.5t22.5 -9.5t9.5 -22.5zM276 517q0 -12 -9.5 -21.5t-21.5 -9.5q-13 0 -23 9t-10 22t9.5 22.5t23.5 9.5q12 0 21.5 -9.5t9.5 -22.5zM627 379h-7l6 6q-7 -121 -131 -121h-241
q-117 0 -125 121q-1 18 17 18q15 0 16 -17q4 -87 92 -87h241q53 0 75 28q11 13 19 50q7 27 22 26q17 -1 16 -24z" />
    <glyph glyph-name="d" unicode="d" 
d="M527 517q0 -12 -9.5 -21.5t-22.5 -9.5t-22.5 9.5t-9.5 21.5q0 13 9.5 22.5t22.5 9.5t22.5 -9.5t9.5 -22.5zM276 517q0 -12 -9.5 -21.5t-21.5 -9.5q-13 0 -23 9t-10 22t9.5 22.5t23.5 9.5q12 0 21.5 -9.5t9.5 -22.5zM598 264h-344q-117 0 -125 121q-1 18 17 18
q15 0 16 -17q4 -87 92 -87h344q22 0 22 -17q0 -18 -22 -18z" />
    <glyph glyph-name="e" unicode="e" 
d="M527 517q0 -12 -9.5 -21.5t-22.5 -9.5t-22.5 9.5t-9.5 21.5q0 13 9.5 22.5t22.5 9.5t22.5 -9.5t9.5 -22.5zM276 517q0 -12 -9.5 -21.5t-21.5 -9.5q-13 0 -23 9t-10 22t9.5 22.5t23.5 9.5q12 0 21.5 -9.5t9.5 -22.5zM631 385q-8 -121 -126 -121h-343q-21 0 -21 14
q0 21 21 21l343 1q51 0 72 27q10 14 18 51q6 26 20 25q17 -1 16 -18z" />
    <glyph glyph-name="f" unicode="f" 
d="M527 517q0 -12 -9.5 -21.5t-22.5 -9.5t-22.5 9.5t-9.5 21.5q0 13 9.5 22.5t22.5 9.5t22.5 -9.5t9.5 -22.5zM276 517q0 -12 -9.5 -21.5t-21.5 -9.5q-13 0 -23 9t-10 22t9.5 22.5t23.5 9.5q12 0 21.5 -9.5t9.5 -22.5zM593 253h-431q-17 0 -17 17t17 17h431q17 0 17 -17
t-17 -17z" />
    <glyph glyph-name="g" unicode="g" 
d="M527 517q0 -12 -9.5 -21.5t-22.5 -9.5t-22.5 9.5t-9.5 21.5q0 13 9.5 22.5t22.5 9.5t22.5 -9.5t9.5 -22.5zM276 517q0 -12 -9.5 -21.5t-21.5 -9.5q-13 0 -23 9t-10 22t9.5 22.5t23.5 9.5q12 0 21.5 -9.5t9.5 -22.5zM631 264q1 -19 -18 -19q-15 0 -16 16q-6 88 -92 88
h-343q-21 0 -21 13q0 21 21 21l343 1q117 0 126 -121h-12v1h12z" />
    <glyph glyph-name="h" unicode="h" 
d="M527 517q0 -12 -9.5 -21.5t-22.5 -9.5t-22.5 9.5t-9.5 21.5q0 13 9.5 22.5t22.5 9.5t22.5 -9.5t9.5 -22.5zM276 517q0 -12 -9.5 -21.5t-21.5 -9.5q-13 0 -23 9t-10 22t9.5 22.5t23.5 9.5q12 0 21.5 -9.5t9.5 -22.5zM598 349h-343q-50 0 -71 -28q-10 -13 -18 -51
q-6 -27 -21 -26q-17 1 -16 18q7 121 125 121h344q22 0 22 -17t-22 -17z" />
    <glyph glyph-name="i" unicode="i" 
d="M527 517q0 -12 -9.5 -21.5t-22.5 -9.5t-22.5 9.5t-9.5 21.5q0 13 9.5 22.5t22.5 9.5t22.5 -9.5t9.5 -22.5zM276 517q0 -12 -9.5 -21.5t-21.5 -9.5q-13 0 -23 9t-10 22t9.5 22.5t23.5 9.5q12 0 21.5 -9.5t9.5 -22.5zM627 264q1 -19 -18 -19q-16 0 -17 16q-5 88 -97 88
h-240q-50 0 -71 -28q-10 -13 -18 -51q-6 -27 -21 -26q-17 1 -16 18q7 121 125 121h241q124 0 132 -120h-12v1h12z" />
    <glyph glyph-name="j" unicode="j" 
d="M527 517q0 -12 -9.5 -21.5t-22.5 -9.5t-22.5 9.5t-9.5 21.5q0 13 9.5 22.5t22.5 9.5t22.5 -9.5t9.5 -22.5zM276 517q0 -12 -9.5 -21.5t-21.5 -9.5q-13 0 -23 9t-10 22t9.5 22.5t23.5 9.5q12 0 21.5 -9.5t9.5 -22.5zM627 215q1 -19 -18 -19q-16 0 -17 16q-9 136 -215 137
t-214 -137q-1 -17 -17 -17q-18 0 -17 19q12 169 248 169q238 0 250 -169h-12v1h12z" />
    <glyph glyph-name="k" unicode="k" 
d="M527 517q0 -12 -9.5 -21.5t-22.5 -9.5t-22.5 9.5t-9.5 21.5q0 13 9.5 22.5t22.5 9.5t22.5 -9.5t9.5 -22.5zM276 517q0 -12 -9.5 -21.5t-21.5 -9.5q-13 0 -23 9t-10 22t9.5 22.5t23.5 9.5q12 0 21.5 -9.5t9.5 -22.5zM627 161q1 -19 -18 -19q-16 0 -17 16q-5 81 -67 134
t-148 53q-84 0 -146.5 -52.5t-67.5 -134.5q-1 -16 -17 -16q-18 0 -17 18q7 96 79 159.5t169 63.5q98 0 170.5 -63.5t79.5 -159.5h-12v1h12z" />
    <glyph glyph-name="l" unicode="l" 
d="M527 517q0 -12 -9.5 -21.5t-22.5 -9.5t-22.5 9.5t-9.5 21.5q0 13 9.5 22.5t22.5 9.5t22.5 -9.5t9.5 -22.5zM276 517q0 -12 -9.5 -21.5t-21.5 -9.5q-13 0 -23 9t-10 22t9.5 22.5t23.5 9.5q12 0 21.5 -9.5t9.5 -22.5zM627 215q1 -19 -18 -19q-16 0 -17 16q-9 136 -215 137
t-214 -137q-1 -17 -17 -17q-18 0 -17 19q12 169 248 169q238 0 250 -169h-12v1h12zM226 516q7 -35 7 -55q0 -21 -9 -37t-27 -16q-32 0 -32 32q0 21 18 27q5 1 15 4q16 5 28 45z" />
    <glyph glyph-name="m" unicode="m" 
d="M527 517q0 -12 -9.5 -21.5t-22.5 -9.5t-22.5 9.5t-9.5 21.5q0 13 9.5 22.5t22.5 9.5t22.5 -9.5t9.5 -22.5zM276 517q0 -12 -9.5 -21.5t-21.5 -9.5q-13 0 -23 9t-10 22t9.5 22.5t23.5 9.5q12 0 21.5 -9.5t9.5 -22.5zM627 215q1 -19 -18 -19q-16 0 -17 16q-9 136 -215 137
t-214 -137q-1 -17 -17 -17q-18 0 -17 19q12 169 248 169q238 0 250 -169h-12v1h12zM226 516q7 -35 7 -55q0 -21 -9 -37t-27 -16q-32 0 -32 32q0 21 18 27q5 1 15 4q16 5 28 45zM133 392q7 -36 7 -56t-9 -36t-27 -16q-31 0 -31 32q0 7 3 14v1q5 8 29 16q17 5 28 45z" />
    <glyph glyph-name="n" unicode="n" 
d="M527 517q0 -12 -9.5 -21.5t-22.5 -9.5t-22.5 9.5t-9.5 21.5q0 13 9.5 22.5t22.5 9.5t22.5 -9.5t9.5 -22.5zM276 517q0 -12 -9.5 -21.5t-21.5 -9.5q-13 0 -23 9t-10 22t9.5 22.5t23.5 9.5q12 0 21.5 -9.5t9.5 -22.5zM627 215q1 -19 -18 -19q-16 0 -17 16q-9 136 -215 137
t-214 -137q-1 -17 -17 -17q-18 0 -17 19q12 169 248 169q238 0 250 -169h-12v1h12zM226 516q7 -35 7 -55q0 -21 -9 -37t-27 -16q-32 0 -32 32q0 21 18 27q5 1 15 4q16 5 28 45zM133 392q7 -36 7 -56t-9 -36t-27 -16q-31 0 -31 32q0 7 3 14v1q5 8 29 16q17 5 28 45zM76 126
q8 -35 8 -55q0 -19 -8.5 -35t-27.5 -16q-32 0 -32 33q0 19 17 25q5 1 15 4q16 5 28 44z" />
    <glyph glyph-name="o" unicode="o" 
d="M619 519q10 -15 -4 -26q-14 -10 -25 5l-67 94q-4 5 -4 10q0 18 18 18q8 0 13 -7zM527 517q0 -12 -9.5 -21.5t-22.5 -9.5t-22.5 9.5t-9.5 21.5q0 13 9.5 22.5t22.5 9.5t22.5 -9.5t9.5 -22.5zM276 517q0 -12 -9.5 -21.5t-21.5 -9.5q-13 0 -23 9t-10 22t9.5 22.5t23.5 9.5
q12 0 21.5 -9.5t9.5 -22.5zM218 594l-68 -94q-6 -7 -14 -7q-17 0 -17 16q0 6 3 10l68 95q6 8 14 8q17 0 17 -17q0 -6 -3 -11zM627 215q1 -19 -18 -19q-16 0 -17 16q-9 136 -215 137t-214 -137q-1 -17 -17 -17q-18 0 -17 19q12 169 248 169q238 0 250 -169h-12v1h12z" />
    <glyph glyph-name="p" unicode="p" 
d="M609 569q9 -5 9 -17q0 -18 -15 -18q-5 0 -11 4l-101 57q-9 5 -9 14q0 19 17 19q5 0 9 -3zM528 517q0 -13 -10 -22t-23 -9q-12 0 -21.5 9.5t-9.5 21.5q0 13 9.5 22.5t21.5 9.5q14 0 23.5 -9.5t9.5 -22.5zM248 595l-101 -57q-4 -3 -9 -3q-17 0 -17 19q0 9 9 14l101 57
q4 2 8 2q17 0 17 -18q0 -10 -8 -14zM277 517q0 -12 -9.5 -21.5t-22.5 -9.5t-22.5 9.5t-9.5 21.5q0 13 9.5 22.5t22.5 9.5t22.5 -9.5t9.5 -22.5zM628 215q1 -19 -18 -19q-16 0 -17 16q-9 136 -215 137t-214 -137q-1 -17 -17 -17q-19 0 -18 19q12 169 249 169q238 0 250 -169
h-12v1h12z" />
    <glyph glyph-name="q" unicode="q" 
d="M575 609q0 -17 -18 -17l-114 2q-18 0 -18 18q0 17 18 17l114 -2q18 0 18 -18zM527 517q0 -12 -9.5 -21.5t-22.5 -9.5t-22.5 9.5t-9.5 21.5q0 13 9.5 22.5t22.5 9.5t22.5 -9.5t9.5 -22.5zM300 591l-115 2q-17 0 -17 18q0 17 17 17l114 -2q18 0 18 -18q0 -17 -17 -17z
M276 517q0 -12 -9.5 -21.5t-21.5 -9.5q-13 0 -23 9t-10 22t9.5 22.5t23.5 9.5q12 0 21.5 -9.5t9.5 -22.5zM627 215q1 -19 -18 -19q-16 0 -17 16q-9 136 -215 137t-214 -137q-1 -17 -17 -17q-18 0 -17 19q12 169 248 169q238 0 250 -169h-12v1h12z" />
    <glyph glyph-name="r" unicode="r" 
d="M566 600l-115 -59q-4 -2 -8 -2q-17 0 -17 19q0 9 8 13l115 59q4 2 8 2q17 0 17 -19q0 -9 -8 -13zM527 517q0 -12 -9.5 -21.5t-22.5 -9.5t-22.5 9.5t-9.5 21.5q0 13 9.5 22.5t22.5 9.5t22.5 -9.5t9.5 -22.5zM315 548q-8 -15 -23 -7l-116 61q-9 4 -9 14q0 18 17 18
q5 0 9 -3l115 -60q15 -7 7 -23zM276 517q0 -12 -9.5 -21.5t-21.5 -9.5q-13 0 -23 9t-10 22t9.5 22.5t23.5 9.5q12 0 21.5 -9.5t9.5 -22.5zM627 215q1 -19 -18 -19q-16 0 -17 16q-9 136 -215 137t-214 -137q-1 -17 -17 -17q-18 0 -17 19q12 169 248 169q238 0 250 -169h-12v1
h12z" />
    <glyph glyph-name="s" unicode="s" 
d="M527 517q0 -12 -9.5 -21.5t-22.5 -9.5t-22.5 9.5t-9.5 21.5q0 13 9.5 22.5t22.5 9.5t22.5 -9.5t9.5 -22.5zM298 489q-5 -16 -22 -10l-106 40q-12 5 -12 17q0 17 16 17q4 0 7 -1l106 -41q17 -7 11 -22zM627 385q0 -95 -77 -158q-72 -60 -173 -60q-99 0 -169 60
q-73 62 -79 158q-1 18 17 18q16 0 17 -17q5 -80 67.5 -132.5t147.5 -52.5t147 52.5t67 132.5q1 17 17 17q18 0 18 -18z" />
    <glyph glyph-name="t" unicode="t" 
d="M566 518l-109 -39q-3 -1 -6 -1q-17 0 -17 19q0 12 11 16l108 39q3 1 6 1q18 0 18 -20q0 -11 -11 -15zM280 517q0 -13 -10 -22t-23 -9q-12 0 -21.5 9.5t-9.5 21.5q0 13 9.5 22.5t21.5 9.5q14 0 23.5 -9.5t9.5 -22.5zM627 385q0 -95 -77 -158q-72 -60 -173 -60
q-99 0 -169 60q-73 62 -79 158q-1 18 17 18q16 0 17 -17q5 -80 67.5 -132.5t147.5 -52.5t147 52.5t67 132.5q1 17 17 17q18 0 18 -18z" />
    <glyph glyph-name="u" unicode="u" 
d="M563 498l-115 1q-17 0 -17 17t17 17l114 -1q17 0 17 -17t-16 -17zM300 498l-115 1q-17 0 -17 17t17 17l114 -1q18 0 18 -17t-17 -17zM627 385q0 -95 -77 -158q-72 -60 -173 -60q-99 0 -169 60q-73 62 -79 158q-1 18 17 18q16 0 17 -17q5 -80 67.5 -132.5t147.5 -52.5
t147 52.5t67 132.5q1 17 17 17q18 0 18 -18z" />
    <glyph glyph-name="v" unicode="v" 
d="M563 499h-38l-1 -40q0 -17 -18 -17q-17 0 -17 16l1 41h-42q-17 0 -17 18q0 17 17 17l42 -1l1 40q0 18 21 18q13 0 13 -18v-40h37q17 0 17 -17t-16 -17zM317 516q1 -17 -17 -17h-38l-1 -40q0 -17 -17 -17t-17 17l1 40l-43 1q-18 0 -18 21q0 13 18 13h43l1 40q0 18 21 18
q12 0 12 -18v-40h31q24 -2 24 -18zM627 385q0 -95 -77 -158q-72 -60 -173 -60q-99 0 -169 60q-73 62 -79 158q-1 18 17 18q16 0 17 -17q5 -80 67.5 -132.5t147.5 -52.5t147 52.5t67 132.5q1 17 17 17q18 0 18 -18z" />
    <glyph glyph-name="w" unicode="w" 
d="M527 517q0 -12 -9.5 -21.5t-22.5 -9.5t-22.5 9.5t-9.5 21.5q0 13 9.5 22.5t22.5 9.5t22.5 -9.5t9.5 -22.5zM279 517q0 -12 -9.5 -21.5t-22.5 -9.5t-22.5 9.5t-9.5 21.5q0 13 9.5 22.5t22.5 9.5t22.5 -9.5t9.5 -22.5zM626 385q-10 -131 -151 -160q-3 -49 -31.5 -83.5
t-64.5 -34.5t-64.5 34t-31.5 83q-146 30 -154 161q-1 18 17 18q16 0 17 -17q8 -136 215 -136q206 0 214 136q1 17 17 17q18 0 17 -18zM440 218q-37 -3 -63 -3q-23 0 -58 3q4 -33 21.5 -55t39.5 -22q21 0 38.5 22t21.5 55z" />
    <glyph glyph-name="x" unicode="x" 
d="M527 516q0 -12 -9.5 -21.5t-22.5 -9.5t-22.5 9.5t-9.5 21.5q0 13 9.5 22.5t22.5 9.5t22.5 -9.5t9.5 -22.5zM281 516q0 -12 -9.5 -21.5t-22.5 -9.5t-22.5 9.5t-9.5 21.5q0 13 9.5 22.5t22.5 9.5t22.5 -9.5t9.5 -22.5zM627 385q-12 -170 -250 -170q-12 0 -34 2
q-16 -37 -46 -59.5t-61 -22.5q-37 0 -59 34q-20 29 -20 69q0 25 8 49q-33 39 -36 98q-1 18 17 18q16 0 17 -17q8 -136 215 -136q206 0 214 136q1 17 17 17q19 0 18 -18zM306 220q-70 10 -112 41q-3 -12 -3 -24q0 -25 11 -44q13 -23 36 -23q41 0 68 50z" />
    <glyph glyph-name="y" unicode="y" 
d="M536 517q0 -12 -9.5 -21.5t-22.5 -9.5t-22.5 9.5t-9.5 21.5q0 13 9.5 22.5t22.5 9.5t22.5 -9.5t9.5 -22.5zM292 511h-2q-5 -25 -30 -25q-14 0 -22.5 9.5t-8.5 21.5q1 32 32 32t31 -38zM626 379h-7l6 6q-4 -61 -37 -98q8 -25 8 -50q0 -39 -19 -68q-22 -34 -59 -34
q-31 0 -61 22.5t-46 59.5q-14 -1 -35 -1q-237 2 -248 169q-1 18 17 18q16 0 17 -17q10 -136 215 -136q206 0 214 136q1 17 17 17q19 0 18 -24zM559 261q-42 -31 -112 -41q26 -50 67 -50q24 0 37 23q10 19 10 45q0 11 -2 23z" />
    <glyph glyph-name="z" unicode="z" 
d="M550 515q0 -15 -12 -26.5t-27 -11.5t-27 11.5t-12 26.5t12 26.5t27 11.5t27 -11.5t12 -26.5zM469 397q1 -6 1 -13q0 -33 -28.5 -56.5t-63.5 -23.5q-38 0 -65.5 27.5t-21.5 64.5l20 122l12 -1v-123q0 -23 16.5 -39t39.5 -16t39 16t16 40v122l12 1zM285 523
q0 -19 -11.5 -31.5t-27.5 -12.5q-15 0 -26.5 11.5t-11.5 26.5t11 26.5t26 11.5q33 0 38 -32h2zM629 384q0 -95 -77 -158q-73 -60 -173 -60q-99 0 -171 61t-78 157q-1 18 18 18q16 0 17 -17q5 -80 67 -132.5t148 -52.5q85 0 147 52.5t67 132.5q1 17 15 17q20 0 20 -17v-1z
" />
    <glyph glyph-name="braceleft" unicode="{" horiz-adv-x="690" 
d="M677 662l-9 -7l-7 -2h-12l-6 7l-8 7l-23 10l-12 -8h-24l-13 -2l-11 -5l-12 -2l-12 -4l-12 -9l-11 7l-11 5l-7 7v11l-5 13l2 14l5 13l4 14l9 11l11 9h-5l10 2l7 -1l8 -6l-3 -12l-8 -8l-7 -12l-4 -15l2 -17l-4 -4l6 4l13 -1l11 5l13 2l11 7l13 4l13 4l13 3l13 -4l13 2
l12 -6l14 -1l7 -15l11 -9zM501 505l-23 -10l-11 -3l-11 3l-11 -2l-11 1l-8 4l-5 10l4 10l9 4l12 1h13l25 -2l16 -7zM427 731l-4 -15l-4 -13l4 -15l-6 -12l2 -16l-14 -6l-6 -11l-12 -1l-10 2l-16 -8l-3 19l-8 9h-16l-4 13l-9 8l-15 1l-3 17l-12 4l-10 7l-12 10l8 -16v-15
l6 -13l5 -17l-18 -9l4 -13l-7 -9l-12 4l-9 -12l-12 9l-13 3l-4 20l-11 6l-12 4l-9 11l-12 4l-10 10l-11 5l-16 -4l-10 11l-11 5l-14 -4l-10 17l-14 -12l-12 2l-12 1l-13 8l-8 2l-10 4l2 11l7 8l11 10l12 -7l12 -5l11 -3l37 3l9 -15l12 -3l13 -2l10 -10h13l10 -5l14 -1l6 -13
l12 -3l10 -7l7 -10l15 1l12 -2l-11 11v13l-3 12l3 15l2 22l5 4l4 4l5 8l5 1l7 -16l11 -4l15 2l3 -19l13 -3l11 -6l3 -16l11 -8l13 -4l10 -8l8 -11l12 -9l14 5l1 27l-6 14l5 13l5 12l-7 13l-3 13l9 11l9 6l6 -7l3 -7l2 -14zM326 515l-2 -10l-4 -9l-7 -3v1h-2l-8 -1l-10 -1
h-22l-11 -1l-9 7l-4 10l4 8l9 6l12 1h13l12 1l13 -4zM428 560l-2 -8l-4 -8l-3 -9l-9 -1l-15 -2v-14l-9 -12l10 -13l-6 -13l7 -12l1 -14l6 -14l-2 -14l6 -13v-15l4 -12l8 -13l-7 -16l8 -13l5 -13l-1 -15l-4 -11l1 -13l-8 -9l-1 -15h-14l-8 -7l-12 -4l-11 4l-11 -1h-13l-9 8
l-13 -1l-10 9l-12 3l-11 8l-9 3l1 13v12l13 6l10 -7l13 -2l8 -11l23 -10l13 2l12 -7l12 9l9 7l8 8l-2 12l-1 14l-1 13v14l-5 13l-8 10v15v14l-4 13l-2 13l-10 13l2 14l6 14l-10 13l-1 14v14l4 15l5 15l17 5l8 8l12 7zM645 379l-23 -4l3 -16l-7 -10l-6 -14l-13 -10l-6 2
l-10 -4l7 -13l-9 -14l3 -13l9 -15l-3 -13l-6 -14l-6 -12l5 -16l-16 -9l-2 -13l-2 -14l7 -17l-12 -10l-12 -9l3 -17l-13 -7l-1 -13l-11 -7l-10 -8v-17l-19 3l-3 -14l-13 -3l-10 -6l-9 -10l-6 -14l-13 2l-11 -1l-9 -18l-12 2l-14 11l-10 -11l-14 9l-11 -7l-2 12v-1l-13 -1
l-11 2l-12 -15l-13 -4l-9 19l-11 5l-14 -10l-6 19l-10 7l-12 1l-7 11l-16 -3l-7 11l-13 3l1 18h-19l1 17l-2 13l-13 7l4 17l-5 12l-24 4l10 18l-16 9l4 15l-9 12l3 14l-1 13l-9 13l6 15l9 15l-16 12l7 14l-3 13l2 17l-16 -12l-11 11l-16 2l-6 14l9 19l-17 7l8 15l-12 12
l1 13l8 12l-1 14l15 7l2 13l-2 20l13 6l12 7l12 -9l13 2l6 15l-13 14l8 13l-4 15l19 14l-3 16l21 -12l4 -9l-11 -14l6 -15l-9 -14v-14l10 -16l-12 -31l-12 2l-12 5l2 3l-21 8l-6 -14l-7 -12l-10 -11l8 -16l-13 -13l14 -12l7 -8l-1 -21l11 -5l5 15l2 3l17 5l-1 -22l12 -3h-2
l-2 -1l-3 -4l5 -14l-10 -13l12 -14l-13 -14l12 -12l-10 -16l8 -12v-14l17 -10l-10 -16l10 -11l9 -12l-2 -15l-8 -18l5 -14l13 -9l10 -8l1 -17l9 -10l10 -9l14 -4l3 -19l16 3l10 -10l9 -10h12l10 -9l12 2l13 4l12 -6l12 -1l11 -11l12 10l12 2l11 4l12 -8l11 11l11 6l10 8
l13 -2l8 12l12 3l15 2l6 13v19l18 2l4 14l11 9l11 9l2 14l-2 16l8 10l-4 16l17 9l-14 18l2 12l8 13l-5 14l10 14l6 13l-6 14l-7 14l12 13l5 38l16 3l1 -1l5 -17l5 13l13 5l-3 15l6 12l2 13l5 16l-19 6l2 19l-15 1l-8 -5l1 3l-16 -2l-12 -1l7 30l-11 14l6 15l-18 13l5 15
l-6 15l13 6l11 14l10 -8l-7 -10l3 1l13 -25l-3 -14l-4 -14l-4 -23l18 6l11 -1l15 3l8 -9l14 -7l3 -16l6 -12l-2 -15l7 -14l-4 -12l2 -14zM416 175l-4 -12l-7 -10l-8 -10l-12 -4l-10 -4l-12 -1l-12 -4l-12 3l-10 8l-10 10l-4 12v14l2 11l9 4l9 -4l2 -11l13 -14l14 -2l13 4
l9 11l5 14l3 11l11 1l8 -4l3 -10v-13z" />
    <glyph glyph-name="bar" unicode="|" horiz-adv-x="630" 
d="M594 705l-12 -5l-3 4l-5 -4l-19 15l-6 14l-14 6l-12 -8l-25 -1l-9 -13h-11l-7 3l-15 21l-16 -5l-8 5l-4 -19l-41 -20l-5 21l-21 5l2 21l-26 -8l-9 -8l-18 -20l-20 2l-12 -17l-8 9l-16 3l-13 11l-5 15v11l-40 -32h-17l-9 -13l-17 -8l-33 36l-8 13l7 19l-10 12l-6 -5l9 30
l16 -3l12 -24l-5 -16l17 -24l16 -6l14 8v20l16 3l5 16l30 2l7 4l5 -9l31 -21l6 -10l-1 -8l-6 -2l11 -1l9 25l14 4l5 14l12 4l14 -3l12 17l11 -15l24 -10l4 -13l5 -3l3 8l13 5l8 13l9 -7l8 -1l14 4l11 -12l18 3l2 -7l8 1l-2 -5l13 -4l36 23l13 -10l16 6l25 -17v-32zM436 611
v-56h-16l-3 2l-4 40h1v11l6 10zM242 570l-4 -6l-7 -5l-13 3l-1 55l12 -3l7 -7l1 -6l-1 7zM382 604l-3 -16l-6 -5l-17 3l-10 -12l-5 -15l3 -45l12 -70l2 -14l8 -13l-2 -29l-6 -11l-10 -8l-8 -12l-40 -4l-13 7l-14 -4l-10 8l-25 10l-11 10l-28 3l-1 8l-3 9l1 10l12 8l12 -7
l15 -2l51 -25l25 -9l12 8l15 3l-11 82l5 14l-10 13l6 15l-7 13l2 28l-5 29l27 28l26 3v1l-5 -1v2l8 -1l-3 -1zM615 566l-3 -28l-87 -82l-23 6l-3 15l-7 -6l7 -29l-8 -13l-4 -42l3 -14l-10 -26l3 -16l-26 -19l10 -20l-16 -7l3 -18l-7 -12l-17 -6l1 -19l-20 -1l-13 -6l-1 -20
h-17l-21 -18l-14 -2l-7 -22l-7 6l-4 -18l6 -15l-9 -14l8 -15l-4 -15v-3l68 -2l12 -12l30 -3l38 -23l3 -17l27 -30l-1 -15l13 -10l6 -12l-11 -25l-22 12l-7 12l-2 15l-8 11v17l-20 21l-14 3l-62 29l-15 -8l-13 2l-14 8l-20 -3v-1h3v-3l-3 3h-6l6 1l-9 12h-7l3 15v87l27 18
l21 18l16 -1l8 15l11 9l5 13l13 8l-1 17l12 9l3 14l11 10l5 13l15 9l6 43l13 25l-9 16l11 13l13 27l-10 15l-1 28l9 14l-2 28l-13 28l4 14l-4 43l13 16l-20 12l6 15l11 -1l1 10l21 -17l-10 -15l11 -13l-12 -15l5 -6l80 26l26 -11l14 -25l-1 -14zM587 569l-13 27l-13 8
l-31 -1l-14 -6l-10 -11l2 -3l-17 -15l15 -27l-3 -14l-10 -14l14 -24l69 36zM329 257l-4 -6l-8 -5l-12 4l-8 11l-5 38l11 7l12 -4zM254 177l-19 -2l12 -18l-3 -12l-20 -8l-10 -12l5 -43l-8 -44l25 -6l-10 -14l-3 -17l-19 -2l7 23l-19 8v9l-2 -1l-44 -12l-22 -16l-14 -25
l-1 -52l-8 -9l-11 2l-9 7l11 82l93 49l8 9l2 14l-10 15l10 28l-5 16l7 29l18 6l-2 12l-25 -10l-2 20l-28 14l-2 34l-19 5l-11 11l-4 15l6 17l-14 10l5 42l-21 11l17 15l-15 12l1 14l7 13l-12 14v15l15 12l2 14l10 11l-6 6l-12 -12l-13 10l-30 -2l-39 26l1 19l-14 9l8 19
l-15 12l4 14l18 10l-12 18l2 16l17 5l8 13l28 8l27 -9l17 16l5 -27l22 -11l3 14l-4 -17l11 -13l-13 3l-12 -3v-3l-8 8l-9 16l-28 -10l-17 10l-8 -16l-13 -8l8 -17l-20 -27l12 -13l3 -15l11 -10l21 2l7 -13l22 6l22 -16l11 19l12 -21l-2 -41l-22 -12l10 -15l-3 -14l15 -27
l-18 -30l13 -12l4 -13l-6 -16l19 -10l-12 -18l13 -10l1 -16l21 -3l6 -31h20l-1 -23l21 2l5 -17l12 9z" />
    <glyph glyph-name="braceright" unicode="}" horiz-adv-x="637" 
d="M426 482l-5 -9l-8 -5l-10 2l-5 9l-1 38l8 8l10 -3l6 -7zM285 526v2l2 -5zM408 561l-13 -19l-6 -2l-13 6l-13 -7l-8 -13l10 -28l-5 -14l9 -11l-1 -14l11 -40l8 -11v-15l9 -25l-6 -26l-46 -23l-52 3l-11 9l-26 5l-20 11l-2 11l6 7l9 2l11 -5h14l11 -7l28 -1l12 -6l13 3
l15 -6l19 18l-8 38l-14 24l4 15l-11 10l-7 67l5 13v13l7 11l35 20l12 -4l-5 3l7 -4l-2 1zM622 338l-11 -13l7 -13l-13 -12l4 -14l-6 -12v-13l-8 -12l5 -15l-6 -27l-15 -9l2 -29l-4 -13l-18 -8l7 -17l-15 -24l-15 -8l2 -15l-13 -23l-15 -3l-11 11l35 58l-9 17l19 21l-3 15
l16 9l-5 16l30 46l3 13l-5 15l10 25l-10 15l7 26l-4 14l9 14l-4 13l-13 19l-14 -5l5 -31l-13 -9l-4 -13l-12 -9l5 -16l-16 -9l-4 -13l4 -41l-9 -13l13 -14l-12 -8l-18 -1l-2 9l-10 12l11 26l-8 14l11 11l-3 14l3 13l12 10l-2 14l18 7l1 14l-6 16l29 31l-4 16l4 13l11 11
l-6 17l15 10l-10 16l6 13l12 12l-6 13l3 13l-8 13l4 13l-4 12l1 14l-14 9l-1 13l-9 8l-4 14l-12 7l-6 15l-11 7l-31 -9l-22 5l4 -2l3 -15l16 -3l12 -9l1 -29l13 -10l-13 -17l22 -9l-4 -14l7 -13l-5 -54l-9 -13l-3 -13l10 -14l-9 -13l5 -14l-3 -13l6 -14l-20 -25l10 -15
l-16 -25l3 -14l-6 -12l11 -18l-18 -9l8 -17l-8 -12l1 -15l-25 -17l-4 -27l-16 -6l-9 -9l-3 -32l-22 4l-2 -21l-17 3l-2 -2l-1 -36l26 -40l53 -32l-1 -10l-6 -7l-10 -1l-35 17l-32 24l-16 21l-4 57l-10 -6l-25 9l-14 -7l-10 14l-7 -3l-1 -9l4 -15l-10 -71l-53 -42l-9 -10
l-12 -6l-28 -27l-11 30l19 11l8 11l14 3l9 11l13 6l7 13l19 20l6 27l-4 32v9l8 21l-10 -1l-4 15l-28 10l2 18l-20 3l5 32l-23 4l1 15l-6 12l4 30l-12 24l-16 11l8 15l-9 13l-3 41l11 15l-24 36l13 15l-13 12l-5 13l4 13l13 14l-1 13l-18 14l20 12l-3 13l-10 15l2 14l16 9
l-10 18l8 12l19 5l-5 19l19 2l5 13l24 10l4 19l11 -1l14 5l-1 -15l-6 -6l10 -14l-18 6l-20 -17l1 -19l-16 -2l-17 -23l4 -17l-19 -10l-1 -15l8 -14l-11 -13l22 -14l-2 -13l-15 -27l3 -13l-3 -28l22 -11l-17 -16l17 -10l-17 -15l19 -11l-1 -13l11 -24l-10 -29l15 -23l-6 -16
l22 -7l-9 -31l39 -41l13 -7l1 -18l12 -8l17 -1l6 -21l29 14l24 -12l5 9h9l14 7l-1 22l28 11l28 31l1 30l22 20l-8 43l15 9l-9 28l18 11l-9 28l20 24l-13 14l15 25l-14 15l12 12l-3 14l4 13l-7 14v14l10 14l-19 11l16 17l-5 13l-17 10l10 20l-15 8l-5 12h-18l-11 5v19l-11 -5
l-8 8l-4 -1l3 2l-6 6l-14 -4l-13 5l-17 -11l-10 18l-20 -9l5 7l-12 5l2 9l-24 6l2 5l-6 4l-3 7l2 12h26l15 -7l13 5l7 9l-10 1l-12 8l-14 1l-13 7l-16 -15l-13 9l-13 -6l-15 10l-41 -14l-7 -16l-14 -4l-17 -22l-23 3l3 -21l-19 -4l3 -31l-18 -9l8 -17l-19 -10l-3 -13l4 -6h2
v-4l9 -20l-21 -11l-1 -14l19 -14l-11 -13v-27l-7 -14l9 -12l-3 -15l13 -12v-13l-7 -15l4 -27l9 -12l-5 -15l23 -22l-14 -18l13 -10l6 -13l-3 -15l12 -11v-14l-26 -6l-14 9l11 16l-2 13l-19 8l12 17l-7 11l1 14l-18 9l-5 12l11 16l-10 11l5 14l-14 10l5 14l-3 13l4 14l-16 11
l15 15l-2 53l-6 6l-1 -3l-13 -9l3 -26l-15 -11l12 -13l-14 -24l12 -13l4 -24l-9 -14l-3 -14l10 -11l-2 -14l11 -10l-6 -16l27 -34l-1 -29l13 -9l-1 -16l11 -9l1 -16l16 -5l1 -17l11 -9l7 -12l28 -12l10 -9l-10 -16l5 -9l-9 -2l-4 6l-30 6l-11 26l-15 4v17l-39 52l-3 14
l-17 36l-11 11l7 16v14l-10 11l-5 13l3 28l-10 13l6 14v27l-13 14v14l8 14l-4 14l11 12l8 55l29 30l12 6v0l-2 3l3 -1l3 8l-8 15l9 12v30l16 24l23 18v19l16 3l7 13l24 14l8 14h31l11 9l15 -6l26 3l13 15l15 2l13 -6l11 -17l12 -4l15 3l10 -11l26 2l2 1l65 11l12 -4l13 6
l11 -12l12 -1l11 -7l12 -2l19 -14h16l12 -23l13 -6l-3 -16l11 -9l-2 -13l8 -11l-3 -20l3 -2l2 -14l8 -13l-13 -17l16 -12l-1 -29l-9 -14l2 -27l-6 -12l10 -17l-4 -14l-5 -2v-5l11 -10l-4 -15l11 -24l-2 -13l3 -13l-2 -13zM559 672l-17 20l-5 14l-23 17l-16 -4l-10 12l-13 3
l-14 -8l-13 9l-14 -4l-13 3l-24 -8l-8 -13l-12 -5h-9l10 -7l13 -1l14 -9l26 10l14 -1l13 7l29 2l12 -16l15 4l9 -12l15 1l12 -6l3 -16l5 -1zM366 708h-3l-19 -8l6 -5zM375 256l-17 -19l-24 -11h-26l-33 20l-9 25l4 11l11 4l9 -6l17 -22l14 -4l14 6l10 10l10 23l11 3l8 -6z
M262 515l-3 6l-1 7l7 8l10 1l10 -11l5 -31l-2 -10l-8 -7l-10 3l-8 7l-3 29v0v4l1 -3v0z" />
    <glyph glyph-name="asciitilde" unicode="~" horiz-adv-x="687" 
d="M544 705l-8 -12l-56 -42l-1 1l-13 -2l-11 9l1 13l8 10l-3 1l58 43h14l9 -9zM641 553l-8 -10l-70 1v1l-10 8l-3 13l9 10l68 -2l11 -8zM387 776l-1 -14l-9 -16l-23 -64l-13 -4l-8 11v10l23 83l11 8l14 -3zM642 395l-2 -12l-11 -7l-13 2l-52 37v1l-6 10v13l9 7h13l56 -39z
M238 666l-2 -14l-10 -8h-13l-9 11v-2l-21 80l5 11l10 8l13 -5l24 -82zM417 365l-13 -6l-13 5l-6 13v29l3 12l13 4l13 -4zM148 595l-4 -12l-11 -7l-12 4l2 -4l-62 72l5 13l13 2l11 -5l52 -53l1 2zM584 210l-13 -34l4 -20l-16 -11l-8 -14l-14 -10l-9 -17l-20 5l-16 -7l-52 3
l-14 13l-18 3l-12 10l-12 4l-1 -6l5 -17l2 -50l10 -14l12 -51l-38 4l-14 36l-9 117l5 3l-52 43l-17 24l3 15h27l25 -22l9 -15l16 -8l12 -12l17 -6l12 -14l29 -19l50 -6l42 15l16 31v18l-6 16l1 12l-3 2l-19 -6l-15 13l-54 10l-31 24h-18l5 9l-8 17l-53 45l-16 9l1 3l-3 25
l13 5l30 -15l6 -16l17 -7l32 -35l1 5l17 10l-7 22l21 8l-4 20l19 11l4 17l-4 18l7 16l-12 18l20 16l-2 36l-17 14l13 23l-10 17l-16 12l-22 3l-34 41l-35 -10l-31 -7l-17 8l-15 -9l-17 3l-15 -7l-8 -17l-24 2l-2 -22l-16 -9l-7 -16l3 -20l-23 -8l13 -21l-21 -11l17 -20
l1 -15l-5 -15l-13 -17l15 -32l-9 -18l4 -35l9 -15l3 -17l21 -12l5 -16l-15 -23l23 -11l-12 -20l31 -44l8 -33l-11 -20l1 -17l14 -14l-1 -17l16 -14l-12 -37l13 -9l-16 -18l-21 5l9 26l-3 17l-9 15l2 18l-23 12v18l-10 16l9 21l-13 14l8 20l-17 51l-16 13l-16 83l-13 14l7 19
l-13 50v17l-9 18l4 17l12 17l-5 18l27 63l14 12l19 50l16 8l11 15l53 10l14 13l18 -10l15 16l32 -25l19 13l17 -1l55 -41l21 -4v-21l15 -12l-10 -23l21 -29l4 -17l-4 -18l11 -36l-17 -15l6 -54l-25 -8l-1 -19l-33 -40l15 -27h-5l6 -6l19 1l64 -21l8 3l14 -4l2 -15l10 -15
v-18zM295 371l-6 -13l-11 -6l-13 4l-7 12l-1 34l-2 -1l2 14l12 6l13 -1l7 -11zM112 495l-4 -12l-84 -4l-11 6l-6 12l6 12l84 1l-3 1l-1 1l14 -4z" />
    <glyph glyph-name="Aring" unicode="&#xc5;" 
d="M719 378q0 -143 -102.5 -242.5t-253.5 -99.5v-1q-136 6 -232 105.5t-96 236.5q0 142 100 242t242 100q141 0 241.5 -100t100.5 -241zM533 515q0 16 -11 27t-27 11q-15 0 -25.5 -11t-10.5 -27q0 -14 11 -25t25 -11q16 0 27 10.5t11 25.5zM282 516q0 15 -11 26t-26 11
t-26 -11t-11 -26t11 -26t27 -11q15 0 25.5 11.5t10.5 25.5zM632 384q1 21 -20 24h-1q-22 2 -23 -21q-5 -79 -65.5 -130.5t-143.5 -51.5t-143.5 51t-65.5 130q-2 24 -25 22t-21 -24q7 -98 81 -161.5t174 -63.5t173.5 63.5t79.5 161.5z" />
    <glyph glyph-name="Ccedilla" unicode="&#xc7;" 
d="M719 378q0 -143 -102.5 -242.5t-253.5 -99.5v-1q-136 6 -232 105.5t-96 236.5q0 142 100 242t242 100q141 0 241.5 -100t100.5 -241zM533 515q0 16 -11 27t-27 11q-15 0 -25.5 -11t-10.5 -27q0 -14 11 -25t25 -11q16 0 27 10.5t11 25.5zM282 516q0 15 -11 26t-26 11
t-26 -11t-11 -26t11 -26t27 -11q15 0 25.5 11.5t10.5 25.5zM632 384q1 21 -20 24q-23 3 -24 -23q-4 -82 -93 -82l-240 1q-78 0 -84 82q-2 24 -26 22q-23 -2 -22 -24q8 -126 132 -126h240q129 0 137 126z" />
    <glyph glyph-name="cent" unicode="&#xa2;" 
d="M527 517q0 -12 -9.5 -21.5t-22.5 -9.5t-22.5 9.5t-9.5 21.5q0 13 9.5 22.5t22.5 9.5t22.5 -9.5t9.5 -22.5zM276 517q0 -12 -9.5 -21.5t-21.5 -9.5q-13 0 -23 9t-10 22t9.5 22.5t23.5 9.5q12 0 21.5 -9.5t9.5 -22.5zM615 386q0 -109 -73 -179q-68 -66 -165 -66
q-96 0 -165 68q-73 70 -73 177q0 19 16 19q8 0 14 -5q32 -28 100 -36q28 -3 108 -3q151 0 212 39q6 4 12 4q14 0 14 -18zM579 358q-69 -30 -201 -31q-145 -1 -202 27q12 -79 70 -128.5t132 -49.5q76 0 132 48q60 51 69 134z" />
    <glyph glyph-name="sterling" unicode="&#xa3;" 
d="M527 517q0 -12 -9.5 -21.5t-22.5 -9.5t-22.5 9.5t-9.5 21.5q0 13 9.5 22.5t22.5 9.5t22.5 -9.5t9.5 -22.5zM276 517q0 -12 -9.5 -21.5t-21.5 -9.5q-13 0 -23 9t-10 22t9.5 22.5t23.5 9.5q12 0 21.5 -9.5t9.5 -22.5zM615 386q0 -109 -73 -179q-68 -66 -165 -66
q-96 0 -165 68q-72 70 -72 177q0 19 16 19q10 0 15 -10q29 -57 89 -71q24 -5 117 -5q95 0 131 11q52 15 74 63q5 13 16 13q17 0 17 -20zM573 324q-31 -25 -82 -34q-38 -6 -113 -6q-74 0 -101 4q-60 7 -93 35q19 -67 73.5 -107.5t119.5 -40.5q67 0 122 40.5t74 108.5z" />
    <glyph glyph-name="section" unicode="&#xa7;" 
d="M737 378q0 -148 -105.5 -253.5t-254.5 -105.5q-148 0 -253 105.5t-105 254.5t105 254t254 105t254 -105.5t105 -254.5zM702 378q0 135 -95 230t-230 95q-134 0 -229.5 -95t-95.5 -230t95.5 -230t229.5 -95q135 0 230 95t95 230zM527 517q0 -12 -9.5 -21.5t-22.5 -9.5
t-22.5 9.5t-9.5 21.5q0 13 9.5 22.5t22.5 9.5t22.5 -9.5t9.5 -22.5zM276 517q0 -12 -9.5 -21.5t-21.5 -9.5q-13 0 -23 9t-10 22t9.5 22.5t23.5 9.5q12 0 21.5 -9.5t9.5 -22.5zM615 385h-12v1h12q-6 -91 -75 -150t-163 -59t-162.5 58t-75.5 150q-1 19 19 19q16 0 17 -16
q5 -77 63.5 -127t138.5 -50q81 0 140 49.5t63 126.5q1 17 17 17q19 0 18 -19z" />
    <glyph glyph-name="bullet" 
d="M737 378q0 -148 -105.5 -253.5t-254.5 -105.5q-148 0 -253 105.5t-105 254.5t105 254t254 105t254 -105.5t105 -254.5zM702 378q0 135 -95 230t-230 95q-134 0 -229.5 -95t-95.5 -230t95.5 -230t229.5 -95q135 0 230 95t95 230zM527 517q0 -12 -9.5 -21.5t-22.5 -9.5
t-22.5 9.5t-9.5 21.5q0 13 9.5 22.5t22.5 9.5t22.5 -9.5t9.5 -22.5zM276 517q0 -12 -9.5 -21.5t-21.5 -9.5q-13 0 -23 9t-10 22t9.5 22.5t23.5 9.5q12 0 21.5 -9.5t9.5 -22.5zM615 386q0 -109 -73 -179q-68 -66 -165 -66q-96 0 -165 68q-72 70 -72 177q0 19 16 19
q10 0 15 -10q29 -57 89 -71q24 -5 117 -5q95 0 131 11q52 15 74 63q5 13 16 13q17 0 17 -20zM573 324q-31 -25 -82 -34q-38 -6 -113 -6q-74 0 -101 4q-60 7 -93 35q19 -67 73.5 -107.5t119.5 -40.5q67 0 122 40.5t74 108.5z" />
    <glyph glyph-name="paragraph" unicode="&#xb6;" 
d="M738 379q0 -148 -105.5 -253.5t-254.5 -105.5q-148 0 -253.5 105.5t-105.5 254.5t105.5 254t254.5 105t254 -105.5t105 -254.5zM703 379q0 135 -95 230t-230 95t-230 -95t-95 -230t95 -230t230 -95t230 95t95 230zM527 517q0 -12 -9.5 -21.5t-22.5 -9.5t-22.5 9.5
t-9.5 21.5q0 13 9.5 22.5t22.5 9.5t22.5 -9.5t9.5 -22.5zM276 517q0 -12 -9.5 -21.5t-21.5 -9.5q-13 0 -23 9t-10 22t9.5 22.5t23.5 9.5q12 0 21.5 -9.5t9.5 -22.5zM615 385h-12v1h12q-6 -91 -75 -149.5t-163 -58.5q-95 0 -164 57q-73 61 -73 151q0 19 16 19q10 0 15 -10
q28 -55 77 -72q38 -13 129 -13q89 0 131 15q51 18 74 68q5 13 16 13q18 0 17 -21zM559 313q-54 -37 -182 -37q-135 0 -185 39q24 -47 75 -74.5t111 -27.5q58 0 106.5 27t74.5 73z" />
    <glyph glyph-name="trademark" 
d="M527 517q0 -12 -9.5 -21.5t-22.5 -9.5t-22.5 9.5t-9.5 21.5q0 13 9.5 22.5t22.5 9.5t22.5 -9.5t9.5 -22.5zM276 517q0 -12 -9.5 -21.5t-21.5 -9.5q-13 0 -23 9t-10 22t9.5 22.5t23.5 9.5q12 0 21.5 -9.5t9.5 -22.5zM615 385h-12v1h12q-6 -91 -75 -149.5t-163 -58.5
q-95 0 -164 57q-73 61 -73 151q0 19 16 19q10 0 15 -10q28 -55 77 -72q38 -13 129 -13q89 0 131 15q51 18 74 68q5 13 16 13q18 0 17 -21zM559 313q-54 -37 -182 -37q-135 0 -185 39q24 -47 75 -74.5t111 -27.5q58 0 106.5 27t74.5 73z" />
    <glyph glyph-name="Oslash" unicode="&#xd8;" 
d="M719 378q0 -143 -102.5 -242.5t-253.5 -99.5v-1q-136 6 -232 105.5t-96 236.5q0 142 100 242t242 100q141 0 241.5 -100t100.5 -241zM624 519l-69 99h-1q-13 14 -30 2q-18 -13 -5 -32l69 -96q13 -18 31 -4q18 13 5 31zM532 515q0 16 -11 27t-26 11t-26 -11t-11 -27
q0 -15 11 -25.5t26 -10.5t26 10.5t11 25.5zM281 516q0 15 -10.5 26t-25.5 11q-16 0 -27 -11t-11 -26t11 -26t27 -11q15 0 25.5 11.5t10.5 25.5zM632 215q-13 175 -254 175h-1q-241 0 -254 -175q-2 -23 21 -25t25 21q9 133 209 133t209 -131q2 -24 24 -22q23 1 21 24z
M222 591q11 16 -2 29v1q-21 15 -35 -4l-68 -96q-13 -18 6 -31q18 -14 32 6z" />
    <glyph glyph-name="ordmasculine" unicode="&#xba;" 
d="M737 375q0 -148 -105.5 -253t-254.5 -105q-148 0 -253 105t-105 254t105 254t254 105t254 -105.5t105 -254.5zM702 375q0 135 -95 230t-230 95q-134 0 -229.5 -95t-95.5 -230q0 -134 95.5 -229t229.5 -95q135 0 230 95t95 229zM527 517q0 -12 -9.5 -21.5t-22.5 -9.5
t-22.5 9.5t-9.5 21.5q0 13 9.5 22.5t22.5 9.5t22.5 -9.5t9.5 -22.5zM276 517q0 -12 -9.5 -21.5t-21.5 -9.5q-13 0 -23 9t-10 22t9.5 22.5t23.5 9.5q12 0 21.5 -9.5t9.5 -22.5zM615 406q0 -123 -73 -197q-67 -68 -165 -68q-99 0 -165 73q-73 79 -72 211q68 -58 175 -62
q20 -1 62 -1q153 1 238 56v-12zM578 355q-19 -8 -47 -15v-96q41 48 47 111zM496 211v121q-18 -2 -49 -4l1 -142q26 10 48 25zM412 177v149q-11 -1 -34 -1h-36v-147q20 -4 35 -4q14 0 35 3zM308 188v139q-39 2 -60 4v-109q27 -22 60 -34zM213 260v78q-18 5 -37 14
q8 -52 37 -92z" />
    <glyph glyph-name="exclamdown" unicode="&#xa1;" 
d="M527 517q0 -12 -9.5 -21.5t-22.5 -9.5t-22.5 9.5t-9.5 21.5q0 13 9.5 22.5t22.5 9.5t22.5 -9.5t9.5 -22.5zM276 517q0 -12 -9.5 -21.5t-21.5 -9.5q-13 0 -23 9t-10 22t9.5 22.5t23.5 9.5q12 0 21.5 -9.5t9.5 -22.5zM615 385h-12v1h12q-6 -91 -75 -150t-163 -59t-162.5 58
t-75.5 150q-1 19 19 19q16 0 17 -16q5 -77 63.5 -127t138.5 -50q81 0 140 49.5t63 126.5q1 17 17 17q19 0 18 -19z" />
    <glyph glyph-name="nonbreakingspace" unicode="&#xa0;" horiz-adv-x="455" 
 />
    <glyph glyph-name="OE" 
d="M719 378q0 -143 -102.5 -242.5t-253.5 -99.5v-1q-136 6 -232 105.5t-96 236.5q0 142 100 242t242 100q141 0 241.5 -100t100.5 -241zM581 607q0 24 -23 24l-115 1q-23 0 -23 -22q0 -24 24 -24l115 -2q22 0 22 23zM533 515q0 16 -11 27t-27 11q-15 0 -25.5 -11t-10.5 -27
q0 -14 11 -25t25 -11q16 0 27 10.5t11 25.5zM323 607q0 24 -22 24l-116 1q-22 0 -22 -22q0 -24 22 -24l116 -2q22 0 22 23zM282 516q0 15 -11 26t-26 11t-26 -11t-11 -26t11 -26t27 -11q15 0 25.5 11.5t10.5 25.5zM633 214q-12 175 -254 175h-1q-242 0 -254 -175
q-2 -23 21 -25t25 21q9 132 209 133t209 -131q2 -24 24 -22q23 1 21 24z" />
    <glyph glyph-name="quotedblbase" 
d="M719 378q0 -143 -102.5 -242.5t-253.5 -99.5v-1q-136 6 -232 105.5t-96 236.5q0 142 100 242t242 100q141 0 241.5 -100t100.5 -241zM533 515q0 16 -11 27t-27 11q-15 0 -25.5 -11t-10.5 -27q0 -14 11 -25t25 -11q16 0 27 10.5t11 25.5zM285 516q0 15 -11 26t-26 11h-1
q-15 0 -26.5 -11t-11.5 -26t11.5 -26t27.5 -11q15 0 26 11t11 26zM631 384q1 21 -20 24h-1q-22 2 -23 -21q-8 -132 -210 -133q-199 -1 -208 131q-2 23 -24 22q-24 -1 -22 -23q9 -134 155 -165q5 -50 34.5 -85t66.5 -35t67 35t35 85q143 33 150 165zM432 212
q-6 -30 -21.5 -48t-32.5 -18h-1q-16 0 -31.5 18t-21.5 46q18 -1 53 -1t55 3z" />
    <glyph glyph-name="perthousand" 
d="M719 378q0 -143 -102.5 -242.5t-253.5 -99.5v-1q-136 6 -232 105.5t-96 236.5q0 142 100 242t242 100q141 0 241.5 -100t100.5 -241zM533 515q0 16 -11 27t-27 11q-15 0 -25.5 -11t-10.5 -27q0 -14 11 -25t25 -11q16 0 27 10.5t11 25.5zM282 516q0 15 -11 26t-26 11
t-26 -11t-11 -26t11 -26t27 -11q15 0 25.5 11.5t10.5 25.5zM637 384q2 21 -21 24q-22 3 -24 -23q-5 -82 -86 -82h-343q-29 0 -29 -22q0 -23 29 -23h343q122 0 131 126z" />
    <glyph glyph-name="Acircumflex" unicode="&#xc2;" 
d="M719 378q0 -143 -102.5 -242.5t-253.5 -99.5v-1q-136 6 -232 105.5t-96 236.5q0 142 100 242t242 100q141 0 241.5 -100t100.5 -241zM533 515q0 16 -11 27t-27 11q-5 0 -10 -2l83 43q20 10 10 30q-7 13 -20 13q-5 0 -11 -3l-114 -58q-20 -10 -9 -30q6 -13 19 -13
q6 0 11 3l21 10q-16 -11 -16 -31q0 -14 11 -25t25 -11q16 0 27 10.5t11 25.5zM321 545q10 19 -10 30l-115 62q-5 3 -11 3q-13 0 -20 -13q-10 -21 10 -31l116 -61q5 -3 11 -3q13 0 19 13zM282 516q0 15 -11 26t-26 11t-26 -11t-11 -26t11 -26t27 -11q15 0 25.5 11.5
t10.5 25.5zM633 214q-12 175 -254 175h-1q-242 0 -254 -175q-2 -23 21 -25t25 21q9 132 209 133t209 -131q2 -24 24 -22q23 1 21 24zM485 551l-10 -5q4 4 10 5z" />
    <glyph glyph-name="Ecircumflex" unicode="&#xca;" 
d="M719 378q0 -143 -102.5 -242.5t-253.5 -99.5v-1q-136 6 -232 105.5t-96 236.5q0 142 100 242t242 100q141 0 241.5 -100t100.5 -241zM581 543q-5 15 -20 15q-4 0 -8 -1l-109 -39q-21 -8 -14 -30q5 -15 21 -15q4 0 8 1l108 39q22 8 14 30zM287 515q0 16 -11.5 27t-27.5 11
q-15 0 -26 -11t-11 -27q0 -15 11.5 -25.5t26.5 -10.5t26.5 10.5t11.5 25.5zM632 384q1 21 -20 24h-1q-22 2 -23 -21q-5 -79 -65.5 -130.5t-143.5 -51.5t-143.5 51t-65.5 130q-2 24 -25 22t-21 -24q7 -98 81 -161.5t174 -63.5t173.5 63.5t79.5 161.5z" />
    <glyph glyph-name="Aacute" unicode="&#xc1;" 
d="M719 378q0 -143 -102.5 -242.5t-253.5 -99.5v-1q-136 6 -232 105.5t-96 236.5q0 142 100 242t242 100q141 0 241.5 -100t100.5 -241zM542 515q0 16 -11 27t-26 11t-26 -11t-11 -27q0 -15 11 -25.5t26 -10.5t26 10.5t11 25.5zM299 516q0 15 -11 26t-26 11h-1
q-15 0 -26.5 -11t-11.5 -26t11.5 -26t27.5 -11q15 0 26 11.5t11 25.5zM631 384q1 21 -20 24q-23 3 -24 -21q-8 -132 -210 -133q-199 -1 -208 132q-2 24 -25 22t-22 -24q11 -175 256 -175q20 0 30 1q18 -37 48.5 -59t61.5 -22q40 0 64 35q22 31 22 74q0 24 -7 47q31 38 34 99
zM556 250q3 -26 -5 -47q-10 -28 -34 -28q-33 0 -58 40q59 10 97 35z" />
    <glyph glyph-name="Edieresis" unicode="&#xcb;" 
d="M719 378q0 -143 -102.5 -242.5t-253.5 -99.5v-1q-136 6 -232 105.5t-96 236.5q0 142 100 242t242 100q141 0 241.5 -100t100.5 -241zM586 515q0 23 -22 23l-116 2q-22 0 -22 -24q0 -23 22 -23l116 -2q22 0 22 24zM323 515q0 23 -22 23l-116 2q-22 0 -22 -24q0 -23 22 -23
l116 -2q22 0 22 24zM632 384q1 21 -20 24h-1q-22 2 -23 -21q-5 -79 -65.5 -130.5t-143.5 -51.5t-143.5 51t-65.5 130q-2 24 -25 22t-21 -24q7 -98 81 -161.5t174 -63.5t173.5 63.5t79.5 161.5z" />
    <glyph glyph-name="Egrave" unicode="&#xc8;" 
d="M719 378q0 -143 -102.5 -242.5t-253.5 -99.5v-1q-136 6 -232 105.5t-96 236.5q0 142 100 242t242 100q141 0 241.5 -100t100.5 -241zM533 515q0 16 -11 27t-27 11q-15 0 -25.5 -11t-10.5 -27q0 -14 11 -25t25 -11q16 0 27 10.5t11 25.5zM282 516q0 15 -11 26t-26 11
t-26 -11t-11 -26t11 -26t27 -11q15 0 25.5 11.5t10.5 25.5zM633 263q-9 126 -138 126h-240q-121 0 -132 -125q-2 -24 21 -26q19 -1 26 25q10 41 17 51q19 28 68 28h240q87 0 93 -81q2 -24 24 -22q23 1 21 24z" />
    <glyph glyph-name="Iacute" unicode="&#xcd;" 
d="M719 378q0 -143 -102.5 -242.5t-253.5 -99.5v-1q-136 6 -232 105.5t-96 236.5q0 142 100 242t242 100q141 0 241.5 -100t100.5 -241zM533 515q0 16 -11 27t-27 11q-15 0 -25.5 -11t-10.5 -27q0 -14 11 -25t25 -11q16 0 27 10.5t11 25.5zM304 487q8 21 -13 30l-107 41
q-4 1 -9 1q-15 0 -20 -15q-8 -21 13 -30l107 -41q4 -1 9 -1q15 0 20 15zM632 384q1 21 -20 24h-1q-22 2 -23 -21q-5 -79 -65.5 -130.5t-143.5 -51.5t-143.5 51t-65.5 130q-2 24 -25 22t-21 -24q7 -98 81 -161.5t174 -63.5t173.5 63.5t79.5 161.5z" />
    <glyph glyph-name="Icircumflex" unicode="&#xce;" 
d="M719 378q0 -143 -102.5 -242.5t-253.5 -99.5v-1q-136 6 -232 105.5t-96 236.5q0 142 100 242t242 100q141 0 241.5 -100t100.5 -241zM533 515q0 16 -11 27t-27 11q-15 0 -25.5 -11t-10.5 -27q0 -14 11 -25t25 -11q16 0 27 10.5t11 25.5zM282 516q0 15 -11 26t-26 11
t-26 -11t-11 -26t11 -26t27 -11q15 0 25.5 11.5t10.5 25.5zM599 303l-344 1q-78 0 -84 82q-2 24 -26 22q-23 -2 -22 -24q8 -126 132 -126h344q27 0 27 19q0 10 -8 18t-19 8z" />
    <glyph glyph-name="Idieresis" unicode="&#xcf;" 
d="M725 377q0 -143 -102 -244.5t-246 -101.5q-143 0 -244.5 101.5t-101.5 245.5t101.5 245.5t245.5 101.5t245.5 -102t101.5 -246zM534 517q0 16 -11.5 27.5t-27.5 11.5t-27.5 -11.5t-11.5 -27.5q0 -15 11.5 -26.5t27.5 -11.5t27.5 11.5t11.5 26.5zM283 517q0 16 -11.5 27.5
t-26.5 11.5q-17 0 -28.5 -11.5t-11.5 -27.5q0 -15 12 -26.5t28 -11.5q15 0 26.5 11.5t11.5 26.5zM593 246q24 0 24 24t-24 24h-431q-24 0 -24 -24t24 -24h431z" />
    <glyph glyph-name="Igrave" unicode="&#xcc;" 
d="M719 378q0 -143 -102.5 -242.5t-253.5 -99.5v-1q-136 6 -232 105.5t-96 236.5q0 142 100 242t242 100q141 0 241.5 -100t100.5 -241zM533 515q0 16 -11 27t-27 11q-15 0 -25.5 -11t-10.5 -27q0 -14 11 -25t25 -11q16 0 27 10.5t11 25.5zM282 516q0 15 -11 26t-26 11
t-26 -11t-11 -26t11 -26t27 -11q15 0 25.5 11.5t10.5 25.5zM639 263q-8 126 -133 126l-343 -1q-11 0 -19 -8.5t-8 -18.5q0 -19 27 -19h343q49 0 68 -28q6 -9 16 -51q7 -26 27 -25q23 2 22 25z" />
    <glyph glyph-name="Oacute" unicode="&#xd3;" 
d="M719 378q0 -143 -102.5 -242.5t-253.5 -99.5v-1q-136 6 -232 105.5t-96 236.5q0 142 100 242t242 100q141 0 241.5 -100t100.5 -241zM533 515q0 16 -11 27t-27 11q-15 0 -25.5 -11t-10.5 -27q0 -14 11 -25t25 -11q16 0 27 10.5t11 25.5zM282 516q0 15 -11 26t-26 11
t-26 -11t-11 -26t11 -26t27 -11q15 0 25.5 11.5t10.5 25.5zM599 343q11 0 19 8.5t8 18.5q0 19 -27 19h-344q-121 0 -132 -125q-2 -24 21 -26q19 -1 26 25q10 41 17 51q19 28 68 28z" />
    <glyph glyph-name="Ocircumflex" unicode="&#xd4;" 
d="M719 378q0 -143 -102.5 -242.5t-253.5 -99.5v-1q-136 6 -232 105.5t-96 236.5q0 142 100 242t242 100q141 0 241.5 -100t100.5 -241zM533 515q0 16 -11 27t-27 11q-15 0 -25.5 -11t-10.5 -27q0 -14 11 -25t25 -11q16 0 27 10.5t11 25.5zM282 516q0 15 -11 26t-26 11
t-26 -11t-11 -26t11 -26t27 -11q15 0 25.5 11.5t10.5 25.5zM633 214q-12 175 -254 175h-1q-242 0 -254 -175q-2 -23 21 -25t25 21q9 132 209 133t209 -131q2 -24 24 -22q23 1 21 24z" />
    <glyph glyph-name="Ograve" unicode="&#xd2;" 
d="M719 378q0 -143 -102.5 -242.5t-253.5 -99.5v-1q-136 6 -232 105.5t-96 236.5q0 142 100 242t242 100q141 0 241.5 -100t100.5 -241zM533 515q0 16 -11 27t-27 11q-15 0 -25.5 -11t-10.5 -27q0 -14 11 -25t25 -11q16 0 27 10.5t11 25.5zM282 516q0 15 -11 26t-26 11
t-26 -11t-11 -26q0 -11 7 -21q-8 -17 -17.5 -20.5t-18.5 -6.5t-13.5 -11.5t-4.5 -17.5q0 -16 10.5 -27t26.5 -11q22 0 32.5 20.5t8.5 57.5h7q15 0 25.5 11.5t10.5 25.5zM633 214q-12 175 -254 175h-1q-242 0 -254 -175q-2 -23 21 -25t25 21q9 132 209 133t209 -131
q2 -24 24 -22q23 1 21 24z" />
    <glyph glyph-name="Ucircumflex" unicode="&#xdb;" 
d="M719 378q0 -143 -102.5 -242.5t-253.5 -99.5v-1q-136 6 -232 105.5t-96 236.5q0 142 100 242t242 100q141 0 241.5 -100t100.5 -241zM553 516q0 18 -13 31t-30 13h-1q-17 0 -30 -13.5t-13 -30.5q0 -18 13 -31t31 -13t30.5 13t12.5 31zM473 396l-22 122q-2 11 -12 11
q-12 0 -12 -13v-122q0 -21 -14.5 -35.5t-35.5 -14.5t-35 14.5t-14 35.5v122q0 13 -10 13q-11 0 -13 -11l-21 -122q-1 -7 -1 -13q0 -36 29 -60t65 -24t66.5 24.5t30.5 59.5q0 7 -1 13zM290 516q0 18 -13.5 31t-30.5 13h-1q-17 0 -30 -13.5t-13 -30.5q0 -18 13 -31t31 -13
t31 13t13 31zM631 384q1 21 -21 24h-1q-22 2 -23 -21q-5 -79 -65.5 -130.5t-143.5 -51.5t-143.5 51t-65.5 130q-2 24 -25 22q-22 -2 -21 -24q6 -98 80 -161.5t175 -63.5q100 0 174 63.5t80 161.5z" />
    <glyph glyph-name="Ugrave" unicode="&#xd9;" 
d="M719 378q0 -143 -102.5 -242.5t-253.5 -99.5v-1q-136 6 -232 105.5t-96 236.5q0 142 100 242t242 100q141 0 241.5 -100t100.5 -241zM533 515q0 16 -11 27t-27 11q-15 0 -25.5 -11t-10.5 -27q0 -14 11 -25t25 -11q16 0 27 10.5t11 25.5zM287 516q0 15 -11 26t-26 11
t-26.5 -11t-11.5 -26t11.5 -26t27.5 -11q15 0 25.5 11.5t10.5 25.5zM632 384q1 21 -20 24h-1q-22 2 -23 -21q-8 -132 -210 -133q-199 -1 -208 131q-2 23 -25 22t-21 -23q5 -62 36 -99q-7 -24 -7 -48q0 -42 21 -73q24 -34 64 -34q31 0 61.5 21.5t48.5 58.5q10 -1 30 -1
q243 0 254 175zM295 215q-25 -40 -57 -40q-20 0 -31 21q-10 17 -10 39q0 7 1 15q39 -24 97 -35z" />
    <glyph glyph-name="circumflex" 
d="M719 378q0 -143 -102.5 -242.5t-253.5 -99.5v-1q-136 6 -232 105.5t-96 236.5q0 142 100 242t242 100q141 0 241.5 -100t100.5 -241zM533 515q0 16 -11 27t-27 11q-15 0 -25.5 -11t-10.5 -27q0 -14 11 -25t25 -11q16 0 27 10.5t11 25.5zM282 516q0 15 -11 26t-26 11
t-26 -11t-11 -26q0 -11 7 -21q-8 -17 -17.5 -20.5t-18.5 -6.5t-13.5 -11.5t-4.5 -17.5q0 -16 10.5 -27t26.5 -11q22 0 32.5 20.5t8.5 57.5h7q15 0 25.5 11.5t10.5 25.5zM633 214q-12 175 -254 175h-1q-242 0 -254 -175q-2 -23 21 -25t25 21q9 132 209 133t209 -131
q2 -24 24 -22q23 1 21 24zM140 295q7 16 7 35q0 26 -10 84q-14 -43 -24.5 -54t-43.5 -22h10q-10 -9 -10 -24q0 -38 37 -38q22 0 34 19zM90 114q9 -58 -2 -79q-8 -15 -25 -15q-30 0 -30 31q0 16 13 21l18 4q15 6 26 38z" />
    <glyph glyph-name="tilde" 
d="M719 378q0 -143 -102.5 -242.5t-253.5 -99.5v-1q-136 6 -232 105.5t-96 236.5q0 142 100 242t242 100q141 0 241.5 -100t100.5 -241zM533 515q0 16 -11 27t-27 11q-15 0 -25.5 -11t-10.5 -27q0 -14 11 -25t25 -11q16 0 27 10.5t11 25.5zM173 464l-7 -2h4q1 1 3 2z
M191 472q-6 -1 -18 -8q12 5 18 8zM283 516q0 15 -11 26t-26 11t-26 -11t-11 -26q0 -12 6 -21q-6 -15 -24 -23q5 1 7 2l2 -12h-30q-2 -2 -3 -5q-5 -9 -5 -18q0 -16 11 -27t27 -11q21 0 32.5 19t6.5 59h8q15 0 25.5 11.5t10.5 25.5zM633 214q-12 175 -254 175h-1
q-242 0 -254 -175q-2 -23 21 -25t25 21q9 132 209 133t209 -132q2 -24 24 -22q23 2 21 25zM87 344q-4 -2 -17 -6h9q3 4 8 6zM140 295q8 16 8 35q0 26 -12 84q-10 -35 -18.5 -48t-25.5 -20q5 1 14 4l2 -12h-29q-3 -3 -4 -6q-5 -8 -5 -18q0 -16 10.5 -27t26.5 -11q21 0 33 19z
" />
    <glyph glyph-name="infinity" unicode="&#x100;" 
d="M527 517q0 -12 -9.5 -21.5t-22.5 -9.5t-22.5 9.5t-9.5 21.5q0 13 9.5 22.5t22.5 9.5t22.5 -9.5t9.5 -22.5zM276 517q0 -12 -9.5 -21.5t-21.5 -9.5q-13 0 -23 9t-10 22t9.5 22.5t23.5 9.5q12 0 21.5 -9.5t9.5 -22.5zM615 406q0 -123 -73 -197q-67 -68 -165 -68
q-99 0 -165 73q-73 79 -72 211q68 -58 175 -62q20 -1 62 -1q153 1 238 56v-12zM578 355q-19 -8 -47 -15v-96q41 48 47 111zM496 211v121q-18 -2 -49 -4l1 -142q26 10 48 25zM412 177v149q-11 -1 -34 -1h-36v-147q20 -4 35 -4q14 0 35 3zM308 188v139q-39 2 -60 4v-109
q27 -22 60 -34zM213 260v78q-18 5 -37 14q8 -52 37 -92z" />
    <glyph glyph-name="product" unicode="&#x101;" 
d="M719 378q0 -143 -102.5 -242.5t-253.5 -99.5v-1q-136 6 -232 105.5t-96 236.5q0 142 100 242t242 100q141 0 241.5 -100t100.5 -241zM621 541q11 19 -8 30l-101 58q-6 3 -11 3q-13 0 -19 -12q-11 -19 8 -30l101 -58q6 -3 11 -3q13 0 19 12zM533 515q0 16 -11 27t-27 11
q-15 0 -25.5 -11t-10.5 -27q0 -14 11 -25t25 -11q16 0 27 10.5t11 25.5zM260 621q-6 12 -19 12q-6 0 -12 -4l-102 -58q-19 -11 -8 -31q6 -12 19 -12q6 0 12 4l102 58q19 11 8 31zM282 516q0 15 -11 26t-26 11t-26 -11t-11 -26t11 -26t27 -11q15 0 25.5 11.5t10.5 25.5z
M633 214q-12 175 -254 175h-1q-242 0 -254 -175q-2 -23 21 -25t25 21q9 132 209 133t209 -131q2 -24 24 -22q23 1 21 24z" />
    <glyph glyph-name="lozenge" unicode="&#x102;" 
d="M719 378q0 -143 -102.5 -242.5t-253.5 -99.5v-1q-136 6 -232 105.5t-96 236.5q0 142 100 242t242 100q141 0 241.5 -100t100.5 -241zM564 492q22 0 22 23t-22 23h-33l1 35q1 22 -23 22q-23 0 -23 -22v-35q-38 1 -36 1q-24 -3 -24 -23q0 -24 22 -24h37l-1 -36
q0 -11 7.5 -16.5t15.5 -4.5q22 0 24 22v35h33zM323 515q0 22 -22 23l-32 1q1 35 1 36q-3 21 -24 21q-23 0 -23 -23v-34l-38 1q-22 1 -22 -24q0 -23 22 -23h37l-1 -36q0 -11 7.5 -16t16.5 -5q19 1 23 22l1 34l32 -1q22 -1 22 24zM632 384q1 21 -20 24h-1q-22 2 -23 -21
q-5 -79 -65.5 -130.5t-143.5 -51.5t-143.5 51t-65.5 130q-2 24 -25 22t-21 -24q7 -98 81 -161.5t174 -63.5t173.5 63.5t79.5 161.5z" />
    <glyph glyph-name="apple" unicode="&#x103;" 
d="M719 378q0 -143 -102.5 -242.5t-253.5 -99.5v-1q-136 6 -232 105.5t-96 236.5q0 142 100 242t242 100q141 0 241.5 -100t100.5 -241zM533 515q0 16 -11 27t-27 11q-15 0 -25.5 -11t-10.5 -27q0 -14 11 -25t25 -11q16 0 27 10.5t11 25.5zM282 516q0 15 -11 26t-26 11
t-26 -11t-11 -26t11 -26t27 -11q15 0 25.5 11.5t10.5 25.5zM633 205q-7 95 -76 159t-165 69l1 1q-109 0 -185.5 -64.5t-83.5 -164.5q-2 -22 21 -24t25 21q5 79 65 130t143 51t144 -50.5t66 -128.5q2 -23 24 -22q23 1 21 23zM392 433l-10 -10l-4 10h14z" />
    <glyph glyph-name="dotlessi" unicode="&#x104;" 
d="M719 378q0 -143 -102.5 -242.5t-253.5 -99.5v-1q-136 6 -232 105.5t-96 236.5q0 142 100 242t242 100q141 0 241.5 -100t100.5 -241zM533 515q0 16 -11 27t-27 11q-15 0 -25.5 -11t-10.5 -27q0 -14 11 -25t25 -11q16 0 27 10.5t11 25.5zM282 516q0 15 -11 26t-26 11
t-26 -11t-11 -26t11 -26t27 -11q15 0 25.5 11.5t10.5 25.5zM632 384q1 21 -20 24h-1q-22 2 -23 -21q-8 -132 -210 -133q-199 -1 -208 132q-2 24 -25 22t-22 -24q11 -175 255 -175q243 0 254 175z" />
  </font>
</defs>
</svg>
